<?xml version="1.0" standalone="no"?>
<!DOCTYPE svg PUBLIC "-//W3C//DTD SVG 1.1//EN" "http://www.w3.org/Graphics/SVG/1.1/DTD/svg11.dtd" >
<svg xmlns="http://www.w3.org/2000/svg" xmlns:xlink="http://www.w3.org/1999/xlink" version="1.1">
<metadata>
Created by FontForge 20161003 at Tue Sep 10 17:40:17 2019
 By www-data
Copyright (C) 2002, 2007 Hoefler &#38; Frere-Jones. http://www.typography.com
</metadata>
<defs>
<font id="ChronicleTextG1SemiboldItalic" horiz-adv-x="750" >
  <font-face 
    font-family="ChronicleTextG1SemiboldItalic"
    font-weight="375"
    font-style="italic"
    font-stretch="normal"
    units-per-em="1000"
    panose-1="0 0 0 0 0 0 0 0 0 0"
    ascent="800"
    descent="-200"
    x-height="462"
    cap-height="658"
    bbox="-202 -335 1444 1123"
    underline-thickness="50"
    underline-position="-150"
    slope="-12"
    unicode-range="U+0020-FB04"
  />
<missing-glyph horiz-adv-x="500" 
d="M0 -200v1000h500v-1000h-500zM71 750l179 -390l179 390h-358zM50 -76l172 376l-172 376v-752zM450 676l-172 -376l172 -376v752zM250 240l-179 -390h358z" />
    <glyph glyph-name="f_f" unicode="ff" horiz-adv-x="640" 
d="M404 699q48 0 82 -16.5t48 -44.5q56 65 158 65q62 0 97.5 -26.5t35.5 -67.5q0 -32 -17.5 -51t-44.5 -19q-30 0 -46.5 16t-16.5 42q0 30 23 53q-10 15 -34 15q-69 0 -98 -129l-16 -76h122l-12 -48h-119l-71 -318q-37 -164 -89 -231t-142 -67q-57 0 -86 22t-29 59
q0 27 20 48t47 21q26 0 41.5 -17t15.5 -41q0 -33 -25 -51q10 -3 21 -3q54 0 84 135l100 443h-182l-66 -293q-40 -175 -94.5 -249t-149.5 -74q-59 0 -89.5 23.5t-30.5 63.5q0 28 20 48.5t47 20.5t43 -17.5t16 -42.5q0 -32 -26 -53q13 -5 25 -5q61 0 101 178l91 400h-112
l12 48h109l4 17q28 125 85.5 173.5t147.5 48.5zM462 460l3 16q5 28 15 57q-29 0 -45 16t-16 43q0 30 23 53q-11 16 -42 16q-75 0 -105 -135l-15 -66h182z" />
    <glyph glyph-name="fi" unicode="fi" horiz-adv-x="614" 
d="M271 412l-67 -308q-37 -170 -91 -239t-150 -69q-59 0 -89.5 23.5t-30.5 63.5q0 28 20 48.5t47 20.5t43 -17t16 -42q0 -33 -26 -54q13 -5 25 -5q30 0 54.5 35t43.5 127l92 416h-112l12 48h109l2 12q47 231 253 231q73 0 116 -30t43 -73q0 -30 -18.5 -48.5t-45.5 -18.5
q-31 0 -47.5 16t-16.5 44q0 32 24 54q-16 18 -58 18q-45 0 -76.5 -34t-50.5 -117l-12 -54h163l139 4l-108 -342q-10 -32 -10 -44q0 -21 20.5 -29t71.5 -6v-35q-48 -16 -106 -16q-103 0 -103 78q0 20 8 47l94 295h-178z" />
    <glyph glyph-name="fl" unicode="fl" horiz-adv-x="614" 
d="M271 412l-67 -308q-37 -170 -91 -239t-150 -69q-59 0 -89.5 23.5t-30.5 63.5q0 28 20 48.5t47 20.5t43 -17t16 -42q0 -33 -26 -54q13 -5 25 -5q30 0 54.5 35t43.5 127l92 416h-112l12 48h109l3 16q27 126 87.5 176.5t153.5 50.5q64 0 106 -29l104 26l17 -8l-164 -573
q-8 -27 -8 -41q0 -21 20.5 -27.5t74.5 -4.5v-34q-57 -19 -108 -19q-104 0 -104 79q0 22 9 51l87 289h-174zM459 460l20 78q-44 9 -44 56q0 31 24 53q-14 18 -50 18q-40 0 -68.5 -32.5t-46.5 -109.5l-14 -63h179z" />
    <glyph glyph-name="f_f_i" unicode="ffi" horiz-adv-x="909" 
d="M717 703q73 0 116 -30t43 -73q0 -30 -18.5 -48.5t-45.5 -18.5q-31 0 -47.5 16t-16.5 44q0 32 24 54q-16 18 -58 18q-45 0 -76.5 -34t-50.5 -117l-12 -54h163l139 4l-108 -342q-10 -32 -10 -44q0 -21 20.5 -29t71.5 -6v-35q-48 -16 -106 -16q-103 0 -103 78q0 20 8 47
l94 295h-178l-71 -318q-37 -164 -89 -231t-142 -67q-57 0 -86 22t-29 59q0 27 20 48t47 21q26 0 41.5 -17t15.5 -41q0 -33 -25 -51q10 -3 21 -3q54 0 84 135l100 443h-182l-66 -293q-40 -175 -94.5 -249t-149.5 -74q-59 0 -89.5 23.5t-30.5 63.5q0 28 20 48.5t47 20.5
t43 -17.5t16 -42.5q0 -32 -26 -53q13 -5 25 -5q61 0 101 178l91 400h-112l12 48h109l4 17q28 125 85.5 173.5t147.5 48.5q50 0 85.5 -18.5t47.5 -48.5q66 71 180 71zM465 476q5 23 16 57q-29 0 -45.5 16t-16.5 43q0 30 23 53q-11 16 -42 16q-75 0 -105 -135l-15 -66h182z
" />
    <glyph glyph-name="f_f_l" unicode="ffl" horiz-adv-x="909" 
d="M167 460l4 17q28 125 85.5 173.5t147.5 48.5q49 0 83.5 -17.5t47.5 -46.5q60 68 171 68q64 0 106 -29l104 26l17 -8l-164 -574q-8 -27 -8 -40q0 -21 20.5 -27.5t74.5 -4.5v-35q-57 -19 -108 -19q-104 0 -104 80q0 23 9 50l87 290h-174l-71 -318q-37 -164 -89 -231
t-142 -67q-57 0 -86 22t-29 59q0 27 20 48t47 21q26 0 41.5 -17t15.5 -41q0 -33 -25 -51q10 -3 21 -3q54 0 84 135l100 443h-182l-66 -293q-40 -175 -94.5 -249t-149.5 -74q-59 0 -89.5 23.5t-30.5 63.5q0 28 20 48.5t47 20.5t43 -17.5t16 -42.5q0 -32 -26 -53q13 -5 25 -5
q61 0 101 178l91 400h-112l12 48h109zM754 460l20 78q-44 9 -44 56q0 31 24 53q-14 18 -50 18q-40 0 -68.5 -32.5t-46.5 -109.5l-14 -63h179zM465 476q6 30 15 57q-29 0 -45 16t-16 43q0 30 23 53q-11 16 -42 16q-75 0 -105 -135l-15 -66h182z" />
    <glyph glyph-name="f_b" unicode="fb" horiz-adv-x="859" 
d="M559 408l4 -4q76 66 142 66q58 0 91.5 -43t33.5 -112q0 -73 -38.5 -147t-110 -125t-155.5 -51q-104 0 -182 61l63 204l38 155h-174l-67 -308q-38 -170 -91.5 -239t-149.5 -69q-59 0 -89.5 23.5t-30.5 63.5q0 28 20 48.5t47 20.5t43 -17t16 -42q0 -33 -26 -54q13 -5 25 -5
q30 0 54 35t44 127l92 416h-112l12 48h109l3 16q27 126 87.5 176.5t153.5 50.5q64 0 106 -29l108 26l17 -8zM457 460l20 78q-42 9 -42 56q0 31 24 53q-14 18 -50 18q-40 0 -68.5 -32.5t-46.5 -109.5l-14 -63h177zM551 33q67 0 111.5 85t44.5 189q0 94 -70 94q-43 0 -90 -41
l-71 -287q22 -40 75 -40z" />
    <glyph glyph-name="f_h" unicode="fh" horiz-adv-x="877" 
d="M271 412l-67 -308q-37 -170 -91 -239t-150 -69q-59 0 -89.5 23.5t-30.5 63.5q0 28 20 48.5t47 20.5t43 -17t16 -42q0 -33 -26 -54q13 -5 25 -5q30 0 54.5 35t43.5 127l92 416h-112l12 48h109l3 16q27 126 87.5 176.5t153.5 50.5q64 0 106 -29l108 26l17 -8l-88 -301l4 -4
q96 80 174 80q47 0 74 -25.5t27 -70.5q0 -24 -11 -59l-62 -189q-11 -33 -11 -49q0 -19 17.5 -25.5t65.5 -6.5v-34q-42 -15 -107 -15q-92 0 -92 67q0 22 10 51l59 181q9 27 9 50q0 50 -54 50q-49 0 -115 -49l-84 -343h-131l55 162l63 250h-174zM458 460l20 78q-43 9 -43 56
q0 31 24 53q-14 18 -50 18q-40 0 -68.5 -32.5t-46.5 -109.5l-14 -63h178z" />
    <glyph glyph-name="f_j" unicode="fj" horiz-adv-x="607" 
d="M271 412l-67 -308q-38 -170 -91.5 -239t-149.5 -69q-59 0 -89.5 23.5t-30.5 63.5q0 28 20 48.5t47 20.5t43 -17t16 -42q0 -33 -26 -54q13 -5 25 -5q30 0 54 35t44 127l92 416h-112l12 48h109l2 12q47 231 253 231q73 0 116 -30t43 -73q0 -30 -18.5 -48.5t-45.5 -18.5
q-31 0 -47.5 16t-16.5 44q0 32 24 54q-16 18 -58 18q-45 0 -76.5 -34t-50.5 -117l-12 -54h162l139 4l-105 -411q-36 -139 -83.5 -198t-135.5 -59q-58 0 -89.5 23t-31.5 59q0 28 19 48t46 20t43 -17.5t16 -41.5q0 -32 -24 -49q9 -4 20 -4q25 0 45 30t41 115l106 433h-177z
" />
    <glyph glyph-name="f_k" unicode="fk" horiz-adv-x="855" 
d="M271 412l-67 -308q-37 -170 -91 -239t-150 -69q-59 0 -89.5 23.5t-30.5 63.5q0 28 20 48.5t47 20.5t43 -17t16 -42q0 -33 -26 -54q13 -5 25 -5q30 0 54.5 35t43.5 127l92 416h-112l12 48h109l3 16q27 126 87.5 176.5t153.5 50.5q64 0 106 -29l108 26l17 -8l-118 -420h41
q24 0 46 31t39 68t50 68t76 31q34 0 54.5 -20.5t20.5 -49.5q0 -34 -20 -56.5t-49 -22.5q-56 0 -56 52q0 24 12 41q-24 -5 -40.5 -30t-35 -60.5t-39.5 -55.5v-6q63 -4 90.5 -29.5t27.5 -72.5q0 -13 -3 -40.5t-3 -44.5q0 -18 15 -26t65 -7v-34q-43 -15 -107 -15
q-55 0 -75 16.5t-20 53.5q0 20 4 56t4 46q0 40 -18 58t-61 18h-25l-59 -241h-131l55 162l63 250h-174zM458 460l20 78q-43 9 -43 56q0 31 24 53q-14 18 -50 18q-40 0 -68.5 -32.5t-46.5 -109.5l-14 -63h178z" />
    <glyph glyph-name="f_f_b" unicode="ffb" horiz-adv-x="1156" 
d="M708 703q64 0 106 -29l108 26l17 -8l-83 -284l4 -4q76 66 142 66q58 0 91.5 -43t33.5 -112q0 -73 -38.5 -147t-110 -125t-155.5 -51q-104 0 -182 61l62 202l40 158l-175 -1l-71 -318q-37 -164 -89 -231t-142 -67q-57 0 -86 22t-29 59q0 27 20 48t47 21q26 0 41.5 -17
t15.5 -41q0 -33 -25 -51q10 -3 21 -3q54 0 84 135l100 443h-182l-66 -293q-40 -175 -94.5 -249t-149.5 -74q-59 0 -89.5 23.5t-30.5 63.5q0 28 20 48.5t47 20.5t43 -17.5t16 -42.5q0 -32 -26 -53q13 -5 25 -5q61 0 101 178l91 400h-112l12 48h109l4 17q28 125 85.5 173.5
t147.5 48.5q49 0 83.5 -17.5t47.5 -46.5q60 68 171 68zM848 33q67 0 111.5 85t44.5 189q0 94 -70 94q-43 0 -90 -41l-71 -287q22 -40 75 -40zM755 461l19 77q-42 9 -42 56q0 31 24 53q-14 18 -50 18q-40 0 -68.5 -32.5t-46.5 -109.5l-14 -63zM467 476q6 30 15 57
q-29 0 -45 16t-16 43q0 30 23 53q-11 16 -42 16q-75 0 -105 -135l-15 -66h182z" />
    <glyph glyph-name="f_f_h" unicode="ffh" horiz-adv-x="1172" 
d="M167 460l4 17q28 125 85.5 173.5t147.5 48.5q49 0 83.5 -17.5t47.5 -46.5q60 68 171 68q64 0 106 -29l108 26l17 -8l-88 -301l4 -4q96 80 174 80q47 0 74 -25.5t27 -70.5q0 -24 -11 -59l-62 -190q-11 -33 -11 -48q0 -19 18 -26t65 -6v-35q-43 -15 -107 -15q-92 0 -92 68
q0 23 10 50l59 182q9 27 9 50q0 50 -54 50q-49 0 -115 -49l-84 -343h-131l55 162l63 250h-174l-71 -318q-37 -164 -89 -231t-142 -67q-57 0 -86 22t-29 59q0 27 20 48t47 21q26 0 41.5 -17t15.5 -41q0 -33 -25 -51q10 -3 21 -3q54 0 84 135l100 443h-182l-66 -293
q-40 -175 -94.5 -249t-149.5 -74q-59 0 -89.5 23.5t-30.5 63.5q0 28 20 48.5t47 20.5t43 -17.5t16 -42.5q0 -32 -26 -53q13 -5 25 -5q61 0 101 178l91 400h-112l12 48h109zM753 460l20 78q-43 9 -43 56q0 31 24 53q-14 18 -50 18q-40 0 -68.5 -32.5t-46.5 -109.5l-14 -63
h178zM465 476q6 30 15 57q-29 0 -45 16t-16 43q0 30 23 53q-11 16 -42 16q-75 0 -105 -135l-15 -66h182z" />
    <glyph glyph-name="f_f_j" unicode="ffj" horiz-adv-x="902" 
d="M167 460l4 17q28 125 85.5 173.5t147.5 48.5q50 0 85.5 -18.5t47.5 -48.5q66 71 180 71q73 0 116 -30t43 -73q0 -30 -18.5 -48.5t-45.5 -18.5q-31 0 -47.5 16t-16.5 44q0 32 24 54q-16 18 -58 18q-45 0 -76.5 -34t-50.5 -117l-12 -54h162l139 4l-105 -411
q-36 -139 -84.5 -198t-137.5 -59q-56 0 -87.5 22.5t-31.5 58.5q0 27 19 48t46 21t43 -17t16 -42q0 -32 -24 -49q9 -4 20 -4q26 0 46 30.5t41 114.5l106 433h-177l-71 -318q-37 -164 -89 -231t-142 -67q-57 0 -86 22t-29 59q0 27 20 48t47 21q26 0 41.5 -17t15.5 -41
q0 -33 -25 -51q10 -3 21 -3q54 0 84 135l100 443h-182l-66 -293q-40 -175 -94.5 -249t-149.5 -74q-59 0 -89.5 23.5t-30.5 63.5q0 28 20 48.5t47 20.5t43 -17.5t16 -42.5q0 -32 -26 -53q13 -5 25 -5q61 0 101 178l91 400h-112l12 48h109zM465 476q5 23 16 57q-29 0 -45.5 16
t-16.5 43q0 30 23 53q-11 16 -42 16q-75 0 -105 -135l-15 -66h182z" />
    <glyph glyph-name="f_f_k" unicode="ffk" horiz-adv-x="1150" 
d="M167 460l4 17q28 125 85.5 173.5t147.5 48.5q49 0 83.5 -17.5t47.5 -46.5q60 68 171 68q64 0 106 -29l108 26l17 -8l-118 -420h41q24 0 46 31t39 68t50 68t76 31q34 0 54.5 -20.5t20.5 -49.5q0 -34 -20 -56.5t-49 -22.5q-56 0 -56 52q0 24 12 41q-24 -5 -40.5 -30
t-35 -60.5t-39.5 -55.5v-6q63 -4 90.5 -29.5t27.5 -72.5q0 -13 -3 -40.5t-3 -44.5q0 -18 15 -26t65 -7v-34q-42 -15 -107 -15q-55 0 -75 16.5t-20 53.5q0 20 4 56t4 46q0 40 -18 58t-61 18h-25l-58 -239l-132 -2l55 162l63 250h-174l-71 -318q-37 -164 -89 -231t-142 -67
q-57 0 -86 22t-29 59q0 27 20 48t47 21q26 0 41.5 -17t15.5 -41q0 -33 -25 -51q10 -3 21 -3q54 0 84 135l100 443h-182l-66 -293q-40 -175 -94.5 -249t-149.5 -74q-59 0 -89.5 23.5t-30.5 63.5q0 28 20 48.5t47 20.5t43 -17.5t16 -42.5q0 -32 -26 -53q13 -5 25 -5
q61 0 101 178l91 400h-112l12 48h109zM753 460l20 78q-43 9 -43 56q0 31 24 53q-14 18 -50 18q-40 0 -68.5 -32.5t-46.5 -109.5l-14 -63h178zM465 476q6 30 15 57q-29 0 -45 16t-16 43q0 30 23 53q-11 16 -42 16q-75 0 -105 -135l-15 -66h182z" />
    <glyph glyph-name=".notdef" horiz-adv-x="500" 
d="M0 -200v1000h500v-1000h-500zM71 750l179 -390l179 390h-358zM50 -76l172 376l-172 376v-752zM450 676l-172 -376l172 -376v752zM250 240l-179 -390h358z" />
    <glyph glyph-name=".null" horiz-adv-x="0" 
 />
    <glyph glyph-name="nonmarkingreturn" horiz-adv-x="333" 
 />
    <glyph glyph-name="space" unicode=" " horiz-adv-x="184" 
 />
    <glyph glyph-name="exclam" unicode="!" horiz-adv-x="267" 
d="M143 196l-37 9q11 74 26 217.5t26 185.5q22 76 82 76q31 0 49.5 -20.5t18.5 -52.5q0 -30 -22.5 -86.5t-68.5 -156.5t-74 -172zM88 -16q-32 0 -54.5 22t-22.5 53t23 52.5t54 21.5q32 0 54.5 -21.5t22.5 -52.5t-23 -53t-54 -22z" />
    <glyph glyph-name="quotedbl" unicode="&#x22;" horiz-adv-x="420" 
d="M115 401l-34 21l42 90q43 96 64 124.5t49 28.5q22 0 36.5 -14t14.5 -34q0 -21 -20.5 -50.5t-82.5 -93.5zM306 401l-33 21l41 90q43 95 64.5 124t49.5 29q22 0 36.5 -14t14.5 -34q0 -21 -20.5 -50.5t-82.5 -93.5z" />
    <glyph glyph-name="numbersign" unicode="#" horiz-adv-x="670" 
d="M380 669l-60 -199h169l60 199h59l-60 -199h126l-5 -53h-137l-62 -205h132l-5 -53h-143l-59 -199h-59l60 199h-170l-59 -199h-59l60 199h-125l5 53h136l61 205h-130l5 53h141l60 199h59zM304 417l-62 -205h170l61 205h-169z" />
    <glyph glyph-name="dollar" unicode="$" horiz-adv-x="551" 
d="M231 -68l-55 4l21 82q-77 11 -122.5 44.5t-45.5 81.5q0 33 21 57t56 24q24 0 39.5 -16.5t15.5 -37.5q0 -46 -49 -66q8 -15 35 -29t63 -21l58 217q-78 33 -115 68.5t-37 92.5q0 69 61 124.5t173 55.5h13l19 71l55 -3l-19 -74q65 -13 105 -46t40 -74q0 -33 -19 -55t-48 -22
q-26 0 -42 15.5t-16 38.5q0 20 13 37.5t33 23.5q-28 32 -79 44l-55 -204q74 -32 113.5 -68.5t39.5 -93.5q0 -74 -60 -132t-169 -58h-21zM403 150q0 58 -89 102l-54 -203h13q63 0 96.5 29.5t33.5 71.5zM218 481q0 -31 21 -52.5t66 -42.5l50 190h-8q-57 0 -93 -27t-36 -68z
" />
    <glyph glyph-name="percent" unicode="%" horiz-adv-x="828" 
d="M403 586q36 -21 95 -21q102 0 179 83h59l-535 -674h-72l492 586l-5 5q-64 -44 -147 -44q-31 0 -52 4q-2 -48 -30.5 -108t-81.5 -106.5t-112 -46.5q-61 0 -91 33t-30 85q0 89 74.5 170.5t166.5 81.5q65 0 90 -48zM582 -15q-60 0 -90.5 33.5t-30.5 84.5q0 90 75 171.5
t167 81.5q49 0 76 -29t27 -80q0 -44 -27.5 -104t-81.5 -109t-115 -49zM600 27q58 0 109 78.5t51 145.5q0 58 -45 58q-60 0 -113 -78t-53 -146q0 -58 51 -58zM370 538q-44 16 -75 43q-52 -20 -93.5 -89.5t-41.5 -127.5q0 -59 51 -59q57 0 108 78.5t51 145.5v9z" />
    <glyph glyph-name="ampersand" unicode="&#x26;" horiz-adv-x="706" 
d="M345 373q100 64 100 152q0 31 -15 48t-40 17q-33 1 -60.5 -29t-27.5 -76q0 -49 43 -112zM244 303q-103 -60 -103 -150q0 -46 24.5 -73.5t70.5 -27.5q30 0 54.5 13t59.5 45q-38 107 -106 193zM442 206q109 152 183 152q36 0 56 -19.5t20 -52.5q0 -28 -19 -48.5t-47 -20.5
q-25 0 -43.5 15.5t-18.5 39.5q0 8 3 16l-4 5q-43 -26 -114 -122q25 -67 47.5 -91t49.5 -24q33 0 75 30l19 -27q-79 -75 -148 -75q-104 0 -140 96q-46 -49 -90 -72.5t-100 -23.5q-76 0 -117 41t-41 94q0 149 213 209q-38 64 -38 110q0 85 67.5 138.5t145.5 53.5q73 0 111 -32
t38 -79q0 -58 -46 -97.5t-141 -72.5q52 -66 79 -143z" />
    <glyph glyph-name="quotesingle" unicode="'" horiz-adv-x="228" 
d="M115 401l-34 21l42 90q43 96 64 124.5t49 28.5q22 0 36.5 -14t14.5 -34q0 -21 -20.5 -50.5t-82.5 -93.5z" />
    <glyph glyph-name="parenleft" unicode="(" horiz-adv-x="371" 
d="M289 -157q-100 46 -161.5 136t-61.5 210q0 184 128.5 332t311.5 201l12 -32q-142 -63 -233.5 -212t-91.5 -327q0 -179 122 -278z" />
    <glyph glyph-name="parenright" unicode=")" horiz-adv-x="371" 
d="M-108 -157l-12 31q143 63 234 212.5t91 327.5q0 179 -121 278l25 30q101 -47 162.5 -136.5t61.5 -209.5q0 -185 -129.5 -333t-311.5 -200z" />
    <glyph glyph-name="asterisk" unicode="*" horiz-adv-x="437" 
d="M369 334q-16 -6 -32 2t-24 28q-12 33 -12 122l-17 3q-46 -81 -68 -100q-18 -15 -35.5 -14.5t-28.5 13.5t-8 31t20 32q24 21 111 49l-2 17q-92 18 -116 33q-19 12 -24.5 29.5t3.5 31.5q10 15 27 17.5t37 -9.5q23 -15 81 -89l16 5q-11 93 -4 122q5 21 19.5 32t31.5 6
t25 -20.5t3 -37.5q-9 -33 -61 -105l10 -13q80 40 114 42q22 1 36.5 -9.5t15.5 -28.5q2 -17 -11 -29.5t-35 -13.5q-29 -3 -118 25l-9 -15q62 -64 74 -95q9 -22 3.5 -38.5t-22.5 -22.5z" />
    <glyph glyph-name="plus" unicode="+" horiz-adv-x="536" 
d="M381 523l-49 -184h181l-17 -63h-181l-50 -186h-69l50 186h-183l17 63h183l49 184h69z" />
    <glyph glyph-name="comma" unicode="," horiz-adv-x="263" 
d="M-52 -153l-13 32q129 52 150 109l-6 5q-29 2 -48 20.5t-19 45.5q0 31 21.5 53t52.5 22q32 0 55 -25t23 -63q0 -60 -52 -111.5t-164 -87.5z" />
    <glyph glyph-name="hyphen" unicode="-" horiz-adv-x="357" 
d="M41 216l21 77h266l-21 -77h-266z" />
    <glyph glyph-name="period" unicode="." horiz-adv-x="263" 
d="M88 -16q-32 0 -54.5 22t-22.5 53t23 52.5t54 21.5q32 0 54.5 -21.5t22.5 -52.5t-23 -53t-54 -22z" />
    <glyph glyph-name="slash" unicode="/" horiz-adv-x="431" 
d="M-122 -203l317 453l314 454h66l-318 -454l-314 -453h-65z" />
    <glyph glyph-name="zero" unicode="0" horiz-adv-x="603" 
d="M175 150q0 -121 79 -121q61 0 112.5 80.5t77.5 180.5t26 180q0 121 -79 121q-60 0 -112 -80t-78 -180.5t-26 -180.5zM598 402q0 -69 -23 -141t-65 -134.5t-109.5 -102.5t-147.5 -40q-99 0 -152.5 65t-53.5 169q0 55 14 112.5t43.5 112t69.5 97.5t97 69t121 26
q100 0 153 -64.5t53 -168.5z" />
    <glyph glyph-name="one" unicode="1" horiz-adv-x="435" 
d="M-11 0l9 39q65 1 92 10.5t33 31.5l110 415q11 41 -8 57.5t-93 16.5l10 37l257 18l-144 -544q-6 -21 17 -31t89 -11l-10 -39h-362z" />
    <glyph glyph-name="two" unicode="2" horiz-adv-x="554" 
d="M-10 0l22 87l192 133q129 89 178.5 148.5t49.5 126.5q0 43 -24.5 69t-74.5 26q-34 0 -63.5 -14.5t-44.5 -37.5q53 -20 53 -75q0 -31 -21 -55t-57 -24q-34 0 -56.5 23.5t-22.5 58.5q0 70 72 119.5t166 49.5q100 0 152 -40.5t52 -105.5q0 -72 -61.5 -133.5t-193.5 -139.5
l-185 -108l-2 -10h203q52 0 78.5 20t63.5 81l34 -2l-57 -197h-453z" />
    <glyph glyph-name="three" unicode="3" horiz-adv-x="547" 
d="M225 294l12 43q107 6 156 54q41 38 41 102q0 45 -27.5 72t-79.5 27q-53 0 -90 -30q42 -27 42 -67q0 -29 -18 -50.5t-51 -21.5t-54.5 20.5t-21.5 52.5q0 61 63 100t157 39q103 0 155.5 -40t52.5 -101q0 -148 -244 -178l-2 -8q92 -11 136 -50t44 -93q0 -77 -67 -129
t-181 -52q-98 0 -162 40.5t-64 101.5q0 35 21 59.5t56 24.5q32 0 51.5 -20t19.5 -49q0 -49 -44 -74q13 -16 42 -27.5t65 -11.5q56 0 93 35q43 41 43 113q0 52 -31 79.5t-113 38.5z" />
    <glyph glyph-name="four" unicode="4" horiz-adv-x="576" 
d="M551 187h-130l-29 -109q-6 -21 12.5 -29t62.5 -10l-10 -39h-301l10 39q52 2 74 10t27 29l29 109h-281l16 59l398 379l106 -5l-96 -363h130zM371 508l-261 -251h204l67 248z" />
    <glyph glyph-name="five" unicode="5" horiz-adv-x="544" 
d="M222 -16q-94 0 -147 37t-53 95q0 36 22 62t59 26q32 0 50.5 -20t18.5 -49q0 -48 -45 -75q27 -33 87 -33q69 0 113 54t44 136q0 112 -111 112q-61 0 -137 -39l-21 20l96 310h387l-46 -107h-315l-53 -164q74 31 139 31q91 0 140.5 -41t49.5 -112q0 -97 -76.5 -170
t-201.5 -73z" />
    <glyph glyph-name="six" unicode="6" horiz-adv-x="556" 
d="M250 -16q-97 0 -151 58.5t-53 154.5q0 127 72 226.5t191 154t268 62.5v-41q-282 -42 -372 -244l9 -5q61 66 148 66q72 0 117 -43t45 -118q0 -107 -78 -189t-196 -82zM243 25q62 0 108 79.5t46 169.5q0 48 -19.5 72.5t-53.5 24.5q-62 0 -111.5 -74t-49.5 -166
q0 -52 21.5 -79t58.5 -27z" />
    <glyph glyph-name="seven" unicode="7" horiz-adv-x="528" 
d="M52 -9l1 29l439 492h-229q-53 0 -76.5 -19.5t-56.5 -85.5l-37 1l65 212h422l13 -45l-247 -328l-177 -256h-117z" />
    <glyph glyph-name="eight" unicode="8" horiz-adv-x="563" 
d="M247 -16q-108 0 -165.5 42t-57.5 109q0 123 184 172q-82 58 -82 132q0 80 68.5 138t171.5 58q93 0 148.5 -43.5t55.5 -105.5q0 -113 -168 -158q50 -31 75 -64t25 -79q0 -88 -75.5 -144.5t-179.5 -56.5zM253 279q-3 1 -9 5q-108 -57 -108 -150q0 -47 32.5 -76t84.5 -29
q54 0 89.5 31.5t35.5 82.5q0 41 -28.5 69t-96.5 67zM249 484q0 -41 27 -70t88 -64q44 26 70 64.5t26 81.5q0 42 -25.5 68.5t-75.5 26.5q-46 0 -78 -29.5t-32 -77.5z" />
    <glyph glyph-name="nine" unicode="9" horiz-adv-x="556" 
d="M351 635q98 0 151.5 -58t53.5 -154q0 -127 -72 -226.5t-191.5 -154t-267.5 -62.5v41q281 42 373 243l-9 5q-62 -65 -149 -65q-72 0 -117.5 43t-45.5 118q0 107 78 188.5t196 81.5zM358 595q-61 0 -107 -79.5t-46 -169.5q0 -48 19 -72.5t53 -24.5q63 0 112 73.5t49 166.5
q0 52 -21 79t-59 27z" />
    <glyph glyph-name="colon" unicode=":" horiz-adv-x="268" 
d="M91 -16q-32 0 -55 22t-23 53t23 52.5t55 21.5t54.5 -21.5t22.5 -52.5t-23 -53t-54 -22zM167 272q-32 0 -54.5 22t-22.5 53t23 52.5t54 21.5q32 0 54.5 -21.5t22.5 -52.5t-23 -53t-54 -22z" />
    <glyph glyph-name="semicolon" unicode=";" horiz-adv-x="268" 
d="M167 272q-32 0 -54.5 22t-22.5 53t23 52.5t54 21.5q32 0 54.5 -21.5t22.5 -52.5t-23 -53t-54 -22zM-50 -153l-12 32q128 52 149 109l-6 5q-29 2 -48 20.5t-19 45.5q0 31 22 53t52 22q33 0 55.5 -25t22.5 -63q0 -60 -52 -111.5t-164 -87.5z" />
    <glyph glyph-name="less" unicode="&#x3c;" horiz-adv-x="527" 
d="M413 87l-323 194l14 55l428 193l-19 -72l-347 -153l265 -153z" />
    <glyph glyph-name="equal" unicode="=" horiz-adv-x="537" 
d="M468 180h-425l17 63h425zM520 372h-425l16 64h425z" />
    <glyph glyph-name="greater" unicode="&#x3e;" horiz-adv-x="527" 
d="M155 529l324 -193l-15 -56l-427 -193l18 72l347 153l-264 154z" />
    <glyph glyph-name="question" unicode="?" horiz-adv-x="479" 
d="M235 203l-49 9l31 126q98 16 147.5 71.5t49.5 125.5q0 49 -29 78t-77 29q-67 0 -98 -43q19 -9 31.5 -29t12.5 -42q0 -29 -20.5 -51.5t-54.5 -22.5q-33 0 -54 22t-21 57q0 61 59.5 106t151.5 45q109 0 167.5 -47.5t58.5 -120.5q0 -86 -73.5 -145t-206.5 -71zM174 -16
q-32 0 -54.5 22t-22.5 53t23 52.5t54 21.5q32 0 54.5 -21.5t22.5 -52.5t-23 -53t-54 -22z" />
    <glyph glyph-name="at" unicode="@" horiz-adv-x="896" 
d="M443 -146q-172 0 -280 102.5t-108 269.5q0 195 133.5 327t335.5 132q146 0 243.5 -85t97.5 -220q0 -145 -79 -232.5t-183 -87.5q-52 0 -83 21.5t-31 59.5l-8 2q-59 -73 -129 -73q-51 0 -79.5 33t-28.5 93q0 105 71.5 193t168.5 88q64 0 85 -62h9l18 52l105 9l-60 -140
l-48 -136q-10 -32 -10 -47q0 -42 46 -42q66 0 124.5 74.5t58.5 188.5q0 115 -82 191t-213 76q-179 0 -294.5 -118.5t-115.5 -292.5q0 -147 92 -240t251 -93q129 0 256 87l22 -36q-135 -94 -285 -94zM405 133q40 0 86 59l60 166q-2 34 -16.5 54t-37.5 20q-43 0 -78.5 -43
t-52 -94.5t-16.5 -91.5q0 -70 55 -70z" />
    <glyph glyph-name="A" unicode="A" horiz-adv-x="686" 
d="M-47 0l10 37q52 12 78.5 37t71.5 100l295 494h99l79 -558q6 -38 20 -52t62 -21l-11 -37h-305l10 37q58 4 74.5 20t11.5 58l-14 123h-220l-46 -80q-37 -64 -30 -87t64 -34l-11 -37h-238zM429 281l-29 260h-12l-150 -260h191z" />
    <glyph glyph-name="B" unicode="B" horiz-adv-x="663" 
d="M301 366h50q76 0 126.5 43t50.5 115q0 49 -29 70.5t-96 21.5h-35zM214 42h79q87 0 132.5 48.5t45.5 124.5q0 109 -140 109h-41zM136 620l11 38h275q131 0 188.5 -39t57.5 -100q0 -134 -229 -171l-1 -5q180 -28 180 -147q0 -79 -81.5 -137.5t-232.5 -58.5h-332l11 39
q56 2 77.5 12t27.5 34l131 489q7 26 -8 35t-75 11z" />
    <glyph glyph-name="C" unicode="C" horiz-adv-x="675" 
d="M325 -16q-123 0 -194.5 75t-71.5 193q0 105 48 200.5t142 158.5t211 63q94 0 164 -49l44 49h43l-63 -244h-44q-20 106 -54 154t-90 48q-70 0 -131 -62.5t-94 -151t-33 -174.5q0 -98 46 -147t121 -49q119 0 227 150l37 -21q-128 -193 -308 -193z" />
    <glyph glyph-name="D" unicode="D" horiz-adv-x="735" 
d="M87 85l131 489q7 26 -8 35t-75 11l11 38h264q161 0 239 -74t78 -190q0 -71 -28 -146t-86 -133q-115 -115 -313 -115h-329l11 39q56 2 77.5 12t27.5 34zM215 42h85q101 0 172 71q59 59 87 152t28 176q0 82 -41.5 128.5t-127.5 46.5h-51z" />
    <glyph glyph-name="E" unicode="E" horiz-adv-x="670" 
d="M146 658h562l-53 -205h-44q-4 89 -31.5 125t-107.5 36h-106l-66 -245h50q52 0 77 16.5t54 75.5h40l-63 -249h-39q2 68 -14 90.5t-65 22.5h-51l-74 -279h117q64 0 109 21t73.5 56.5t61.5 100.5h48l-63 -224h-590l11 39q56 2 77.5 12t27.5 34l131 489q7 26 -8 35t-75 11z
" />
    <glyph glyph-name="F" unicode="F" horiz-adv-x="635" 
d="M305 0h-334l11 39q56 2 77.5 12t27.5 34l131 489q7 26 -8 35t-75 11l11 38h554l-51 -208h-44q-4 89 -34.5 126.5t-111.5 37.5h-93l-69 -256h55q51 0 74 15.5t52 73.5h40l-64 -242h-39q1 67 -14 87.5t-65 20.5h-51l-60 -226q-7 -27 10.5 -36.5t80.5 -11.5z" />
    <glyph glyph-name="G" unicode="G" horiz-adv-x="710" 
d="M711 674l-60 -231h-44q-25 102 -57.5 145.5t-87.5 43.5q-71 0 -132.5 -64t-94.5 -156t-33 -182q0 -97 41.5 -150t112.5 -53q58 0 102 34l42 161q7 28 -10.5 40t-75.5 14l11 39h297l-11 -39q-41 -2 -56.5 -11t-22.5 -35l-46 -178q-124 -68 -246 -68q-135 0 -208 76
t-73 194q0 104 48 199t142 158t211 63q92 0 165 -48l43 48h43z" />
    <glyph glyph-name="H" unicode="H" horiz-adv-x="794" 
d="M385 0l11 39q53 2 70 11t25 35l64 235h-266l-64 -235q-8 -28 5.5 -36t71.5 -10l-11 -39h-320l11 39q56 2 77.5 12t27.5 34l131 489q7 26 -8 35t-75 11l11 38h316l-11 -38q-53 -2 -70.5 -11t-24.5 -35l-57 -210h266l57 210q8 27 -5.5 35.5t-71.5 10.5l11 38h320l-11 -38
q-55 -2 -77 -12.5t-28 -33.5l-131 -489q-7 -27 8.5 -35.5t74.5 -10.5l-11 -39h-316z" />
    <glyph glyph-name="I" unicode="I" horiz-adv-x="410" 
d="M471 620q-55 -2 -77 -12.5t-28 -33.5l-131 -489q-7 -27 8.5 -35.5t74.5 -10.5l-11 -39h-326l11 39q56 2 77.5 12t27.5 34l131 489q7 26 -8 35t-75 11l11 38h326z" />
    <glyph glyph-name="J" unicode="J" horiz-adv-x="571" 
d="M185 -16q-88 0 -139 34.5t-50 97.5q0 40 28.5 71t66.5 31q35 0 56.5 -21t21.5 -53q0 -57 -53 -82q21 -31 64 -31q51 0 77 30t46 103l109 408q7 27 -9 36t-79 12l11 38h332l-11 -38q-55 -2 -77.5 -12.5t-28.5 -33.5l-104 -390q-27 -99 -90 -149.5t-171 -50.5z" />
    <glyph glyph-name="K" unicode="K" horiz-adv-x="741" 
d="M817 658l-10 -36q-56 -13 -98.5 -37t-113.5 -80l-137 -108l123 -277q17 -40 38 -56.5t72 -26.5l-10 -37h-312l10 36q51 5 63.5 23t-3.5 49l-86 205l-85 -67l-43 -161q-8 -28 4.5 -36t66.5 -10l-11 -39h-314l11 39q56 2 77.5 12t27.5 34l131 489q7 26 -8 35t-75 11l11 38
h316l-11 -38q-53 -2 -70.5 -11t-24.5 -35l-70 -261l262 214q51 42 50 64t-53 31l10 36h262z" />
    <glyph glyph-name="L" unicode="L" horiz-adv-x="621" 
d="M356 574l-141 -530h61q69 0 116 21.5t80.5 61t76.5 114.5h49l-69 -241h-557l11 39q55 2 76.5 12t27.5 34l131 489q7 26 -8 35t-75 11l11 38h326l-11 -38q-55 -2 -77 -12.5t-28 -33.5z" />
    <glyph glyph-name="M" unicode="M" horiz-adv-x="946" 
d="M146 620l11 38h256l50 -469h7l286 469h272l-11 -38q-55 -2 -77 -12.5t-28 -33.5l-131 -489q-7 -27 8.5 -35.5t74.5 -10.5l-11 -39h-309l11 39q47 2 63.5 11t24.5 35l133 487h-14l-352 -572h-59l-61 572h-8l-106 -401q-20 -71 -8 -98t73 -36l-10 -37h-252l10 37
q61 7 87 35.5t47 105.5l98 367q10 37 -4.5 55t-70.5 20z" />
    <glyph glyph-name="N" unicode="N" horiz-adv-x="775" 
d="M369 658l210 -492h6l86 322q20 70 5.5 98t-78.5 35l10 37h255l-10 -37q-60 -7 -84.5 -35t-44.5 -105l-132 -492h-85l-231 534h-6l-94 -352q-20 -70 -6 -98.5t78 -35.5l-11 -37h-258l10 37q61 7 87.5 36t46.5 105l97 362q10 38 -4.5 58t-69.5 22l11 38h212z" />
    <glyph glyph-name="O" unicode="O" horiz-adv-x="734" 
d="M327 -16q-121 0 -194.5 76t-73.5 192q0 78 28.5 153.5t78.5 135.5t126.5 96.5t165.5 36.5q121 0 195 -76t74 -191q0 -106 -47.5 -201.5t-141 -158.5t-211.5 -63zM325 27q73 0 135.5 72.5t95 171.5t32.5 190q0 81 -33.5 126t-94.5 45q-72 0 -134.5 -72.5t-95.5 -172
t-33 -189.5q0 -81 33.5 -126t94.5 -45z" />
    <glyph glyph-name="P" unicode="P" horiz-adv-x="633" 
d="M288 318h54q90 0 136 53t46 134q0 56 -30 83.5t-95 27.5h-32zM135 620l11 38h261q258 0 258 -165q0 -89 -82 -153t-229 -64h-77l-52 -189q-7 -27 10.5 -36.5t80.5 -11.5l-11 -39h-334l11 39q56 2 77.5 12t27.5 34l131 489q7 26 -8 35t-75 11z" />
    <glyph glyph-name="Q" unicode="Q" horiz-adv-x="734" 
d="M59 252q0 105 47.5 200.5t141 158.5t210.5 63q121 0 195 -76t74 -191q0 -76 -28.5 -150t-78 -133t-122 -97t-154.5 -42q29 -15 56 -43.5t43 -53.5t37 -44.5t41 -19.5q15 0 23 7.5t8 19.5q0 11 -14.5 30t-14.5 38q0 28 18 47t46 19t46 -20t18 -51q0 -60 -52 -95.5
t-127 -35.5q-40 0 -74 15.5t-55.5 38t-40.5 45t-39 38t-41 15.5q-30 0 -56.5 -19.5t-65.5 -62.5l-25 26q75 98 164 117q-83 25 -131.5 94.5t-48.5 161.5zM588 461q0 81 -33.5 126t-94.5 45q-72 0 -134.5 -72.5t-95.5 -172t-33 -189.5q0 -81 33.5 -126t94.5 -45
q73 0 135.5 72.5t95 171.5t32.5 190z" />
    <glyph glyph-name="R" unicode="R" horiz-adv-x="685" 
d="M296 351h63q85 0 131 48t46 118q0 99 -121 99h-48zM135 620l11 38h295q124 0 181 -40.5t57 -109.5q0 -65 -60 -114t-165 -61l-1 -4q83 -12 110 -45t25 -109l-2 -72q-1 -39 15 -52.5t68 -17.5l-10 -39q-2 0 -28.5 -0.5t-38.5 -0.5q-101 0 -128.5 26t-21.5 97l6 72
q6 69 -14 95.5t-90 26.5h-59l-60 -225q-7 -27 7.5 -35.5t73.5 -10.5l-11 -39h-324l11 39q56 2 77.5 12t27.5 34l131 489q7 26 -8 35t-75 11z" />
    <glyph glyph-name="S" unicode="S" horiz-adv-x="559" 
d="M-3 -19l56 223h42q40 -101 82.5 -139t99.5 -38q59 0 92 35.5t33 85.5q0 41 -27 71t-92 60q-83 38 -118 77.5t-35 102.5q0 86 69.5 150.5t179.5 64.5q79 0 144 -42l40 46h42l-51 -214h-41q-36 97 -68 132t-84 35q-51 0 -83 -33.5t-32 -81.5q0 -10 2 -19t4 -16t8.5 -15
t10 -13t14 -12.5t15 -10.5t18.5 -11t19 -10.5l22 -11t22 -11.5q67 -34 100 -73.5t33 -100.5q0 -94 -64.5 -161t-185.5 -67q-101 0 -179 46l-46 -49h-42z" />
    <glyph glyph-name="T" unicode="T" horiz-adv-x="673" 
d="M227 85l143 529h-42q-56 0 -93 -35.5t-103 -141.5h-45l65 221h597l-57 -221h-44q-9 100 -28 138.5t-74 38.5h-38l-143 -529q-7 -26 10.5 -35t79.5 -11l-11 -39h-339l11 39q58 2 81.5 12t29.5 34z" />
    <glyph glyph-name="U" unicode="U" horiz-adv-x="752" 
d="M341 574l-85 -319q-10 -43 -10 -73q0 -63 37 -100t107 -37q83 0 128.5 48.5t71.5 144.5l68 254q19 70 5.5 96t-77.5 33l11 37h251l-10 -37q-61 -7 -84.5 -33.5t-43.5 -103.5l-74 -274q-29 -110 -95 -168t-205 -58q-112 0 -170 54t-58 143q0 36 11 82l84 311q7 26 -8 35
t-75 11l11 38h316l-11 -38q-53 -2 -70.5 -11t-24.5 -35z" />
    <glyph glyph-name="V" unicode="V" horiz-adv-x="690" 
d="M797 621q-50 -11 -78.5 -36t-71.5 -95l-318 -501h-102l-52 565q-3 31 -20 44t-66 23l11 37h312l-11 -37q-58 -4 -75 -18.5t-15 -51.5l33 -430h12l232 375q40 66 32.5 90.5t-68.5 34.5l11 37h245z" />
    <glyph glyph-name="W" unicode="W" horiz-adv-x="1018" 
d="M308 559l35 -424h13l197 340l-6 81q-2 32 -16 45.5t-61 19.5l11 37h293l-10 -37q-57 -4 -72 -16t-13 -46l23 -420h12l192 342q40 72 32 101t-72 39l11 37h249l-11 -37q-50 -11 -79 -38.5t-68 -96.5l-280 -497h-104l-26 404l-232 -404h-101l-50 565q-2 31 -19.5 45
t-66.5 22l11 37h295l-11 -37q-39 -3 -55.5 -10t-19.5 -17t-1 -35z" />
    <glyph glyph-name="X" unicode="X" horiz-adv-x="692" 
d="M320 0l10 37q54 4 68.5 19t3.5 45l-66 176l-133 -138q-33 -34 -43 -54.5t1.5 -32t48.5 -15.5l-10 -37h-250l11 37q54 9 90 31.5t108 93.5l159 158l-102 233q-13 32 -33 46.5t-65 21.5l10 37h312l-10 -37q-55 -2 -70.5 -18t-4.5 -46l63 -165l127 128q50 49 49.5 72.5
t-55.5 28.5l10 37h246l-10 -37q-49 -7 -88 -33t-108 -92l-154 -148l106 -246q14 -33 33 -45.5t69 -19.5l-10 -37h-313z" />
    <glyph glyph-name="Y" unicode="Y" horiz-adv-x="667" 
d="M623 519l-200 -232l-55 -202q-7 -27 8.5 -35.5t75.5 -10.5l-11 -39h-326l11 39q55 2 76.5 12t27.5 34l57 212l-94 263q-9 25 -30 39t-63 22l11 37h311l-11 -36q-60 -4 -75 -18t-4 -47l73 -223l143 175q49 60 47.5 82.5t-60.5 29.5l10 37h247l-11 -37q-46 -8 -79 -28.5
t-79 -73.5z" />
    <glyph glyph-name="Z" unicode="Z" horiz-adv-x="645" 
d="M546 614h-149q-67 0 -110.5 -35t-118.5 -142l-48 2l68 219h526l-5 -39l-555 -575h166q72 0 118.5 39t121.5 153l48 -1l-73 -235h-549l4 40z" />
    <glyph glyph-name="bracketleft" unicode="[" horiz-adv-x="351" 
d="M-19 -156l236 877h288l-10 -39h-172l-214 -799h172l-11 -39h-289z" />
    <glyph glyph-name="backslash" unicode="\" horiz-adv-x="431" 
d="M283 -203l-71 453l-74 454h64l70 -454l75 -453h-64z" />
    <glyph glyph-name="bracketright" unicode="]" horiz-adv-x="351" 
d="M-127 -156l11 39h173l214 799h-172l10 39h288l-235 -877h-289z" />
    <glyph glyph-name="asciicircum" unicode="^" horiz-adv-x="374" 
d="M89 486l198 231h54l75 -231h-55l-73 129l-135 -129h-64z" />
    <glyph glyph-name="underscore" unicode="_" horiz-adv-x="450" 
d="M-62 0l13 51h455l-14 -51h-454z" />
    <glyph glyph-name="grave" unicode="`" horiz-adv-x="253" 
d="M285 530l-91 90q-54 52 -54 80q0 21 16 36t36 15q22 0 36.5 -18t41.5 -71l66 -132h-51z" />
    <glyph glyph-name="a" unicode="a" horiz-adv-x="554" 
d="M485 307l-52 -179q-11 -38 -11 -53q0 -20 16.5 -26t63.5 -6v-35q-45 -16 -99 -16q-44 0 -64.5 14.5t-21.5 50.5q0 12 1 18l-5 2q-40 -47 -71.5 -66t-73.5 -19q-60 0 -98.5 42t-38.5 119q0 123 86 220t183 97q73 0 106 -58l18 47l119 10zM320 424q-46 0 -86 -49t-60 -110
t-20 -109q0 -96 72 -96q45 0 92 71l69 231q-7 30 -25 46t-42 16z" />
    <glyph glyph-name="b" unicode="b" horiz-adv-x="535" 
d="M227 33q67 0 111.5 85t44.5 189q0 94 -70 94q-43 0 -90 -41l-71 -287q22 -40 75 -40zM506 315q0 -73 -38.5 -147t-110 -125t-155.5 -51q-104 0 -182 61l62 202l88 348q6 22 -14.5 33t-68.5 14v36l233 11l-85 -289l4 -4q76 66 142 66q58 0 91.5 -43t33.5 -112z" />
    <glyph glyph-name="c" unicode="c" horiz-adv-x="460" 
d="M301 470q66 0 107.5 -30t41.5 -79q0 -33 -18 -54.5t-48 -21.5q-27 0 -43.5 15.5t-16.5 43.5q0 18 10.5 36t28.5 27q-16 22 -52 22q-65 0 -112 -78t-47 -176q0 -59 27 -93t77 -34q73 0 135 81l27 -25q-81 -112 -198 -112q-83 0 -136 50.5t-53 134.5q0 112 79.5 202.5
t190.5 90.5z" />
    <glyph glyph-name="d" unicode="d" horiz-adv-x="549" 
d="M591 697l-157 -563q-11 -40 -11 -56q0 -22 18 -29.5t65 -6.5v-35q-42 -15 -103 -15q-46 0 -66 17t-20 57v6l-7 2q-39 -44 -69.5 -63t-70.5 -19q-61 0 -100 44.5t-39 121.5q0 119 84 215.5t180 96.5q40 0 63 -13t43 -37l45 182q5 23 -16 35t-68 15v36zM316 422
q-45 0 -83.5 -46.5t-58.5 -107t-20 -112.5q0 -96 72 -96q45 0 90 64l73 243q-25 55 -73 55z" />
    <glyph glyph-name="e" unicode="e" horiz-adv-x="465" 
d="M458 361q0 -66 -78 -109t-228 -44q-1 -11 -1 -35q0 -60 25.5 -92.5t75.5 -32.5q80 0 139 81l27 -25q-84 -112 -203 -112q-79 0 -132 47t-53 131q0 115 81.5 207.5t200.5 92.5q71 0 108.5 -30.5t37.5 -78.5zM304 427q-47 0 -89 -54t-57 -131q197 10 197 131q0 54 -51 54z
" />
    <glyph glyph-name="f" unicode="f" horiz-adv-x="345" 
d="M390 412h-119l-67 -308q-38 -170 -91.5 -239t-149.5 -69q-59 0 -89.5 23.5t-30.5 63.5q0 28 20 48.5t47 20.5t43 -17t16 -42q0 -33 -26 -54q13 -5 25 -5q30 0 54 35t44 127l92 416h-112l12 48h109l3 16q27 127 83.5 177t143.5 50q62 0 97.5 -26.5t35.5 -67.5
q0 -32 -17.5 -51t-44.5 -19q-30 0 -46.5 16t-16.5 42q0 30 23 53q-10 15 -34 15q-69 0 -98 -129l-16 -76h122z" />
    <glyph glyph-name="g" unicode="g" horiz-adv-x="535" 
d="M178 8q-66 0 -106 42t-40 116q0 111 80.5 207.5t187.5 96.5q69 0 103 -65l19 54l120 10l-58 -162l-88 -314q-29 -104 -87 -150.5t-172 -46.5q-81 0 -124.5 30t-43.5 71q0 32 21.5 54t51.5 22q28 0 44 -16.5t16 -40.5q0 -33 -29 -52q13 -29 67 -29q58 0 94 45t62 151l7 28
l-7 2q-53 -53 -118 -53zM316 422q-49 0 -87.5 -48.5t-56 -105.5t-17.5 -102q0 -101 72 -101q45 0 87 49l71 241q-20 67 -69 67z" />
    <glyph glyph-name="h" unicode="h" horiz-adv-x="560" 
d="M505 312l-62 -190q-11 -33 -11 -48q0 -19 18 -26t65 -6v-35q-43 -15 -107 -15q-92 0 -92 68q0 23 10 50l59 182q9 27 9 50q0 50 -54 50q-49 0 -115 -49l-84 -343h-131l55 162l112 441q5 22 -15 33t-68 14v36l233 11l-90 -306l4 -4q96 80 174 80q47 0 74 -25.5t27 -70.5
q0 -24 -11 -59z" />
    <glyph glyph-name="i" unicode="i" horiz-adv-x="320" 
d="M195 623q0 39 25.5 67.5t62.5 28.5q25 0 40.5 -15t15.5 -44q0 -39 -25 -68.5t-61 -29.5q-25 0 -41.5 16t-16.5 45zM261 43v-35q-48 -16 -106 -16q-104 0 -104 78q0 22 9 47l80 253q8 22 -7.5 33t-64.5 14v36l219 11l-109 -342q-9 -28 -9 -44q0 -21 20.5 -29t71.5 -6z" />
    <glyph glyph-name="j" unicode="j" horiz-adv-x="316" 
d="M199 623q0 39 25.5 67.5t62.5 28.5q25 0 41 -15t16 -44q0 -40 -25.5 -69t-61.5 -29q-25 0 -41.5 16t-16.5 45zM-40 -204q-60 0 -95.5 24t-35.5 63q0 28 19.5 48.5t46.5 20.5t43.5 -17.5t16.5 -42.5q0 -31 -24 -52q11 -6 23 -6q30 0 53.5 35.5t51.5 149.5l88 349
q5 24 -10.5 35t-63.5 14v37l217 10l-104 -405q-35 -140 -84.5 -201.5t-141.5 -61.5z" />
    <glyph glyph-name="k" unicode="k" horiz-adv-x="538" 
d="M327 697l-120 -425h41q24 0 46 31t39 68t50 68t76 31q34 0 54.5 -20.5t20.5 -49.5q0 -34 -20 -56.5t-49 -22.5q-56 0 -56 52q0 24 12 41q-24 -5 -40.5 -30t-35 -60.5t-39.5 -55.5v-6q63 -4 90.5 -29.5t27.5 -72.5q0 -13 -3 -40.5t-3 -44.5q0 -18 15 -26t65 -7v-34
q-42 -15 -107 -15q-55 0 -75 16.5t-20 53.5q0 20 4 56t4 46q0 40 -18 58t-61 18h-25l-59 -241h-131l55 162l112 441q6 22 -14.5 33t-68.5 14v36z" />
    <glyph glyph-name="l" unicode="l" horiz-adv-x="304" 
d="M332 697l-165 -579q-8 -27 -8 -40q0 -21 20 -27.5t74 -4.5v-35q-57 -19 -107 -19q-104 0 -104 80q0 21 8 50l101 336l38 145q6 22 -14 33t-68 14v36z" />
    <glyph glyph-name="m" unicode="m" horiz-adv-x="824" 
d="M262 464l-24 -73l4 -4q96 80 166 80q44 0 69.5 -22.5t28.5 -62.5q99 85 175 85q46 0 72.5 -25t26.5 -70q0 -30 -11 -60l-62 -190q-11 -33 -11 -49q0 -19 17.5 -25.5t65.5 -6.5v-34q-43 -15 -107 -15q-92 0 -92 67q0 22 10 51l59 182q11 33 11 53q0 46 -49 46
q-43 0 -105 -44q-4 -24 -8 -35l-86 -312h-124l92 295q10 33 10 52q0 45 -51 45q-44 0 -113 -49l-83 -343h-131l55 162l57 208q6 24 -5 34.5t-55 13.5v36z" />
    <glyph glyph-name="n" unicode="n" horiz-adv-x="560" 
d="M67 162l57 208q6 24 -5 34.5t-55 13.5v36l198 10l-24 -73l4 -4q96 80 175 80q46 0 72.5 -25t26.5 -69q0 -26 -11 -61l-62 -190q-11 -33 -11 -48q0 -19 18 -26t65 -6v-35q-43 -15 -107 -15q-92 0 -92 68q0 23 10 50l59 182q10 30 10 51q0 49 -54 49q-49 0 -115 -49
l-83 -343h-131z" />
    <glyph glyph-name="o" unicode="o" horiz-adv-x="514" 
d="M305 470q81 0 130.5 -51.5t49.5 -130.5q0 -75 -31 -141t-95.5 -110.5t-149.5 -44.5q-81 0 -130 51.5t-49 130.5q0 117 75 206.5t200 89.5zM214 31q45 0 82 53.5t54.5 122t17.5 129.5q0 95 -67 95q-44 0 -81 -53.5t-55 -122.5t-18 -129q0 -95 67 -95z" />
    <glyph glyph-name="p" unicode="p" horiz-adv-x="545" 
d="M241 36q65 0 109 81.5t44 186.5q0 97 -70 97q-43 0 -90 -41l-68 -275q8 -24 29 -36.5t46 -12.5zM147 13l-36 -142q-4 -14 15.5 -19t71.5 -7v-36h-295v36q73 3 82 28l37 110l102 387q6 24 -5 34.5t-55 13.5v36l200 10l-18 -56l4 -4q76 66 142 66q58 0 91.5 -44t33.5 -114
q0 -75 -34.5 -147t-101 -121t-147.5 -49q-48 0 -87 18z" />
    <glyph glyph-name="q" unicode="q" horiz-adv-x="544" 
d="M318 422q-38 0 -71 -30t-52.5 -73.5t-30 -86.5t-10.5 -75q0 -47 18 -72t51 -25q45 0 94 66l71 236q-15 60 -70 60zM248 -127l63 200l-7 2q-38 -43 -68.5 -63t-70.5 -20q-63 0 -98.5 44.5t-35.5 120.5q0 111 81 212t191 101q71 0 105 -58l16 47l120 10l-73 -210l-100 -388
q-4 -14 12.5 -19t62.5 -7v-36h-289v36q82 3 91 28z" />
    <glyph glyph-name="r" unicode="r" horiz-adv-x="449" 
d="M388 467q34 0 55 -22t21 -52q0 -40 -20.5 -64.5t-53.5 -24.5q-28 0 -44.5 14.5t-16.5 41.5q0 22 9 38q-68 -17 -118 -83l-77 -315h-131l55 162l57 208q6 24 -5 34.5t-55 13.5v36l198 10l-25 -85l4 -4q77 92 147 92z" />
    <glyph glyph-name="s" unicode="s" horiz-adv-x="431" 
d="M183 -8q-73 0 -122.5 27t-49.5 72q0 27 17 45t44 18q24 0 40 -14t16 -39q0 -26 -20 -46q22 -24 77 -24q42 0 66.5 20.5t24.5 51.5q0 27 -18 44t-70 41q-57 26 -84 54.5t-27 71.5q0 64 52 110t134 46q66 0 110 -28t44 -71q0 -26 -15.5 -42.5t-42.5 -16.5q-23 0 -39.5 14
t-16.5 35q0 29 20 48q-18 22 -63 22q-38 0 -60 -19.5t-22 -48.5q0 -25 18.5 -43.5t71.5 -43.5q58 -27 83 -55.5t25 -71.5q0 -64 -51 -110.5t-142 -46.5z" />
    <glyph glyph-name="t" unicode="t" horiz-adv-x="363" 
d="M381 413h-117l-81 -271q-7 -25 -7 -45q0 -43 58 -43q35 0 80 12l-3 -37q-81 -37 -148 -37q-110 0 -110 86q0 22 9 52l85 283h-89l15 48h89l42 145l125 13l-51 -158h118z" />
    <glyph glyph-name="u" unicode="u" horiz-adv-x="578" 
d="M55 147l72 223q8 23 -3.5 34t-55.5 14v36l201 10l-94 -297q-10 -35 -10 -52q0 -48 55 -48q51 0 114 56l54 181l34 158h128l-103 -340q-11 -39 -11 -48q0 -19 17.5 -25.5t64.5 -6.5v-34q-40 -15 -101 -15q-90 0 -90 66q0 7 2 21l-4 4q-85 -92 -176 -92q-50 0 -77.5 26.5
t-27.5 69.5q0 22 11 59z" />
    <glyph glyph-name="v" unicode="v" horiz-adv-x="488" 
d="M240 -11l-103 7l-7 186l-25 176q-4 30 -18 40t-62 13v36l189 18l26 -265l4 -109h17l51 77q67 101 84 162q-44 26 -44 70q0 30 19.5 50t49.5 20q32 0 49 -20t17 -52q0 -30 -19 -65t-69 -109z" />
    <glyph glyph-name="w" unicode="w" horiz-adv-x="754" 
d="M505 -11l-99 7l-8 184l-8 69l-153 -260l-100 7l-9 184l-23 178q-4 30 -18 40t-62 13v36l189 18l23 -267l5 -105h16l52 93q43 75 70 150l-14 118l121 11l20 -267l5 -105h15l51 75q63 94 84 162q-44 25 -44 70q0 30 19 50t49 20q32 0 49.5 -20t17.5 -52q0 -21 -12.5 -49
t-25.5 -49t-50 -76z" />
    <glyph glyph-name="x" unicode="x" horiz-adv-x="510" 
d="M240 465l47 -185h11l39 79q55 112 127 112q31 0 50 -20t19 -49t-17 -48.5t-45 -19.5q-23 0 -39 15.5t-17 42.5q-33 -21 -72 -102l-25 -53l52 -142q15 -35 30.5 -46t60.5 -11v-36l-176 -6l-50 184h-11l-32 -59q-39 -76 -73 -107t-69 -31q-32 0 -52 19.5t-20 48.5
q0 27 18.5 45.5t45.5 18.5q24 0 39 -15t17 -36q32 24 76 101l30 53l-49 144q-12 32 -29.5 42t-63.5 10v36z" />
    <glyph glyph-name="y" unicode="y" horiz-adv-x="489" 
d="M215 465l30 -212l22 -171h16l41 70q64 109 79 176q-49 27 -49 72q0 30 18.5 50t48.5 20q32 0 49.5 -22.5t17.5 -57.5q0 -65 -127 -263q-115 -180 -192 -255.5t-152 -75.5q-42 0 -67 22.5t-25 58.5q0 29 19.5 49.5t46.5 20.5q29 0 46 -18t17 -46q0 -19 -11 -36
q38 12 76 44.5t64 76.5l-39 212l-34 176q-6 30 -22 41t-64 14v36z" />
    <glyph glyph-name="z" unicode="z" horiz-adv-x="470" 
d="M3 -15l-25 33l379 352l-4 10l-113 -1q-61 -2 -85.5 -17t-52.5 -69l-39 2l43 167h368l13 -31l-370 -341l6 -10q34 12 69 12q18 0 56 -3.5t51 -3.5q40 0 59 19.5t32 66.5l36 -4q-14 -103 -42 -140.5t-95 -37.5q-30 0 -95.5 10.5t-90.5 10.5q-39 0 -100 -25z" />
    <glyph glyph-name="braceleft" unicode="{" horiz-adv-x="406" 
d="M300 -156q-225 9 -225 144q0 46 33.5 128t33.5 103q0 34 -27 51.5t-97 24.5l13 48q60 3 91 11.5t51 29.5q23 23 29 71t19 103t52 94q36 37 96 52.5t158 16.5l-10 -36q-53 -4 -79.5 -12.5t-47.5 -29.5q-27 -27 -38 -76.5t-23.5 -100.5t-40.5 -79q-55 -55 -164 -67l-4 -12
q72 -15 103 -41.5t31 -73.5q0 -31 -27 -110t-27 -115q0 -39 26 -61t84 -27z" />
    <glyph glyph-name="bar" unicode="|" horiz-adv-x="290" 
d="M115 704h60v-907h-60v907z" />
    <glyph glyph-name="braceright" unicode="}" horiz-adv-x="406" 
d="M-93 -156l9 37q53 3 80 12t48 30q27 27 38 76.5t23.5 100.5t40.5 79q55 55 164 67l4 12q-72 15 -103 41.5t-31 73.5q0 31 27 109.5t27 114.5q0 39 -26 61t-84 27l10 36q225 -9 225 -144q0 -46 -33.5 -127.5t-33.5 -102.5q0 -34 27 -51.5t97 -24.5l-13 -48
q-60 -3 -91 -11.5t-51 -29.5q-23 -23 -29 -71t-19 -103t-52 -95q-36 -36 -96 -51.5t-158 -17.5z" />
    <glyph glyph-name="asciitilde" unicode="~" horiz-adv-x="372" 
d="M53 253q27 131 104 131q23 0 65.5 -23.5t57.5 -23.5q27 0 47 51h45q-27 -132 -105 -132q-22 0 -65 23.5t-58 23.5q-26 0 -46 -50h-45z" />
    <glyph glyph-name="uni00A0" unicode="&#xa0;" horiz-adv-x="184" 
 />
    <glyph glyph-name="exclamdown" unicode="&#xa1;" horiz-adv-x="267" 
d="M234 535q-32 0 -54.5 21.5t-22.5 52.5t23 53t54 22q32 0 54.5 -22t22.5 -53t-23 -52.5t-54 -21.5zM179 472l37 -9q-11 -74 -26 -217.5t-26 -185.5q-22 -76 -82 -76q-31 0 -49.5 20.5t-18.5 52.5q0 30 22.5 86.5t68.5 156.5t74 172z" />
    <glyph glyph-name="cent" unicode="&#xa2;" horiz-adv-x="500" 
d="M214 -95l-50 3l23 86q-66 12 -106.5 60t-40.5 120q0 112 79.5 200t194.5 92l20 76l50 -3l-20 -75q58 -10 94 -44t36 -79q0 -31 -18.5 -53.5t-47.5 -22.5q-27 0 -43.5 15t-16.5 43q0 19 11.5 38t30.5 28q-16 30 -58 36l-102 -379q5 -1 16 -1q78 0 140 81l27 -25
q-77 -109 -197 -112zM161 172q0 -81 49 -112l97 362q-64 -16 -105 -88t-41 -162z" />
    <glyph glyph-name="sterling" unicode="&#xa3;" horiz-adv-x="608" 
d="M489 293h-166q-5 -112 -117 -175q21 -3 66.5 -11t79 -12t64.5 -4q42 0 62 17.5t41 68.5l45 -6q-22 -101 -67 -143.5t-116 -42.5q-44 0 -79 13t-78.5 42t-52.5 34q-17 -39 -45 -64.5t-58 -25.5t-47.5 16t-17.5 38q0 37 31.5 62t90.5 25q14 0 42 -2q35 51 35 117
q0 15 -6 53h-113l12 46h93q-9 49 -9 83q0 92 72.5 152.5t178.5 60.5q85 0 130.5 -38t45.5 -86q0 -37 -22 -60.5t-54 -23.5q-31 0 -50.5 17t-19.5 46q0 49 47 70q-20 34 -75 34t-87 -40t-32 -117q0 -15 8 -98h180z" />
    <glyph glyph-name="yen" unicode="&#xa5;" horiz-adv-x="661" 
d="M562 151h-184l-18 -66q-6 -26 9 -35t75 -11l-11 -39h-323l10 39q61 2 81 11t27 35l17 66h-183l12 44h183l19 70l-5 16h-174l12 43h149l-59 200q-8 27 -25 39.5t-57 19.5l10 37h290l-10 -39q-55 -2 -68.5 -15.5t-4.5 -43.5l62 -208l125 161q19 25 28.5 38.5t15.5 27
t1.5 21t-16.5 13t-35 9.5l10 36h217l-9 -36q-42 -7 -71 -27.5t-71 -71.5l-133 -161h150l-11 -43h-174l-15 -18l-18 -68h183z" />
    <glyph glyph-name="brokenbar" unicode="&#xa6;" horiz-adv-x="290" 
d="M175 316h-60v388h60v-388zM115 184h60v-387h-60v387z" />
    <glyph glyph-name="section" unicode="&#xa7;" horiz-adv-x="552" 
d="M211 -138q-87 0 -147 33.5t-60 83.5q0 30 18 50.5t49 20.5q24 0 39.5 -15.5t15.5 -39.5q0 -31 -31 -55q9 -14 43 -25.5t74 -11.5q53 0 83 24t30 59t-27.5 57t-89.5 48q-65 28 -100 58t-35 80q0 54 37.5 91.5t109.5 52.5q-60 41 -60 100q0 68 56 115t152 47
q79 0 131.5 -32.5t52.5 -78.5q0 -31 -16.5 -50t-44.5 -19q-27 0 -43 15.5t-16 39.5q0 34 29 51q-10 13 -36.5 23t-58.5 10q-51 0 -80.5 -22t-29.5 -56q0 -21 16 -38t35 -27.5t59 -27.5q70 -30 104.5 -61t34.5 -83q0 -50 -33.5 -91.5t-103.5 -59.5h1q51 -41 51 -95
q0 -70 -56.5 -120.5t-152.5 -50.5zM408 232q0 34 -29 57.5t-88 47.5q-18 7 -37 16q-40 -9 -61.5 -31t-21.5 -50q0 -30 26.5 -50.5t84.5 -46.5q36 -15 56 -27q35 11 52.5 35t17.5 49z" />
    <glyph glyph-name="dieresis" unicode="&#xa8;" horiz-adv-x="381" 
d="M377 538q-23 0 -39 15.5t-16 41.5q0 36 24 62t58 26q23 0 38.5 -15t15.5 -41q0 -37 -23.5 -63t-57.5 -26zM179 538q-23 0 -39 15.5t-16 41.5q0 36 24 62t58 26q23 0 38.5 -15t15.5 -41q0 -37 -23.5 -63t-57.5 -26z" />
    <glyph glyph-name="copyright" unicode="&#xa9;" horiz-adv-x="791" 
d="M391 143q-68 0 -109 42t-41 109q0 91 59.5 160.5t152.5 69.5q59 0 93 -30l24 30h32l-33 -135h-29q-14 56 -32.5 78.5t-51.5 22.5q-54 0 -90.5 -61t-36.5 -136q0 -51 23.5 -79t62.5 -28q64 0 120 79l27 -16q-68 -106 -171 -106zM380 -32q-142 0 -228.5 86t-86.5 223
q0 111 48.5 205t139.5 151t205 57q142 0 229 -86t87 -222q0 -111 -49 -205.5t-140 -151.5t-205 -57zM388 6q148 0 243.5 112t95.5 265q0 120 -77 195t-199 75q-149 0 -244.5 -112t-95.5 -266q0 -120 77 -194.5t200 -74.5z" />
    <glyph glyph-name="ordfeminine" unicode="&#xaa;" horiz-adv-x="443" 
d="M199 312q-42 0 -71 31.5t-29 85.5q0 87 62.5 155t132.5 68q48 0 74 -44l14 38l89 7l-41 -115l-38 -131q-11 -33 -2 -44.5t51 -10.5v-29q-33 -11 -75 -11q-35 0 -47.5 12t-8.5 46l-8 2q-46 -60 -103 -60zM240 365q35 0 67 47l47 158q-15 45 -47 45q-47 0 -82 -64t-35 -119
q0 -67 50 -67z" />
    <glyph glyph-name="guillemotleft" unicode="&#xab;" horiz-adv-x="519" 
d="M386 31l-120 160q-16 23 -16 40q0 21 40 48l200 140l24 -29l-156 -163l62 -176zM173 31l-120 160q-17 22 -17 40q0 20 40 48l200 140l24 -29l-156 -163l63 -176z" />
    <glyph glyph-name="registered" unicode="&#xae;" horiz-adv-x="511" 
d="M288 249q-88 0 -144 55.5t-56 142.5q0 101 71.5 172t174.5 71q89 0 144.5 -54.5t55.5 -139.5q0 -102 -72.5 -174.5t-173.5 -72.5zM291 276q95 0 153 65t58 157q0 74 -46.5 119.5t-124.5 45.5q-94 0 -152.5 -64t-58.5 -154q0 -75 47 -122t124 -47zM295 488h22
q26 0 41 14.5t15 34.5q0 16 -9 23t-30 7h-19zM289 464l-16 -62q-3 -10 2 -13t25 -4l-5 -22h-117l6 22q34 1 37 17l39 151q2 9 -3.5 12.5t-25.5 3.5l6 22h108q81 0 81 -51q0 -22 -20 -39.5t-53 -21.5l-1 -6q26 -3 34.5 -12.5t8.5 -30.5l-1 -24q-1 -12 5 -17t22 -6l-6 -22h-26
q-34 0 -43 9t-6 34l2 23q3 22 -4.5 29.5t-34.5 7.5h-14z" />
    <glyph glyph-name="macron" unicode="&#xaf;" horiz-adv-x="331" 
d="M124 554l18 67h261l-18 -67h-261z" />
    <glyph glyph-name="degree" unicode="&#xb0;" horiz-adv-x="417" 
d="M434 545q0 -77 -54 -138t-140 -61q-62 0 -99.5 36.5t-37.5 96.5q0 77 54.5 138t140.5 61q62 0 99 -37t37 -96zM191 450q0 -66 51 -66q33 0 58 34t36 76t11 80q0 66 -51 66q-33 0 -58 -34t-36 -76t-11 -80z" />
    <glyph glyph-name="plusminus" unicode="&#xb1;" horiz-adv-x="495" 
d="M378 601l-44 -161h161l-16 -60h-161l-43 -163h-63l43 163h-160l16 60h160l44 161h63zM401 89h-383l15 58h384z" />
    <glyph glyph-name="two.sup" unicode="&#xb2;" horiz-adv-x="405" 
d="M39 242l17 65l132 92q90 63 124.5 109.5t35.5 94.5q0 33 -16.5 53t-49.5 20q-43 0 -74 -31q38 -15 38 -55q0 -22 -15 -39t-41 -17q-25 0 -41.5 16.5t-16.5 42.5q0 51 53.5 86.5t122.5 35.5q73 0 110.5 -30.5t37.5 -80.5q0 -53 -44.5 -98.5t-138.5 -102.5l-123 -72l-1 -8
h132q36 0 55 14t46 58l25 -1l-45 -152h-323z" />
    <glyph glyph-name="three.sup" unicode="&#xb3;" horiz-adv-x="405" 
d="M223 229q-71 0 -116.5 28t-45.5 73q0 27 17 45t44 18q23 0 38 -14.5t15 -37.5q0 -39 -37 -52q23 -23 69 -23q38 0 66 26q31 31 31 81q0 36 -21 56t-75 28l10 40q71 3 109 39q29 27 29 71q0 71 -71 71q-40 0 -64 -19q34 -15 34 -49q0 -21 -14 -37t-40 -16t-41.5 15.5
t-15.5 38.5q0 44 47.5 74t116.5 30q75 0 112 -30t37 -75q0 -112 -180 -133l-2 -6q68 -8 100.5 -37.5t32.5 -69.5q0 -57 -50.5 -96t-134.5 -39z" />
    <glyph glyph-name="acute" unicode="&#xb4;" horiz-adv-x="253" 
d="M107 530l87 125q40 59 59 77.5t43 18.5q19 0 32 -13t13 -31q0 -24 -17 -43.5t-73 -63.5l-89 -70h-55z" />
    <glyph glyph-name="paragraph" unicode="&#xb6;" horiz-adv-x="656" 
d="M242 -104l72 270q-106 11 -164.5 59.5t-58.5 128.5q0 109 91.5 187.5t248.5 78.5h301l-10 -35q-64 -5 -84 -18.5t-30 -52.5l-166 -618h-58l183 681h-84l-183 -681h-58z" />
    <glyph glyph-name="periodcentered" unicode="&#xb7;" horiz-adv-x="263" 
d="M157 245q-32 0 -54.5 21.5t-22.5 52.5t23 53t54 22q32 0 54.5 -22t22.5 -53t-23 -52.5t-54 -21.5z" />
    <glyph glyph-name="cedilla" unicode="&#xb8;" horiz-adv-x="302" 
d="M32 -247q-49 0 -97 17l15 34q38 -10 79 -10q31 0 49 14t18 35q0 40 -67 40q-6 0 -19.5 -2t-16.5 -2l-12 32l128 100h50l-96 -77l1 -3q104 -6 104 -76q0 -43 -39.5 -72.5t-96.5 -29.5z" />
    <glyph glyph-name="one.sup" unicode="&#xb9;" horiz-adv-x="405" 
d="M172 659l9 35l211 15l-107 -399q-2 -8 1 -13.5t15 -9.5t33 -6t55 -2l-10 -37h-319l10 37q62 1 86 7.5t28 23.5l80 295q8 32 -8 43t-84 11z" />
    <glyph glyph-name="ordmasculine" unicode="&#xba;" horiz-adv-x="426" 
d="M241 312q-57 0 -94.5 37t-37.5 93q0 82 55.5 146t144.5 64q58 0 95 -37t37 -93q0 -82 -55.5 -146t-144.5 -64zM245 344q46 0 77 70.5t31 140.5q0 64 -47 64q-32 0 -57.5 -36.5t-38 -83.5t-12.5 -90q0 -65 47 -65z" />
    <glyph glyph-name="guillemotright" unicode="&#xbb;" horiz-adv-x="519" 
d="M241 31l-24 30l156 163l-63 175l34 20l120 -160q17 -21 17 -40q0 -18 -40 -48zM27 31l-24 30l156 163l-62 175l34 20l120 -160q16 -21 16 -40q0 -20 -40 -48z" />
    <glyph glyph-name="onequarter" unicode="&#xbc;" horiz-adv-x="1080" 
d="M959 67h-72l-18 -68q-4 -16 7.5 -22.5t41.5 -7.5l-10 -36h-216l10 36q69 1 77 30l18 68h-202l14 55l264 286l106 -2l-77 -284h72zM109 587l9 35l211 15l-107 -399q-2 -8 1 -13.5t15 -9.5t33 -6t55 -2l-10 -37h-319l10 37q62 1 86 7.5t28 23.5l80 295q8 32 -8 43t-84 11z
M168 -82l350 376l323 349h70l-326 -349l-347 -376h-70zM856 335l-196 -213h152l57 212z" />
    <glyph glyph-name="onehalf" unicode="&#xbd;" horiz-adv-x="1080" 
d="M626 -67l16 64l133 93q90 63 124.5 109.5t35.5 94.5q0 33 -16.5 53t-49.5 20q-43 0 -74 -31q38 -15 38 -55q0 -22 -15 -39t-41 -17q-25 0 -41.5 16.5t-16.5 42.5q0 51 53.5 86.5t122.5 35.5q73 0 110.5 -30.5t37.5 -80.5q0 -53 -44.5 -98.5t-138.5 -102.5l-123 -72l-1 -8
h132q36 0 55 14t46 58l25 -1l-45 -152h-323zM109 587l9 35l211 15l-107 -399q-2 -8 1 -13.5t15 -9.5t33 -6t55 -2l-10 -37h-319l10 37q62 1 86 7.5t28 23.5l80 295q8 32 -8 43t-84 11zM168 -82l350 376l323 349h70l-326 -349l-347 -376h-70z" />
    <glyph glyph-name="threequarters" unicode="&#xbe;" horiz-adv-x="1080" 
d="M961 67h-72l-18 -68q-4 -16 7.5 -22.5t41.5 -7.5l-10 -36h-216l10 36q69 1 77 30l18 68h-202l14 55l264 286l106 -2l-77 -284h72zM203 157q-71 0 -116.5 28t-45.5 73q0 27 17 45t44 18q23 0 38 -14.5t15 -37.5q0 -39 -37 -52q23 -23 69 -23q38 0 66 26q31 31 31 81
q0 36 -21 56t-75 28l10 40q71 3 109 39q29 27 29 71q0 71 -71 71q-40 0 -64 -19q34 -15 34 -49q0 -21 -14 -37t-40 -16t-41.5 15.5t-15.5 38.5q0 44 47.5 74t116.5 30q75 0 112 -30t37 -75q0 -112 -180 -133l-2 -6q68 -8 100.5 -37.5t32.5 -69.5q0 -57 -50.5 -96t-134.5 -39
zM170 -82l350 376l323 349h70l-326 -349l-347 -376h-70zM858 335l-196 -213h152l57 212z" />
    <glyph glyph-name="questiondown" unicode="&#xbf;" horiz-adv-x="479" 
d="M298 465l49 -8l-30 -126q-98 -18 -147.5 -73t-49.5 -126q0 -48 28.5 -77t76.5 -29q66 0 98 44q-19 8 -31.5 28t-12.5 42q0 30 20.5 52.5t54.5 22.5q33 0 54 -22.5t21 -56.5q0 -61 -59 -106.5t-149 -45.5q-110 0 -169.5 47t-59.5 119q0 88 73 145t208 73zM357 684
q32 0 55 -21.5t23 -52.5t-23 -53t-55 -22t-54.5 22t-22.5 53t23 52.5t54 21.5z" />
    <glyph glyph-name="Agrave" unicode="&#xc0;" horiz-adv-x="686" 
d="M-47 0l10 37q52 12 78.5 37t71.5 100l295 494h99l79 -558q6 -38 20 -52t62 -21l-11 -37h-305l10 37q58 4 74.5 20t11.5 58l-14 123h-220l-46 -80q-37 -64 -30 -87t64 -34l-11 -37h-238zM429 281l-29 260h-12l-150 -260h191zM455 739l-91 90q-54 52 -54 80q0 21 16 36
t36 15q22 0 36.5 -18t41.5 -71l66 -132h-51z" />
    <glyph glyph-name="Aacute" unicode="&#xc1;" horiz-adv-x="686" 
d="M-47 0l10 37q52 12 78.5 37t71.5 100l295 494h99l79 -558q6 -38 20 -52t62 -21l-11 -37h-305l10 37q58 4 74.5 20t11.5 58l-14 123h-220l-46 -80q-37 -64 -30 -87t64 -34l-11 -37h-238zM429 281l-29 260h-12l-150 -260h191zM407 739l87 125q40 59 59 77.5t43 18.5
q19 0 32 -13t13 -31q0 -24 -17 -43.5t-73 -63.5l-89 -70h-55z" />
    <glyph glyph-name="Acircumflex" unicode="&#xc2;" horiz-adv-x="686" 
d="M-47 0l10 37q52 12 78.5 37t71.5 100l295 494h99l79 -558q6 -38 20 -52t62 -21l-11 -37h-305l10 37q58 4 74.5 20t11.5 58l-14 123h-220l-46 -80q-37 -64 -30 -87t64 -34l-11 -37h-238zM429 281l-29 260h-12l-150 -260h191zM318 739l170 188h65l61 -188h-46l-71 100
l-125 -100h-54z" />
    <glyph glyph-name="Atilde" unicode="&#xc3;" horiz-adv-x="686" 
d="M-47 0l10 37q52 12 78.5 37t71.5 100l295 494h99l79 -558q6 -38 20 -52t62 -21l-11 -37h-305l10 37q58 4 74.5 20t11.5 58l-14 123h-220l-46 -80q-37 -64 -30 -87t64 -34l-11 -37h-238zM429 281l-29 260h-12l-150 -260h191zM331 740q27 132 105 132q22 0 65 -23.5
t58 -23.5q26 0 46 50h45q-27 -131 -104 -131q-23 0 -65.5 23.5t-57.5 23.5q-27 0 -47 -51h-45z" />
    <glyph glyph-name="Adieresis" unicode="&#xc4;" horiz-adv-x="686" 
d="M-47 0l10 37q52 12 78.5 37t71.5 100l295 494h99l79 -558q6 -38 20 -52t62 -21l-11 -37h-305l10 37q58 4 74.5 20t11.5 58l-14 123h-220l-46 -80q-37 -64 -30 -87t64 -34l-11 -37h-238zM429 281l-29 260h-12l-150 -260h191zM578 747q-23 0 -39 15.5t-16 41.5q0 36 24 62
t58 26q23 0 38.5 -15t15.5 -41q0 -37 -23.5 -63t-57.5 -26zM380 747q-23 0 -39 15.5t-16 41.5q0 36 24 62t58 26q23 0 38.5 -15t15.5 -41q0 -37 -23.5 -63t-57.5 -26z" />
    <glyph glyph-name="Aring" unicode="&#xc5;" horiz-adv-x="686" 
d="M214 238l-46 -80q-37 -64 -30.5 -87.5t63.5 -34.5l-10 -36h-238l9 36q52 12 79 37.5t72 100.5l283 474q-45 23 -45 80q0 60 43 100.5t103 40.5q43 0 71.5 -25.5t28.5 -68.5t-24 -77.5t-63 -50.5l76 -537q6 -38 20.5 -52t63.5 -21l-11 -37h-307l11 39q56 3 72 18.5
t11 57.5l-15 123h-217zM426 281l-29 256h-11l-148 -256h188zM456 670q34 0 55.5 37t21.5 75q0 22 -10.5 36.5t-31.5 14.5q-34 0 -55 -37t-21 -75q0 -21 10.5 -36t30.5 -15z" />
    <glyph glyph-name="AE" unicode="&#xc6;" horiz-adv-x="1034" 
d="M826 212h-39q2 68 -14 90.5t-65 22.5h-51l-74 -279h117q64 0 109 21t73.5 56.5t61.5 100.5h48l-63 -224h-590l11 39q55 2 76.5 12t28.5 34l46 170h-225l-91 -106q-55 -63 -55 -83q0 -22 51 -32l-10 -34h-233l9 34q55 11 89.5 37.5t96.5 96.5l331 380q24 26 24 40
q0 25 -79 33l11 37h656l-53 -205h-44q-4 89 -31.5 125t-107.5 36h-106l-66 -245h55q51 0 74 16t52 76h40zM512 298l82 303h-20l-261 -303h199z" />
    <glyph glyph-name="Ccedilla" unicode="&#xc7;" horiz-adv-x="675" 
d="M251 -247q-49 0 -97 17l15 34q38 -10 79 -10q31 0 49 14t18 35q0 40 -67 40q-6 0 -19.5 -2t-16.5 -2l-12 32l95 75q-110 9 -173 82t-63 184q0 105 48 200.5t142 158.5t211 63q94 0 164 -49l44 49h43l-63 -244h-44q-20 106 -54 154t-90 48q-70 0 -131 -62.5t-94 -151
t-33 -174.5q0 -98 46 -147t121 -49q119 0 227 150l37 -21q-120 -182 -288 -192l-63 -51l1 -3q104 -6 104 -76q0 -43 -39.5 -72.5t-96.5 -29.5z" />
    <glyph glyph-name="Egrave" unicode="&#xc8;" horiz-adv-x="670" 
d="M146 658h562l-53 -205h-44q-4 89 -31.5 125t-107.5 36h-106l-66 -245h50q52 0 77 16.5t54 75.5h40l-63 -249h-39q2 68 -14 90.5t-65 22.5h-51l-74 -279h117q64 0 109 21t73.5 56.5t61.5 100.5h48l-63 -224h-590l11 39q56 2 77.5 12t27.5 34l131 489q7 26 -8 35t-75 11z
M456 739l-91 90q-54 52 -54 80q0 21 16 36t36 15q22 0 36.5 -18t41.5 -71l66 -132h-51z" />
    <glyph glyph-name="Eacute" unicode="&#xc9;" horiz-adv-x="670" 
d="M408 739l87 125q40 59 59 77.5t43 18.5q19 0 32 -13t13 -31q0 -24 -17 -43.5t-73 -63.5l-89 -70h-55zM146 658h562l-53 -205h-44q-4 89 -31.5 125t-107.5 36h-106l-66 -245h50q52 0 77 16.5t54 75.5h40l-63 -249h-39q2 68 -14 90.5t-65 22.5h-51l-74 -279h117
q64 0 109 21t73.5 56.5t61.5 100.5h48l-63 -224h-590l11 39q56 2 77.5 12t27.5 34l131 489q7 26 -8 35t-75 11z" />
    <glyph glyph-name="Ecircumflex" unicode="&#xca;" horiz-adv-x="670" 
d="M319 739l170 188h65l61 -188h-46l-71 100l-125 -100h-54zM146 658h562l-53 -205h-44q-4 89 -31.5 125t-107.5 36h-106l-66 -245h50q52 0 77 16.5t54 75.5h40l-63 -249h-39q2 68 -14 90.5t-65 22.5h-51l-74 -279h117q64 0 109 21t73.5 56.5t61.5 100.5h48l-63 -224h-590
l11 39q56 2 77.5 12t27.5 34l131 489q7 26 -8 35t-75 11z" />
    <glyph glyph-name="Edieresis" unicode="&#xcb;" horiz-adv-x="670" 
d="M579 747q-23 0 -39 15.5t-16 41.5q0 36 24 62t58 26q23 0 38.5 -15t15.5 -41q0 -37 -23.5 -63t-57.5 -26zM381 747q-23 0 -39 15.5t-16 41.5q0 36 24 62t58 26q23 0 38.5 -15t15.5 -41q0 -37 -23.5 -63t-57.5 -26zM146 658h562l-53 -205h-44q-4 89 -31.5 125t-107.5 36
h-106l-66 -245h50q52 0 77 16.5t54 75.5h40l-63 -249h-39q2 68 -14 90.5t-65 22.5h-51l-74 -279h117q64 0 109 21t73.5 56.5t61.5 100.5h48l-63 -224h-590l11 39q56 2 77.5 12t27.5 34l131 489q7 26 -8 35t-75 11z" />
    <glyph glyph-name="Igrave" unicode="&#xcc;" horiz-adv-x="410" 
d="M471 620q-55 -2 -77 -12.5t-28 -33.5l-131 -489q-7 -27 8.5 -35.5t74.5 -10.5l-11 -39h-326l11 39q56 2 77.5 12t27.5 34l131 489q7 26 -8 35t-75 11l11 38h326zM324 739l-91 90q-54 52 -54 80q0 21 16 36t36 15q22 0 36.5 -18t41.5 -71l66 -132h-51z" />
    <glyph glyph-name="Iacute" unicode="&#xcd;" horiz-adv-x="410" 
d="M471 620q-55 -2 -77 -12.5t-28 -33.5l-131 -489q-7 -27 8.5 -35.5t74.5 -10.5l-11 -39h-326l11 39q56 2 77.5 12t27.5 34l131 489q7 26 -8 35t-75 11l11 38h326zM276 739l87 125q40 59 59 77.5t43 18.5q19 0 32 -13t13 -31q0 -24 -17 -43.5t-73 -63.5l-89 -70h-55z" />
    <glyph glyph-name="Icircumflex" unicode="&#xce;" horiz-adv-x="410" 
d="M471 620q-55 -2 -77 -12.5t-28 -33.5l-131 -489q-7 -27 8.5 -35.5t74.5 -10.5l-11 -39h-326l11 39q56 2 77.5 12t27.5 34l131 489q7 26 -8 35t-75 11l11 38h326zM187 739l170 188h65l61 -188h-46l-71 100l-125 -100h-54z" />
    <glyph glyph-name="Idieresis" unicode="&#xcf;" horiz-adv-x="410" 
d="M471 620q-55 -2 -77 -12.5t-28 -33.5l-131 -489q-7 -27 8.5 -35.5t74.5 -10.5l-11 -39h-326l11 39q56 2 77.5 12t27.5 34l131 489q7 26 -8 35t-75 11l11 38h326zM447 747q-23 0 -39 15.5t-16 41.5q0 36 24 62t58 26q23 0 38.5 -15t15.5 -41q0 -37 -23.5 -63t-57.5 -26z
M249 747q-23 0 -39 15.5t-16 41.5q0 36 24 62t58 26q23 0 38.5 -15t15.5 -41q0 -37 -23.5 -63t-57.5 -26z" />
    <glyph glyph-name="Eth" unicode="&#xd0;" horiz-adv-x="735" 
d="M87 85l62 232h-87l14 52h87l55 205q7 26 -8 35t-75 11l11 38h264q161 0 239 -74t78 -190q0 -71 -28 -146t-86 -133q-115 -115 -313 -115h-329l11 39q56 2 77.5 12t27.5 34zM215 42h85q101 0 172 71q59 59 87 152t28 176q0 82 -41.5 128.5t-127.5 46.5h-51l-66 -247h115
l-14 -52h-114z" />
    <glyph glyph-name="Ntilde" unicode="&#xd1;" horiz-adv-x="775" 
d="M369 658l210 -492h6l86 322q20 70 5.5 98t-78.5 35l10 37h255l-10 -37q-60 -7 -84.5 -35t-44.5 -105l-132 -492h-85l-231 534h-6l-94 -352q-20 -70 -6 -98.5t78 -35.5l-11 -37h-258l10 37q61 7 87.5 36t46.5 105l97 362q10 38 -4.5 58t-69.5 22l11 38h212zM381 740
q27 132 105 132q22 0 65 -23.5t58 -23.5q26 0 46 50h45q-27 -131 -104 -131q-23 0 -65.5 23.5t-57.5 23.5q-27 0 -47 -51h-45z" />
    <glyph glyph-name="Ograve" unicode="&#xd2;" horiz-adv-x="734" 
d="M327 -16q-121 0 -194.5 76t-73.5 192q0 78 28.5 153.5t78.5 135.5t126.5 96.5t165.5 36.5q121 0 195 -76t74 -191q0 -106 -47.5 -201.5t-141 -158.5t-211.5 -63zM325 27q73 0 135.5 72.5t95 171.5t32.5 190q0 81 -33.5 126t-94.5 45q-72 0 -134.5 -72.5t-95.5 -172
t-33 -189.5q0 -81 33.5 -126t94.5 -45zM486 739l-91 90q-54 52 -54 80q0 21 16 36t36 15q22 0 36.5 -18t41.5 -71l66 -132h-51z" />
    <glyph glyph-name="Oacute" unicode="&#xd3;" horiz-adv-x="734" 
d="M438 739l87 125q40 59 59 77.5t43 18.5q19 0 32 -13t13 -31q0 -24 -17 -43.5t-73 -63.5l-89 -70h-55zM327 -16q-121 0 -194.5 76t-73.5 192q0 78 28.5 153.5t78.5 135.5t126.5 96.5t165.5 36.5q121 0 195 -76t74 -191q0 -106 -47.5 -201.5t-141 -158.5t-211.5 -63z
M325 27q73 0 135.5 72.5t95 171.5t32.5 190q0 81 -33.5 126t-94.5 45q-72 0 -134.5 -72.5t-95.5 -172t-33 -189.5q0 -81 33.5 -126t94.5 -45z" />
    <glyph glyph-name="Ocircumflex" unicode="&#xd4;" horiz-adv-x="734" 
d="M349 739l170 188h65l61 -188h-46l-71 100l-125 -100h-54zM327 -16q-121 0 -194.5 76t-73.5 192q0 78 28.5 153.5t78.5 135.5t126.5 96.5t165.5 36.5q121 0 195 -76t74 -191q0 -106 -47.5 -201.5t-141 -158.5t-211.5 -63zM325 27q73 0 135.5 72.5t95 171.5t32.5 190
q0 81 -33.5 126t-94.5 45q-72 0 -134.5 -72.5t-95.5 -172t-33 -189.5q0 -81 33.5 -126t94.5 -45z" />
    <glyph glyph-name="Otilde" unicode="&#xd5;" horiz-adv-x="734" 
d="M327 -16q-121 0 -194.5 76t-73.5 192q0 78 28.5 153.5t78.5 135.5t126.5 96.5t165.5 36.5q121 0 195 -76t74 -191q0 -106 -47.5 -201.5t-141 -158.5t-211.5 -63zM325 27q73 0 135.5 72.5t95 171.5t32.5 190q0 81 -33.5 126t-94.5 45q-72 0 -134.5 -72.5t-95.5 -172
t-33 -189.5q0 -81 33.5 -126t94.5 -45zM362 740q27 132 105 132q22 0 65 -23.5t58 -23.5q26 0 46 50h45q-27 -131 -104 -131q-23 0 -65.5 23.5t-57.5 23.5q-27 0 -47 -51h-45z" />
    <glyph glyph-name="Odieresis" unicode="&#xd6;" horiz-adv-x="734" 
d="M609 747q-23 0 -39 15.5t-16 41.5q0 36 24 62t58 26q23 0 38.5 -15t15.5 -41q0 -37 -23.5 -63t-57.5 -26zM411 747q-23 0 -39 15.5t-16 41.5q0 36 24 62t58 26q23 0 38.5 -15t15.5 -41q0 -37 -23.5 -63t-57.5 -26zM327 -16q-121 0 -194.5 76t-73.5 192q0 78 28.5 153.5
t78.5 135.5t126.5 96.5t165.5 36.5q121 0 195 -76t74 -191q0 -106 -47.5 -201.5t-141 -158.5t-211.5 -63zM325 27q73 0 135.5 72.5t95 171.5t32.5 190q0 81 -33.5 126t-94.5 45q-72 0 -134.5 -72.5t-95.5 -172t-33 -189.5q0 -81 33.5 -126t94.5 -45z" />
    <glyph glyph-name="multiply" unicode="&#xd7;" horiz-adv-x="528" 
d="M41 153l199 157l-113 156l52 40l113 -155l199 157l36 -47l-200 -158l114 -155l-52 -40l-114 154l-198 -156z" />
    <glyph glyph-name="Oslash" unicode="&#xd8;" horiz-adv-x="734" 
d="M87 -34h-62l97 105q-63 72 -63 181q0 78 28.5 153.5t78.5 135.5t126.5 96.5t165.5 36.5q100 0 172 -56l68 74h62l-97 -105q64 -73 64 -180q0 -106 -47.5 -201.5t-141 -158.5t-211.5 -63q-100 0 -172 56zM325 27q73 0 135.5 72.5t95 171.5t32.5 190q0 25 -3 47l-372 -405
q31 -76 112 -76zM197 198q0 -24 3 -47l372 404q-31 77 -112 77q-72 0 -134.5 -72.5t-95.5 -172t-33 -189.5z" />
    <glyph glyph-name="Ugrave" unicode="&#xd9;" horiz-adv-x="752" 
d="M341 574l-85 -319q-10 -43 -10 -73q0 -63 37 -100t107 -37q83 0 128.5 48.5t71.5 144.5l68 254q19 70 5.5 96t-77.5 33l11 37h251l-10 -37q-61 -7 -84.5 -33.5t-43.5 -103.5l-74 -274q-29 -110 -95 -168t-205 -58q-112 0 -170 54t-58 143q0 36 11 82l84 311q7 26 -8 35
t-75 11l11 38h316l-11 -38q-53 -2 -70.5 -11t-24.5 -35zM516 739l-91 90q-54 52 -54 80q0 21 16 36t36 15q22 0 36.5 -18t41.5 -71l66 -132h-51z" />
    <glyph glyph-name="Uacute" unicode="&#xda;" horiz-adv-x="752" 
d="M468 739l87 125q40 59 59 77.5t43 18.5q19 0 32 -13t13 -31q0 -24 -17 -43.5t-73 -63.5l-89 -70h-55zM341 574l-85 -319q-10 -43 -10 -73q0 -63 37 -100t107 -37q83 0 128.5 48.5t71.5 144.5l68 254q19 70 5.5 96t-77.5 33l11 37h251l-10 -37q-61 -7 -84.5 -33.5
t-43.5 -103.5l-74 -274q-29 -110 -95 -168t-205 -58q-112 0 -170 54t-58 143q0 36 11 82l84 311q7 26 -8 35t-75 11l11 38h316l-11 -38q-53 -2 -70.5 -11t-24.5 -35z" />
    <glyph glyph-name="Ucircumflex" unicode="&#xdb;" horiz-adv-x="752" 
d="M378 739l170 188h65l61 -188h-46l-71 100l-125 -100h-54zM341 574l-85 -319q-10 -43 -10 -73q0 -63 37 -100t107 -37q83 0 128.5 48.5t71.5 144.5l68 254q19 70 5.5 96t-77.5 33l11 37h251l-10 -37q-61 -7 -84.5 -33.5t-43.5 -103.5l-74 -274q-29 -110 -95 -168t-205 -58
q-112 0 -170 54t-58 143q0 36 11 82l84 311q7 26 -8 35t-75 11l11 38h316l-11 -38q-53 -2 -70.5 -11t-24.5 -35z" />
    <glyph glyph-name="Udieresis" unicode="&#xdc;" horiz-adv-x="752" 
d="M639 747q-23 0 -39 15.5t-16 41.5q0 36 24 62t58 26q23 0 38.5 -15t15.5 -41q0 -37 -23.5 -63t-57.5 -26zM441 747q-23 0 -39 15.5t-16 41.5q0 36 24 62t58 26q23 0 38.5 -15t15.5 -41q0 -37 -23.5 -63t-57.5 -26zM341 574l-85 -319q-10 -43 -10 -73q0 -63 37 -100
t107 -37q83 0 128.5 48.5t71.5 144.5l68 254q19 70 5.5 96t-77.5 33l11 37h251l-10 -37q-61 -7 -84.5 -33.5t-43.5 -103.5l-74 -274q-29 -110 -95 -168t-205 -58q-112 0 -170 54t-58 143q0 36 11 82l84 311q7 26 -8 35t-75 11l11 38h316l-11 -38q-53 -2 -70.5 -11t-24.5 -35
z" />
    <glyph glyph-name="Yacute" unicode="&#xdd;" horiz-adv-x="667" 
d="M623 519l-200 -232l-55 -202q-7 -27 8.5 -35.5t75.5 -10.5l-11 -39h-326l11 39q55 2 76.5 12t27.5 34l57 212l-94 263q-9 25 -30 39t-63 22l11 37h311l-11 -36q-60 -4 -75 -18t-4 -47l73 -223l143 175q49 60 47.5 82.5t-60.5 29.5l10 37h247l-11 -37q-46 -8 -79 -28.5
t-79 -73.5zM421 739l87 125q40 59 59 77.5t43 18.5q19 0 32 -13t13 -31q0 -24 -17 -43.5t-73 -63.5l-89 -70h-55z" />
    <glyph glyph-name="Thorn" unicode="&#xde;" horiz-adv-x="638" 
d="M-29 0l11 39q56 2 77.5 12t27.5 34l131 489q7 26 -8 35t-74 11l10 38h322l-10 -38q-52 -2 -73.5 -11.5t-28.5 -34.5l-12 -46h33q254 0 254 -171q0 -84 -81 -146t-222 -62h-85l-18 -62q-7 -27 10.5 -36.5t80.5 -11.5l-11 -39h-334zM254 193h63q84 0 128.5 52t44.5 132
q0 55 -30 81t-96 26h-32z" />
    <glyph glyph-name="germandbls" unicode="&#xdf;" horiz-adv-x="556" 
d="M-81 -210q-59 0 -90 23.5t-31 63.5q0 28 20 48.5t48 20.5q26 0 42 -17t16 -42q0 -33 -25 -54q12 -5 25 -5q29 0 53 34.5t45 129.5l107 471q28 129 89.5 184.5t157.5 55.5q78 0 121.5 -35t43.5 -85q0 -41 -28 -73t-61 -48t-61 -39.5t-28 -50.5q0 -21 16.5 -41.5t40.5 -39
t47.5 -39t40 -49.5t16.5 -62q0 -64 -47 -106.5t-132 -42.5q-51 0 -92.5 24t-41.5 64q0 28 16 46.5t43 18.5t42 -14t15 -39q0 -27 -20 -47q21 -19 53 -19q31 0 49.5 18.5t18.5 51.5q0 23 -10.5 42.5t-26.5 32t-34.5 28t-34.5 30t-26.5 37t-10.5 49.5q0 36 15 65t37 50
t44 42.5t37 51t15 66.5q0 33 -17 54.5t-49 21.5q-82 0 -112 -143l-96 -424q-38 -174 -91 -241.5t-149 -67.5z" />
    <glyph glyph-name="agrave" unicode="&#xe0;" horiz-adv-x="554" 
d="M485 307l-52 -179q-11 -38 -11 -53q0 -20 16.5 -26t63.5 -6v-35q-45 -16 -99 -16q-44 0 -64.5 14.5t-21.5 50.5q0 12 1 18l-5 2q-40 -47 -71.5 -66t-73.5 -19q-60 0 -98.5 42t-38.5 119q0 123 86 220t183 97q73 0 106 -58l18 47l119 10zM320 424q-46 0 -86 -49t-60 -110
t-20 -109q0 -96 72 -96q45 0 92 71l69 231q-7 30 -25 46t-42 16zM345 530l-91 90q-54 52 -54 80q0 21 16 36t36 15q22 0 36.5 -18t41.5 -71l66 -132h-51z" />
    <glyph glyph-name="aacute" unicode="&#xe1;" horiz-adv-x="554" 
d="M485 307l-52 -179q-11 -38 -11 -53q0 -20 16.5 -26t63.5 -6v-35q-45 -16 -99 -16q-44 0 -64.5 14.5t-21.5 50.5q0 12 1 18l-5 2q-40 -47 -71.5 -66t-73.5 -19q-60 0 -98.5 42t-38.5 119q0 123 86 220t183 97q73 0 106 -58l18 47l119 10zM320 424q-46 0 -86 -49t-60 -110
t-20 -109q0 -96 72 -96q45 0 92 71l69 231q-7 30 -25 46t-42 16zM297 530l87 125q40 59 59 77.5t43 18.5q19 0 32 -13t13 -31q0 -24 -17 -43.5t-73 -63.5l-89 -70h-55z" />
    <glyph glyph-name="acircumflex" unicode="&#xe2;" horiz-adv-x="554" 
d="M485 307l-52 -179q-11 -38 -11 -53q0 -20 16.5 -26t63.5 -6v-35q-45 -16 -99 -16q-44 0 -64.5 14.5t-21.5 50.5q0 12 1 18l-5 2q-40 -47 -71.5 -66t-73.5 -19q-60 0 -98.5 42t-38.5 119q0 123 86 220t183 97q73 0 106 -58l18 47l119 10zM320 424q-46 0 -86 -49t-60 -110
t-20 -109q0 -96 72 -96q45 0 92 71l69 231q-7 30 -25 46t-42 16zM208 530l170 188h65l61 -188h-46l-71 100l-125 -100h-54z" />
    <glyph glyph-name="atilde" unicode="&#xe3;" horiz-adv-x="554" 
d="M485 307l-52 -179q-11 -38 -11 -53q0 -20 16.5 -26t63.5 -6v-35q-45 -16 -99 -16q-44 0 -64.5 14.5t-21.5 50.5q0 12 1 18l-5 2q-40 -47 -71.5 -66t-73.5 -19q-60 0 -98.5 42t-38.5 119q0 123 86 220t183 97q73 0 106 -58l18 47l119 10zM320 424q-46 0 -86 -49t-60 -110
t-20 -109q0 -96 72 -96q45 0 92 71l69 231q-7 30 -25 46t-42 16zM220 531q27 132 105 132q22 0 65 -23.5t58 -23.5q26 0 46 50h45q-27 -131 -104 -131q-23 0 -65.5 23.5t-57.5 23.5q-27 0 -47 -51h-45z" />
    <glyph glyph-name="adieresis" unicode="&#xe4;" horiz-adv-x="554" 
d="M485 307l-52 -179q-11 -38 -11 -53q0 -20 16.5 -26t63.5 -6v-35q-45 -16 -99 -16q-44 0 -64.5 14.5t-21.5 50.5q0 12 1 18l-5 2q-40 -47 -71.5 -66t-73.5 -19q-60 0 -98.5 42t-38.5 119q0 123 86 220t183 97q73 0 106 -58l18 47l119 10zM320 424q-46 0 -86 -49t-60 -110
t-20 -109q0 -96 72 -96q45 0 92 71l69 231q-7 30 -25 46t-42 16zM468 538q-23 0 -39 15.5t-16 41.5q0 36 24 62t58 26q23 0 38.5 -15t15.5 -41q0 -37 -23.5 -63t-57.5 -26zM270 538q-23 0 -39 15.5t-16 41.5q0 36 24 62t58 26q23 0 38.5 -15t15.5 -41q0 -37 -23.5 -63
t-57.5 -26z" />
    <glyph glyph-name="aring" unicode="&#xe5;" horiz-adv-x="554" 
d="M485 307l-52 -179q-11 -38 -11 -53q0 -20 16.5 -26t63.5 -6v-35q-45 -16 -99 -16q-44 0 -64.5 14.5t-21.5 50.5q0 12 1 18l-5 2q-40 -47 -71.5 -66t-73.5 -19q-60 0 -98.5 42t-38.5 119q0 123 86 220t183 97q73 0 106 -58l18 47l119 10zM320 424q-46 0 -86 -49t-60 -110
t-20 -109q0 -96 72 -96q45 0 92 71l69 231q-7 30 -25 46t-42 16zM375 538q-46 0 -74.5 25t-28.5 66q0 57 41 96t97 39q45 0 74 -25t29 -66q0 -57 -41 -96t-97 -39zM378 575q33 0 53 33t20 67q0 23 -11.5 37.5t-32.5 14.5q-34 0 -53.5 -33t-19.5 -68q0 -23 11.5 -37t32.5 -14
z" />
    <glyph glyph-name="ae" unicode="&#xe6;" horiz-adv-x="744" 
d="M591 470q70 0 107.5 -30.5t37.5 -78.5q0 -66 -78 -109t-228 -44q-1 -11 -1 -35q0 -59 25.5 -92t75.5 -33q80 0 139 81l27 -25q-84 -112 -202 -112q-60 0 -103 30t-60 86h-5q-65 -116 -188 -116q-59 0 -93 30t-34 80q0 163 320 156q6 40 6 64q0 56 -24 81.5t-61 25.5
q-40 0 -67 -21q21 -15 21 -44q0 -30 -18 -47t-46 -17t-45 17t-17 43q0 46 51.5 78t130.5 32q115 0 147 -76h5q31 33 78 54.5t99 21.5zM583 427q-47 0 -89.5 -54t-57.5 -131q197 10 197 131q0 54 -50 54zM197 57q45 0 79.5 43t49.5 123q-108 1 -150 -26.5t-42 -76.5
q0 -28 17 -45.5t46 -17.5z" />
    <glyph glyph-name="ccedilla" unicode="&#xe7;" horiz-adv-x="460" 
d="M148 -247q-49 0 -97 17l15 34q38 -10 79 -10q31 0 49 14t18 35q0 40 -67 40q-6 0 -19.5 -2t-16.5 -2l-12 32l104 82q-75 5 -122.5 55t-47.5 129q0 112 79.5 202.5t190.5 90.5q66 0 107.5 -30t41.5 -79q0 -33 -18 -54.5t-48 -21.5q-27 0 -43.5 15.5t-16.5 43.5
q0 18 10.5 36t28.5 27q-16 22 -52 22q-65 0 -112 -78t-47 -176q0 -59 27 -93t77 -34q73 0 135 81l27 -25q-69 -96 -164 -109l-75 -61l1 -3q104 -6 104 -76q0 -43 -39.5 -72.5t-96.5 -29.5z" />
    <glyph glyph-name="egrave" unicode="&#xe8;" horiz-adv-x="465" 
d="M458 361q0 -66 -78 -109t-228 -44q-1 -11 -1 -35q0 -60 25.5 -92.5t75.5 -32.5q80 0 139 81l27 -25q-84 -112 -203 -112q-79 0 -132 47t-53 131q0 115 81.5 207.5t200.5 92.5q71 0 108.5 -30.5t37.5 -78.5zM304 427q-47 0 -89 -54t-57 -131q197 10 197 131q0 54 -51 54z
M300 530l-91 90q-54 52 -54 80q0 21 16 36t36 15q22 0 36.5 -18t41.5 -71l66 -132h-51z" />
    <glyph glyph-name="eacute" unicode="&#xe9;" horiz-adv-x="465" 
d="M458 361q0 -66 -78 -109t-228 -44q-1 -11 -1 -35q0 -60 25.5 -92.5t75.5 -32.5q80 0 139 81l27 -25q-84 -112 -203 -112q-79 0 -132 47t-53 131q0 115 81.5 207.5t200.5 92.5q71 0 108.5 -30.5t37.5 -78.5zM304 427q-47 0 -89 -54t-57 -131q197 10 197 131q0 54 -51 54z
M252 530l87 125q40 59 59 77.5t43 18.5q19 0 32 -13t13 -31q0 -24 -17 -43.5t-73 -63.5l-89 -70h-55z" />
    <glyph glyph-name="ecircumflex" unicode="&#xea;" horiz-adv-x="465" 
d="M458 361q0 -66 -78 -109t-228 -44q-1 -11 -1 -35q0 -60 25.5 -92.5t75.5 -32.5q80 0 139 81l27 -25q-84 -112 -203 -112q-79 0 -132 47t-53 131q0 115 81.5 207.5t200.5 92.5q71 0 108.5 -30.5t37.5 -78.5zM163 530l170 188h65l61 -188h-46l-71 100l-125 -100h-54z
M304 427q-47 0 -89 -54t-57 -131q197 10 197 131q0 54 -51 54z" />
    <glyph glyph-name="edieresis" unicode="&#xeb;" horiz-adv-x="465" 
d="M458 361q0 -66 -78 -109t-228 -44q-1 -11 -1 -35q0 -60 25.5 -92.5t75.5 -32.5q80 0 139 81l27 -25q-84 -112 -203 -112q-79 0 -132 47t-53 131q0 115 81.5 207.5t200.5 92.5q71 0 108.5 -30.5t37.5 -78.5zM304 427q-47 0 -89 -54t-57 -131q197 10 197 131q0 54 -51 54z
M225 538q-23 0 -39 15.5t-16 41.5q0 36 24 62t58 26q23 0 38.5 -15t15.5 -41q0 -37 -23.5 -63t-57.5 -26zM423 538q-23 0 -39 15.5t-16 41.5q0 36 24 62t58 26q23 0 38.5 -15t15.5 -41q0 -37 -23.5 -63t-57.5 -26z" />
    <glyph glyph-name="igrave" unicode="&#xec;" horiz-adv-x="323" 
d="M261 43v-35q-48 -16 -106 -16q-104 0 -104 78q0 22 9 47l80 253q8 22 -7.5 33t-64.5 14v36l219 11l-109 -342q-9 -28 -9 -44q0 -21 20.5 -29t71.5 -6zM211 530l-91 90q-54 52 -54 80q0 21 16 36t36 15q22 0 36.5 -18t41.5 -71l66 -132h-51z" />
    <glyph glyph-name="iacute" unicode="&#xed;" horiz-adv-x="323" 
d="M163 530l87 125q40 59 59 77.5t43 18.5q19 0 32 -13t13 -31q0 -24 -17 -43.5t-73 -63.5l-89 -70h-55zM261 43v-35q-48 -16 -106 -16q-104 0 -104 78q0 22 9 47l80 253q8 22 -7.5 33t-64.5 14v36l219 11l-109 -342q-9 -28 -9 -44q0 -21 20.5 -29t71.5 -6z" />
    <glyph glyph-name="icircumflex" unicode="&#xee;" horiz-adv-x="323" 
d="M73 530l170 188h65l61 -188h-46l-71 100l-125 -100h-54zM261 43v-35q-48 -16 -106 -16q-104 0 -104 78q0 22 9 47l80 253q8 22 -7.5 33t-64.5 14v36l219 11l-109 -342q-9 -28 -9 -44q0 -21 20.5 -29t71.5 -6z" />
    <glyph glyph-name="idieresis" unicode="&#xef;" horiz-adv-x="323" 
d="M334 538q-23 0 -39 15.5t-16 41.5q0 36 24 62t58 26q23 0 38.5 -15t15.5 -41q0 -37 -23.5 -63t-57.5 -26zM136 538q-23 0 -39 15.5t-16 41.5q0 36 24 62t58 26q23 0 38.5 -15t15.5 -41q0 -37 -23.5 -63t-57.5 -26zM261 43v-35q-48 -16 -106 -16q-104 0 -104 78q0 22 9 47
l80 253q8 22 -7.5 33t-64.5 14v36l219 11l-109 -342q-9 -28 -9 -44q0 -21 20.5 -29t71.5 -6z" />
    <glyph glyph-name="eth" unicode="&#xf0;" horiz-adv-x="514" 
d="M301 570l-113 -66l-21 48l95 52q-40 31 -96 50l25 45q79 -18 140 -56l103 61l22 -48l-81 -45q117 -98 117 -265q0 -150 -75 -252t-205 -102q-84 0 -133.5 51t-49.5 131q0 116 74.5 206t192.5 90q36 0 63 -12q-11 63 -58 112zM216 40q44 0 79.5 52t52.5 119t17 125
q0 86 -66 86q-44 0 -79 -52t-51.5 -118.5t-16.5 -125.5q0 -86 64 -86z" />
    <glyph glyph-name="ntilde" unicode="&#xf1;" horiz-adv-x="560" 
d="M67 162l57 208q6 24 -5 34.5t-55 13.5v36l198 10l-24 -73l4 -4q96 80 175 80q46 0 72.5 -25t26.5 -69q0 -26 -11 -61l-62 -190q-11 -33 -11 -48q0 -19 18 -26t65 -6v-35q-43 -15 -107 -15q-92 0 -92 68q0 23 10 50l59 182q10 30 10 51q0 49 -54 49q-49 0 -115 -49
l-83 -343h-131zM213 531q27 132 105 132q22 0 65 -23.5t58 -23.5q26 0 46 50h45q-27 -131 -104 -131q-23 0 -65.5 23.5t-57.5 23.5q-27 0 -47 -51h-45z" />
    <glyph glyph-name="ograve" unicode="&#xf2;" horiz-adv-x="514" 
d="M305 470q81 0 130.5 -51.5t49.5 -130.5q0 -75 -31 -141t-95.5 -110.5t-149.5 -44.5q-81 0 -130 51.5t-49 130.5q0 117 75 206.5t200 89.5zM214 31q45 0 82 53.5t54.5 122t17.5 129.5q0 95 -67 95q-44 0 -81 -53.5t-55 -122.5t-18 -129q0 -95 67 -95zM317 530l-91 90
q-54 52 -54 80q0 21 16 36t36 15q22 0 36.5 -18t41.5 -71l66 -132h-51z" />
    <glyph glyph-name="oacute" unicode="&#xf3;" horiz-adv-x="514" 
d="M269 530l87 125q40 59 59 77.5t43 18.5q19 0 32 -13t13 -31q0 -24 -17 -43.5t-73 -63.5l-89 -70h-55zM305 470q81 0 130.5 -51.5t49.5 -130.5q0 -75 -31 -141t-95.5 -110.5t-149.5 -44.5q-81 0 -130 51.5t-49 130.5q0 117 75 206.5t200 89.5zM214 31q45 0 82 53.5
t54.5 122t17.5 129.5q0 95 -67 95q-44 0 -81 -53.5t-55 -122.5t-18 -129q0 -95 67 -95z" />
    <glyph glyph-name="ocircumflex" unicode="&#xf4;" horiz-adv-x="514" 
d="M179 530l170 188h65l61 -188h-46l-71 100l-125 -100h-54zM305 470q81 0 130.5 -51.5t49.5 -130.5q0 -75 -31 -141t-95.5 -110.5t-149.5 -44.5q-81 0 -130 51.5t-49 130.5q0 117 75 206.5t200 89.5zM214 31q45 0 82 53.5t54.5 122t17.5 129.5q0 95 -67 95q-44 0 -81 -53.5
t-55 -122.5t-18 -129q0 -95 67 -95z" />
    <glyph glyph-name="otilde" unicode="&#xf5;" horiz-adv-x="514" 
d="M305 470q81 0 130.5 -51.5t49.5 -130.5q0 -75 -31 -141t-95.5 -110.5t-149.5 -44.5q-81 0 -130 51.5t-49 130.5q0 117 75 206.5t200 89.5zM214 31q45 0 82 53.5t54.5 122t17.5 129.5q0 95 -67 95q-44 0 -81 -53.5t-55 -122.5t-18 -129q0 -95 67 -95zM192 531
q27 132 105 132q22 0 65 -23.5t58 -23.5q26 0 46 50h45q-27 -131 -104 -131q-23 0 -65.5 23.5t-57.5 23.5q-27 0 -47 -51h-45z" />
    <glyph glyph-name="odieresis" unicode="&#xf6;" horiz-adv-x="514" 
d="M439 538q-23 0 -39 15.5t-16 41.5q0 36 24 62t58 26q23 0 38.5 -15t15.5 -41q0 -37 -23.5 -63t-57.5 -26zM241 538q-23 0 -39 15.5t-16 41.5q0 36 24 62t58 26q23 0 38.5 -15t15.5 -41q0 -37 -23.5 -63t-57.5 -26zM305 470q81 0 130.5 -51.5t49.5 -130.5q0 -75 -31 -141
t-95.5 -110.5t-149.5 -44.5q-81 0 -130 51.5t-49 130.5q0 117 75 206.5t200 89.5zM214 31q45 0 82 53.5t54.5 122t17.5 129.5q0 95 -67 95q-44 0 -81 -53.5t-55 -122.5t-18 -129q0 -95 67 -95z" />
    <glyph glyph-name="divide" unicode="&#xf7;" horiz-adv-x="573" 
d="M533 276h-470l17 64h470zM353 402q-31 0 -52.5 20.5t-21.5 50.5t22 50.5t52 20.5t51.5 -20.5t21.5 -50.5t-21.5 -50.5t-51.5 -20.5zM264 72q-31 0 -52.5 20.5t-21.5 50.5t22 50.5t52 20.5t51.5 -20.5t21.5 -50.5t-21.5 -50.5t-51.5 -20.5z" />
    <glyph glyph-name="oslash" unicode="&#xf8;" horiz-adv-x="514" 
d="M4 -23l66 75q-40 49 -40 122q0 117 75 206.5t200 89.5q62 0 108 -32l40 46h58l-67 -75q41 -49 41 -121q0 -75 -31 -141t-95.5 -110.5t-149.5 -44.5q-64 0 -108 32l-40 -47h-57zM214 31q44 0 80 51.5t54 118.5t20 128l-216 -249q13 -49 62 -49zM301 431q-44 0 -80 -51.5
t-54.5 -119t-19.5 -128.5l216 249q-14 50 -62 50z" />
    <glyph glyph-name="ugrave" unicode="&#xf9;" horiz-adv-x="578" 
d="M55 147l72 223q8 23 -3.5 34t-55.5 14v36l201 10l-94 -297q-10 -35 -10 -52q0 -48 55 -48q51 0 114 56l54 181l34 158h128l-103 -340q-11 -39 -11 -48q0 -19 17.5 -25.5t64.5 -6.5v-34q-40 -15 -101 -15q-90 0 -90 66q0 7 2 21l-4 4q-85 -92 -176 -92q-50 0 -77.5 26.5
t-27.5 69.5q0 22 11 59zM346 530l-91 90q-54 52 -54 80q0 21 16 36t36 15q22 0 36.5 -18t41.5 -71l66 -132h-51z" />
    <glyph glyph-name="uacute" unicode="&#xfa;" horiz-adv-x="578" 
d="M298 530l87 125q40 59 59 77.5t43 18.5q19 0 32 -13t13 -31q0 -24 -17 -43.5t-73 -63.5l-89 -70h-55zM55 147l72 223q8 23 -3.5 34t-55.5 14v36l201 10l-94 -297q-10 -35 -10 -52q0 -48 55 -48q51 0 114 56l54 181l34 158h128l-103 -340q-11 -39 -11 -48
q0 -19 17.5 -25.5t64.5 -6.5v-34q-40 -15 -101 -15q-90 0 -90 66q0 7 2 21l-4 4q-85 -92 -176 -92q-50 0 -77.5 26.5t-27.5 69.5q0 22 11 59z" />
    <glyph glyph-name="ucircumflex" unicode="&#xfb;" horiz-adv-x="578" 
d="M208 530l170 188h65l61 -188h-46l-71 100l-125 -100h-54zM55 147l72 223q8 23 -3.5 34t-55.5 14v36l201 10l-94 -297q-10 -35 -10 -52q0 -48 55 -48q51 0 114 56l54 181l34 158h128l-103 -340q-11 -39 -11 -48q0 -19 17.5 -25.5t64.5 -6.5v-34q-40 -15 -101 -15
q-90 0 -90 66q0 7 2 21l-4 4q-85 -92 -176 -92q-50 0 -77.5 26.5t-27.5 69.5q0 22 11 59z" />
    <glyph glyph-name="udieresis" unicode="&#xfc;" horiz-adv-x="578" 
d="M468 538q-23 0 -39 15.5t-16 41.5q0 36 24 62t58 26q23 0 38.5 -15t15.5 -41q0 -37 -23.5 -63t-57.5 -26zM270 538q-23 0 -39 15.5t-16 41.5q0 36 24 62t58 26q23 0 38.5 -15t15.5 -41q0 -37 -23.5 -63t-57.5 -26zM55 147l72 223q8 23 -3.5 34t-55.5 14v36l201 10
l-94 -297q-10 -35 -10 -52q0 -48 55 -48q51 0 114 56l54 181l34 158h128l-103 -340q-11 -39 -11 -48q0 -19 17.5 -25.5t64.5 -6.5v-34q-40 -15 -101 -15q-90 0 -90 66q0 7 2 21l-4 4q-85 -92 -176 -92q-50 0 -77.5 26.5t-27.5 69.5q0 22 11 59z" />
    <glyph glyph-name="yacute" unicode="&#xfd;" horiz-adv-x="489" 
d="M215 465l30 -212l22 -171h16l41 70q64 109 79 176q-49 27 -49 72q0 30 18.5 50t48.5 20q32 0 49.5 -22.5t17.5 -57.5q0 -65 -127 -263q-115 -180 -192 -255.5t-152 -75.5q-42 0 -67 22.5t-25 58.5q0 29 19.5 49.5t46.5 20.5q29 0 46 -18t17 -46q0 -19 -11 -36
q38 12 76 44.5t64 76.5l-39 212l-34 176q-6 30 -22 41t-64 14v36zM234 530l87 125q40 59 59 77.5t43 18.5q19 0 32 -13t13 -31q0 -24 -17 -43.5t-73 -63.5l-89 -70h-55z" />
    <glyph glyph-name="thorn" unicode="&#xfe;" horiz-adv-x="533" 
d="M239 404q76 66 141 66q58 0 91.5 -44t33.5 -114q0 -76 -34 -147.5t-100.5 -120.5t-148.5 -49q-46 0 -87 18l-35 -142q-4 -14 15.5 -19t71.5 -7v-36h-295v36q73 3 82 28l37 110l88 340l71 280q6 22 -14.5 33t-68.5 14v36l233 11l-85 -289zM230 36q65 0 108.5 81.5
t43.5 186.5q0 97 -69 97q-44 0 -90 -41l-69 -275q18 -49 76 -49z" />
    <glyph glyph-name="ydieresis" unicode="&#xff;" horiz-adv-x="489" 
d="M215 465l30 -212l22 -171h16l41 70q64 109 79 176q-49 27 -49 72q0 30 18.5 50t48.5 20q32 0 49.5 -22.5t17.5 -57.5q0 -65 -127 -263q-115 -180 -192 -255.5t-152 -75.5q-42 0 -67 22.5t-25 58.5q0 29 19.5 49.5t46.5 20.5q29 0 46 -18t17 -46q0 -19 -11 -36
q38 12 76 44.5t64 76.5l-39 212l-34 176q-6 30 -22 41t-64 14v36zM404 538q-23 0 -39 15.5t-16 41.5q0 36 24 62t58 26q23 0 38.5 -15t15.5 -41q0 -37 -23.5 -63t-57.5 -26zM206 538q-23 0 -39 15.5t-16 41.5q0 36 24 62t58 26q23 0 38.5 -15t15.5 -41q0 -37 -23.5 -63
t-57.5 -26z" />
    <glyph glyph-name="Amacron" unicode="&#x100;" horiz-adv-x="686" 
d="M-47 0l10 37q52 12 78.5 37t71.5 100l295 494h99l79 -558q6 -38 20 -52t62 -21l-11 -37h-305l10 37q58 4 74.5 20t11.5 58l-14 123h-220l-46 -80q-37 -64 -30 -87t64 -34l-11 -37h-238zM429 281l-29 260h-12l-150 -260h191zM338 763l18 67h261l-18 -67h-261z" />
    <glyph glyph-name="amacron" unicode="&#x101;" horiz-adv-x="554" 
d="M485 307l-52 -179q-11 -38 -11 -53q0 -20 16.5 -26t63.5 -6v-35q-45 -16 -99 -16q-44 0 -64.5 14.5t-21.5 50.5q0 12 1 18l-5 2q-40 -47 -71.5 -66t-73.5 -19q-60 0 -98.5 42t-38.5 119q0 123 86 220t183 97q73 0 106 -58l18 47l119 10zM320 424q-46 0 -86 -49t-60 -110
t-20 -109q0 -96 72 -96q45 0 92 71l69 231q-7 30 -25 46t-42 16zM227 554l18 67h261l-18 -67h-261z" />
    <glyph glyph-name="Abreve" unicode="&#x102;" horiz-adv-x="686" 
d="M-47 0l10 37q52 12 78.5 37t71.5 100l295 494h99l79 -558q6 -38 20 -52t62 -21l-11 -37h-305l10 37q58 4 74.5 20t11.5 58l-14 123h-220l-46 -80q-37 -64 -30 -87t64 -34l-11 -37h-238zM429 281l-29 260h-12l-150 -260h191zM478 747q-66 0 -97.5 42.5t-15.5 115.5h46
q2 -84 76 -84q70 0 111 84h49q-19 -74 -64 -116t-105 -42z" />
    <glyph glyph-name="abreve" unicode="&#x103;" horiz-adv-x="554" 
d="M485 307l-52 -179q-11 -38 -11 -53q0 -20 16.5 -26t63.5 -6v-35q-45 -16 -99 -16q-44 0 -64.5 14.5t-21.5 50.5q0 12 1 18l-5 2q-40 -47 -71.5 -66t-73.5 -19q-60 0 -98.5 42t-38.5 119q0 123 86 220t183 97q73 0 106 -58l18 47l119 10zM320 424q-46 0 -86 -49t-60 -110
t-20 -109q0 -96 72 -96q45 0 92 71l69 231q-7 30 -25 46t-42 16zM367 538q-66 0 -97.5 42.5t-15.5 115.5h46q2 -84 76 -84q70 0 111 84h49q-19 -74 -64 -116t-105 -42z" />
    <glyph glyph-name="Aogonek" unicode="&#x104;" horiz-adv-x="680" 
d="M446 -242q-45 0 -71 20.5t-26 55.5q0 38 33 74t112 76l31 16h-173l10 37q58 4 74.5 20t11.5 58l-14 123h-220l-46 -80q-37 -64 -30 -87t64 -34l-11 -37h-238l10 37q52 12 78.5 37t71.5 100l295 494h99l79 -558q6 -38 20 -52t62 -21l-11 -37h-71l-32 -21q-73 -44 -97 -74
t-24 -57q0 -41 51 -41q28 0 64 14l11 -29q-58 -34 -113 -34zM429 281l-29 260h-12l-150 -260h191z" />
    <glyph glyph-name="aogonek" unicode="&#x105;" horiz-adv-x="554" 
d="M501 42v-35l-49 -31q-72 -39 -98.5 -69t-26.5 -59q0 -41 51 -41q28 0 64 14l11 -29q-58 -34 -114 -34q-44 0 -70 20.5t-26 55.5q0 39 33.5 74.5t118.5 74.5l17 8h-8q-46 0 -66.5 14.5t-20.5 49.5q0 8 2 20l-6 2q-40 -47 -71.5 -66t-73.5 -19q-60 0 -98.5 42t-38.5 119
q0 123 86 220t183 97q73 0 106 -58l18 47l119 10l-58 -162l-53 -180q-11 -38 -11 -54q1 -19 17.5 -25.5t62.5 -5.5zM320 424q-46 0 -86 -49t-60 -110t-20 -109q0 -96 72 -96q45 0 92 71l69 231q-7 30 -25 46t-42 16z" />
    <glyph glyph-name="Cacute" unicode="&#x106;" horiz-adv-x="675" 
d="M423 739l87 125q40 59 59 77.5t43 18.5q19 0 32 -13t13 -31q0 -24 -17 -43.5t-73 -63.5l-89 -70h-55zM325 -16q-123 0 -194.5 75t-71.5 193q0 105 48 200.5t142 158.5t211 63q94 0 164 -49l44 49h43l-63 -244h-44q-20 106 -54 154t-90 48q-70 0 -131 -62.5t-94 -151
t-33 -174.5q0 -98 46 -147t121 -49q119 0 227 150l37 -21q-128 -193 -308 -193z" />
    <glyph glyph-name="cacute" unicode="&#x107;" horiz-adv-x="460" 
d="M255 530l87 125q40 59 59 77.5t43 18.5q19 0 32 -13t13 -31q0 -24 -17 -43.5t-73 -63.5l-89 -70h-55zM301 470q66 0 107.5 -30t41.5 -79q0 -33 -18 -54.5t-48 -21.5q-27 0 -43.5 15.5t-16.5 43.5q0 18 10.5 36t28.5 27q-16 22 -52 22q-65 0 -112 -78t-47 -176
q0 -59 27 -93t77 -34q73 0 135 81l27 -25q-81 -112 -198 -112q-83 0 -136 50.5t-53 134.5q0 112 79.5 202.5t190.5 90.5z" />
    <glyph glyph-name="Cdotaccent" unicode="&#x10a;" horiz-adv-x="675" 
d="M325 -16q-123 0 -194.5 75t-71.5 193q0 105 48 200.5t142 158.5t211 63q94 0 164 -49l44 49h43l-63 -244h-44q-20 106 -54 154t-90 48q-70 0 -131 -62.5t-94 -151t-33 -174.5q0 -98 46 -147t121 -49q119 0 227 150l37 -21q-128 -193 -308 -193zM496 747q-25 0 -41.5 16
t-16.5 45q0 39 26 67.5t62 28.5q25 0 41 -15.5t16 -44.5q0 -39 -25.5 -68t-61.5 -29z" />
    <glyph glyph-name="cdotaccent" unicode="&#x10b;" horiz-adv-x="460" 
d="M301 470q66 0 107.5 -30t41.5 -79q0 -33 -18 -54.5t-48 -21.5q-27 0 -43.5 15.5t-16.5 43.5q0 18 10.5 36t28.5 27q-16 22 -52 22q-65 0 -112 -78t-47 -176q0 -59 27 -93t77 -34q73 0 135 81l27 -25q-81 -112 -198 -112q-83 0 -136 50.5t-53 134.5q0 112 79.5 202.5
t190.5 90.5zM327 538q-25 0 -41.5 16t-16.5 45q0 39 26 67.5t62 28.5q25 0 41 -15.5t16 -44.5q0 -39 -25.5 -68t-61.5 -29z" />
    <glyph glyph-name="Ccaron" unicode="&#x10c;" horiz-adv-x="675" 
d="M445 739l-62 188h46l72 -101l126 101h53l-171 -188h-64zM325 -16q-123 0 -194.5 75t-71.5 193q0 105 48 200.5t142 158.5t211 63q94 0 164 -49l44 49h43l-63 -244h-44q-20 106 -54 154t-90 48q-70 0 -131 -62.5t-94 -151t-33 -174.5q0 -98 46 -147t121 -49q119 0 227 150
l37 -21q-128 -193 -308 -193z" />
    <glyph glyph-name="ccaron" unicode="&#x10d;" horiz-adv-x="460" 
d="M276 530l-62 188h46l72 -101l126 101h53l-171 -188h-64zM301 470q66 0 107.5 -30t41.5 -79q0 -33 -18 -54.5t-48 -21.5q-27 0 -43.5 15.5t-16.5 43.5q0 18 10.5 36t28.5 27q-16 22 -52 22q-65 0 -112 -78t-47 -176q0 -59 27 -93t77 -34q73 0 135 81l27 -25
q-81 -112 -198 -112q-83 0 -136 50.5t-53 134.5q0 112 79.5 202.5t190.5 90.5z" />
    <glyph glyph-name="Dcaron" unicode="&#x10e;" horiz-adv-x="735" 
d="M440 739l-62 188h46l72 -101l126 101h53l-171 -188h-64zM87 85l131 489q7 26 -8 35t-75 11l11 38h264q161 0 239 -74t78 -190q0 -71 -28 -146t-86 -133q-115 -115 -313 -115h-329l11 39q56 2 77.5 12t27.5 34zM215 42h85q101 0 172 71q59 59 87 152t28 176
q0 82 -41.5 128.5t-127.5 46.5h-51z" />
    <glyph glyph-name="dcaron" unicode="&#x10f;" horiz-adv-x="572" 
d="M591 697l-157 -563q-11 -40 -11 -56q0 -22 18 -29.5t65 -6.5v-35q-42 -15 -103 -15q-46 0 -66 17t-20 57v6l-7 2q-39 -44 -69.5 -63t-70.5 -19q-61 0 -100 44.5t-39 121.5q0 119 84 215.5t180 96.5q40 0 63 -13t43 -37l45 182q5 23 -16 35t-68 15v36zM316 422
q-45 0 -83.5 -46.5t-58.5 -107t-20 -112.5q0 -96 72 -96q45 0 90 64l73 243q-25 55 -73 55zM649 547l29 162q10 50 23.5 73t43.5 23q20 0 33 -13t13 -34q0 -22 -39 -93l-65 -118h-38z" />
    <glyph glyph-name="Dcroat" unicode="&#x110;" horiz-adv-x="735" 
d="M87 85l62 232h-87l14 52h87l55 205q7 26 -8 35t-75 11l11 38h264q161 0 239 -74t78 -190q0 -71 -28 -146t-86 -133q-115 -115 -313 -115h-329l11 39q56 2 77.5 12t27.5 34zM215 42h85q101 0 172 71q59 59 87 152t28 176q0 82 -41.5 128.5t-127.5 46.5h-51l-66 -247h115
l-14 -52h-114z" />
    <glyph glyph-name="dcroat" unicode="&#x111;" horiz-adv-x="567" 
d="M591 697l-30 -107h68l-12 -47h-69l-114 -409q-11 -40 -11 -56q0 -22 18 -29.5t65 -6.5v-35q-42 -15 -103 -15q-46 0 -66 17t-20 57v6l-7 2q-39 -44 -69.5 -63t-70.5 -19q-61 0 -100 44.5t-39 121.5q0 119 84 215.5t180 96.5q40 0 63 -13t43 -37l30 123h-169l12 47h169
l3 12q5 23 -16 35t-68 15v36zM316 422q-45 0 -83.5 -46.5t-58.5 -107t-20 -112.5q0 -96 72 -96q45 0 90 64l73 243q-25 55 -73 55z" />
    <glyph glyph-name="Emacron" unicode="&#x112;" horiz-adv-x="670" 
d="M146 658h562l-53 -205h-44q-4 89 -31.5 125t-107.5 36h-106l-66 -245h50q52 0 77 16.5t54 75.5h40l-63 -249h-39q2 68 -14 90.5t-65 22.5h-51l-74 -279h117q64 0 109 21t73.5 56.5t61.5 100.5h48l-63 -224h-590l11 39q56 2 77.5 12t27.5 34l131 489q7 26 -8 35t-75 11z
M339 763l18 67h261l-18 -67h-261z" />
    <glyph glyph-name="emacron" unicode="&#x113;" horiz-adv-x="465" 
d="M458 361q0 -66 -78 -109t-228 -44q-1 -11 -1 -35q0 -60 25.5 -92.5t75.5 -32.5q80 0 139 81l27 -25q-84 -112 -203 -112q-79 0 -132 47t-53 131q0 115 81.5 207.5t200.5 92.5q71 0 108.5 -30.5t37.5 -78.5zM304 427q-47 0 -89 -54t-57 -131q197 10 197 131q0 54 -51 54z
M183 554l18 67h261l-18 -67h-261z" />
    <glyph glyph-name="Ebreve" unicode="&#x114;" horiz-adv-x="670" 
d="M146 658h562l-53 -205h-44q-4 89 -31.5 125t-107.5 36h-106l-66 -245h50q52 0 77 16.5t54 75.5h40l-63 -249h-39q2 68 -14 90.5t-65 22.5h-51l-74 -279h117q64 0 109 21t73.5 56.5t61.5 100.5h48l-63 -224h-590l11 39q56 2 77.5 12t27.5 34l131 489q7 26 -8 35t-75 11z
M479 747q-66 0 -97.5 42.5t-15.5 115.5h46q2 -84 76 -84q70 0 111 84h49q-19 -74 -64 -116t-105 -42z" />
    <glyph glyph-name="ebreve" unicode="&#x115;" horiz-adv-x="465" 
d="M458 361q0 -66 -78 -109t-228 -44q-1 -11 -1 -35q0 -60 25.5 -92.5t75.5 -32.5q80 0 139 81l27 -25q-84 -112 -203 -112q-79 0 -132 47t-53 131q0 115 81.5 207.5t200.5 92.5q71 0 108.5 -30.5t37.5 -78.5zM322 538q-66 0 -97.5 42.5t-15.5 115.5h46q2 -84 76 -84
q70 0 111 84h49q-19 -74 -64 -116t-105 -42zM304 427q-47 0 -89 -54t-57 -131q197 10 197 131q0 54 -51 54z" />
    <glyph glyph-name="Edotaccent" unicode="&#x116;" horiz-adv-x="670" 
d="M146 658h562l-53 -205h-44q-4 89 -31.5 125t-107.5 36h-106l-66 -245h50q52 0 77 16.5t54 75.5h40l-63 -249h-39q2 68 -14 90.5t-65 22.5h-51l-74 -279h117q64 0 109 21t73.5 56.5t61.5 100.5h48l-63 -224h-590l11 39q56 2 77.5 12t27.5 34l131 489q7 26 -8 35t-75 11z
M481 747q-25 0 -41.5 16t-16.5 45q0 39 26 67.5t62 28.5q25 0 41 -15.5t16 -44.5q0 -39 -25.5 -68t-61.5 -29z" />
    <glyph glyph-name="edotaccent" unicode="&#x117;" horiz-adv-x="465" 
d="M458 361q0 -66 -78 -109t-228 -44q-1 -11 -1 -35q0 -60 25.5 -92.5t75.5 -32.5q80 0 139 81l27 -25q-84 -112 -203 -112q-79 0 -132 47t-53 131q0 115 81.5 207.5t200.5 92.5q71 0 108.5 -30.5t37.5 -78.5zM304 427q-47 0 -89 -54t-57 -131q197 10 197 131q0 54 -51 54z
M324 538q-25 0 -41.5 16t-16.5 45q0 39 26 67.5t62 28.5q25 0 41 -15.5t16 -44.5q0 -39 -25.5 -68t-61.5 -29z" />
    <glyph glyph-name="Eogonek" unicode="&#x118;" horiz-adv-x="674" 
d="M146 658h562l-53 -205h-44q-4 89 -31.5 125t-107.5 36h-106l-66 -245h50q52 0 77 16.5t54 75.5h40l-63 -249h-39q2 68 -14 90.5t-65 22.5h-51l-74 -279h117q64 0 109 21t73.5 56.5t61.5 100.5h48l-63 -224h-46l-32 -21q-73 -44 -97 -74t-24 -57q0 -41 51 -41q28 0 64 14
l11 -29q-58 -34 -113 -34q-45 0 -71 20.5t-26 55.5q0 38 33 74t112 76l31 16h-483l11 39q56 2 77.5 12t27.5 34l131 489q7 26 -8 35t-75 11z" />
    <glyph glyph-name="eogonek" unicode="&#x119;" horiz-adv-x="465" 
d="M30 170q0 115 81.5 207.5t200.5 92.5q71 0 108.5 -30.5t37.5 -78.5q0 -66 -78 -109t-228 -44q-1 -11 -1 -35q0 -60 25.5 -92.5t75.5 -32.5q80 0 139 81l27 -25q-41 -52 -94 -87l-65 -43q-66 -43 -87 -71.5t-21 -54.5q0 -41 51 -41q28 0 64 14l11 -29q-58 -34 -114 -34
q-44 0 -70 20.5t-26 55.5q0 38 32.5 74t111.5 76l15 8h-11q-79 0 -132 47t-53 131zM304 427q-47 0 -89 -54t-57 -131q197 10 197 131q0 54 -51 54z" />
    <glyph glyph-name="Ecaron" unicode="&#x11a;" horiz-adv-x="670" 
d="M430 739l-62 188h46l72 -101l126 101h53l-171 -188h-64zM146 658h562l-53 -205h-44q-4 89 -31.5 125t-107.5 36h-106l-66 -245h50q52 0 77 16.5t54 75.5h40l-63 -249h-39q2 68 -14 90.5t-65 22.5h-51l-74 -279h117q64 0 109 21t73.5 56.5t61.5 100.5h48l-63 -224h-590
l11 39q56 2 77.5 12t27.5 34l131 489q7 26 -8 35t-75 11z" />
    <glyph glyph-name="ecaron" unicode="&#x11b;" horiz-adv-x="465" 
d="M458 361q0 -66 -78 -109t-228 -44q-1 -11 -1 -35q0 -60 25.5 -92.5t75.5 -32.5q80 0 139 81l27 -25q-84 -112 -203 -112q-79 0 -132 47t-53 131q0 115 81.5 207.5t200.5 92.5q71 0 108.5 -30.5t37.5 -78.5zM274 530l-62 188h46l72 -101l126 101h53l-171 -188h-64z
M304 427q-47 0 -89 -54t-57 -131q197 10 197 131q0 54 -51 54z" />
    <glyph glyph-name="Gbreve" unicode="&#x11e;" horiz-adv-x="710" 
d="M711 674l-60 -231h-44q-25 102 -57.5 145.5t-87.5 43.5q-71 0 -132.5 -64t-94.5 -156t-33 -182q0 -97 41.5 -150t112.5 -53q58 0 102 34l42 161q7 28 -10.5 40t-75.5 14l11 39h297l-11 -39q-41 -2 -56.5 -11t-22.5 -35l-46 -178q-124 -68 -246 -68q-135 0 -208 76
t-73 194q0 104 48 199t142 158t211 63q92 0 165 -48l43 48h43zM494 747q-66 0 -97.5 42.5t-15.5 115.5h46q2 -84 76 -84q70 0 111 84h49q-19 -74 -64 -116t-105 -42z" />
    <glyph glyph-name="gbreve" unicode="&#x11f;" horiz-adv-x="535" 
d="M178 8q-66 0 -106 42t-40 116q0 111 80.5 207.5t187.5 96.5q69 0 103 -65l19 54l120 10l-58 -162l-88 -314q-29 -104 -87 -150.5t-172 -46.5q-81 0 -124.5 30t-43.5 71q0 32 21.5 54t51.5 22q28 0 44 -16.5t16 -40.5q0 -33 -29 -52q13 -29 67 -29q58 0 94 45t62 151l7 28
l-7 2q-53 -53 -118 -53zM316 422q-49 0 -87.5 -48.5t-56 -105.5t-17.5 -102q0 -101 72 -101q45 0 87 49l71 241q-20 67 -69 67zM353 538q-66 0 -97.5 42.5t-15.5 115.5h46q2 -84 76 -84q70 0 111 84h49q-19 -74 -64 -116t-105 -42z" />
    <glyph glyph-name="Gdotaccent" unicode="&#x120;" horiz-adv-x="710" 
d="M711 674l-60 -231h-44q-25 102 -57.5 145.5t-87.5 43.5q-71 0 -132.5 -64t-94.5 -156t-33 -182q0 -97 41.5 -150t112.5 -53q58 0 102 34l42 161q7 28 -10.5 40t-75.5 14l11 39h297l-11 -39q-41 -2 -56.5 -11t-22.5 -35l-46 -178q-124 -68 -246 -68q-135 0 -208 76
t-73 194q0 104 48 199t142 158t211 63q92 0 165 -48l43 48h43zM496 747q-25 0 -41.5 16t-16.5 45q0 39 26 67.5t62 28.5q25 0 41 -15.5t16 -44.5q0 -39 -25.5 -68t-61.5 -29z" />
    <glyph glyph-name="gdotaccent" unicode="&#x121;" horiz-adv-x="535" 
d="M178 8q-66 0 -106 42t-40 116q0 111 80.5 207.5t187.5 96.5q69 0 103 -65l19 54l120 10l-58 -162l-88 -314q-29 -104 -87 -150.5t-172 -46.5q-81 0 -124.5 30t-43.5 71q0 32 21.5 54t51.5 22q28 0 44 -16.5t16 -40.5q0 -33 -29 -52q13 -29 67 -29q58 0 94 45t62 151l7 28
l-7 2q-53 -53 -118 -53zM316 422q-49 0 -87.5 -48.5t-56 -105.5t-17.5 -102q0 -101 72 -101q45 0 87 49l71 241q-20 67 -69 67zM355 538q-25 0 -41.5 16t-16.5 45q0 39 26 67.5t62 28.5q25 0 41 -15.5t16 -44.5q0 -39 -25.5 -68t-61.5 -29z" />
    <glyph glyph-name="Gcommaaccent" unicode="&#x122;" horiz-adv-x="710" 
d="M153 -335l-12 31q113 46 130 96l-5 4q-27 2 -44.5 18.5t-17.5 41.5q0 28 20 48t48 20q30 0 50.5 -22.5t20.5 -57.5q0 -54 -46 -101t-144 -78zM711 674l-60 -231h-44q-25 102 -57.5 145.5t-87.5 43.5q-71 0 -132.5 -64t-94.5 -156t-33 -182q0 -97 41.5 -150t112.5 -53
q58 0 102 34l42 161q7 28 -10.5 40t-75.5 14l11 39h297l-11 -39q-41 -2 -56.5 -11t-22.5 -35l-46 -178q-124 -68 -246 -68q-135 0 -208 76t-73 194q0 104 48 199t142 158t211 63q92 0 165 -48l43 48h43z" />
    <glyph glyph-name="gcommaaccent" unicode="&#x123;" horiz-adv-x="535" 
d="M475 814l12 -31q-113 -46 -130 -96l5 -4q27 -2 44.5 -18.5t17.5 -41.5q0 -28 -20 -48t-48 -20q-30 0 -50.5 22.5t-20.5 57.5q0 54 46 101t144 78zM178 8q-66 0 -106 42t-40 116q0 111 80.5 207.5t187.5 96.5q69 0 103 -65l19 54l120 10l-58 -162l-88 -314
q-29 -104 -87 -150.5t-172 -46.5q-81 0 -124.5 30t-43.5 71q0 32 21.5 54t51.5 22q28 0 44 -16.5t16 -40.5q0 -33 -29 -52q13 -29 67 -29q58 0 94 45t62 151l7 28l-7 2q-53 -53 -118 -53zM316 422q-49 0 -87.5 -48.5t-56 -105.5t-17.5 -102q0 -101 72 -101q45 0 87 49
l71 241q-20 67 -69 67z" />
    <glyph glyph-name="Hbar" unicode="&#x126;" horiz-adv-x="794" 
d="M814 461h-85l-100 -376q-7 -27 8.5 -35.5t74.5 -10.5l-11 -39h-316l11 39q53 2 70 11t25 35l62 227h-266l-62 -227q-8 -28 5.5 -36t71.5 -10l-11 -39h-320l11 39q56 2 77.5 12t27.5 34l100 376h-84l13 48h84l18 65q7 26 -8 35t-75 11l11 38h316l-11 -38q-53 -2 -70.5 -11
t-24.5 -35l-18 -65h266l18 65q8 27 -5.5 35.5t-71.5 10.5l11 38h320l-11 -38q-55 -2 -77 -12.5t-28 -33.5l-18 -65h85zM297 356h266l28 105h-266z" />
    <glyph glyph-name="hbar" unicode="&#x127;" horiz-adv-x="591" 
d="M505 312l-62 -190q-11 -33 -11 -48q0 -19 18 -26t65 -6v-35q-43 -15 -107 -15q-92 0 -92 68q0 23 10 50l59 182q9 27 9 50q0 50 -54 50q-49 0 -115 -49l-84 -343h-131l55 162l97 381h-68l12 47h67l4 13q5 22 -15 33t-68 14v36l233 11l-32 -107h166l-12 -47h-168l-44 -152
l4 -4q96 80 174 80q47 0 74 -25.5t27 -70.5q0 -24 -11 -59z" />
    <glyph glyph-name="Imacron" unicode="&#x12a;" horiz-adv-x="410" 
d="M471 620q-55 -2 -77 -12.5t-28 -33.5l-131 -489q-7 -27 8.5 -35.5t74.5 -10.5l-11 -39h-326l11 39q56 2 77.5 12t27.5 34l131 489q7 26 -8 35t-75 11l11 38h326zM207 763l18 67h261l-18 -67h-261z" />
    <glyph glyph-name="imacron" unicode="&#x12b;" horiz-adv-x="323" 
d="M261 43v-35q-48 -16 -106 -16q-104 0 -104 78q0 22 9 47l80 253q8 22 -7.5 33t-64.5 14v36l219 11l-109 -342q-9 -28 -9 -44q0 -21 20.5 -29t71.5 -6zM93 554l18 67h261l-18 -67h-261z" />
    <glyph glyph-name="Ibreve" unicode="&#x12c;" horiz-adv-x="410" 
d="M471 620q-55 -2 -77 -12.5t-28 -33.5l-131 -489q-7 -27 8.5 -35.5t74.5 -10.5l-11 -39h-326l11 39q56 2 77.5 12t27.5 34l131 489q7 26 -8 35t-75 11l11 38h326zM347 747q-66 0 -97.5 42.5t-15.5 115.5h46q2 -84 76 -84q70 0 111 84h49q-19 -74 -64 -116t-105 -42z" />
    <glyph glyph-name="ibreve" unicode="&#x12d;" horiz-adv-x="323" 
d="M261 43v-35q-48 -16 -106 -16q-104 0 -104 78q0 22 9 47l80 253q8 22 -7.5 33t-64.5 14v36l219 11l-109 -342q-9 -28 -9 -44q0 -21 20.5 -29t71.5 -6zM233 538q-66 0 -97.5 42.5t-15.5 115.5h46q2 -84 76 -84q70 0 111 84h49q-19 -74 -64 -116t-105 -42z" />
    <glyph glyph-name="Iogonek" unicode="&#x12e;" horiz-adv-x="416" 
d="M69 -242q-45 0 -71 20.5t-26 55.5q0 38 33 74t112 76l31 16h-167l11 39q56 2 77.5 12t27.5 34l131 489q7 26 -8 35t-75 11l11 38h326l-11 -38q-55 -2 -77 -12.5t-28 -33.5l-131 -489q-7 -27 8.5 -35.5t74.5 -10.5l-11 -39h-98l-32 -21q-73 -44 -97 -74t-24 -57
q0 -41 51 -41q28 0 64 14l11 -29q-58 -34 -113 -34z" />
    <glyph glyph-name="iogonek" unicode="&#x12f;" horiz-adv-x="323" 
d="M152 -13l13 6h-9q-48 0 -74 20t-26 57q0 20 8 47l81 253q7 23 -8 33.5t-64 13.5v36l218 11l-108 -342q-10 -32 -10 -44q0 -21 20.5 -29t71.5 -6v-35l-23 -14q-72 -33 -116.5 -71.5t-44.5 -74.5q0 -41 50 -41q28 0 64 14l11 -29q-58 -34 -113 -34q-44 0 -70.5 20.5
t-26.5 55.5q0 39 34.5 76t121.5 77zM257 562q-25 0 -41.5 16t-16.5 45q0 39 25.5 67.5t62.5 28.5q25 0 41 -15t16 -44q0 -40 -25.5 -69t-61.5 -29z" />
    <glyph glyph-name="Idotaccent" unicode="&#x130;" horiz-adv-x="410" 
d="M471 620q-55 -2 -77 -12.5t-28 -33.5l-131 -489q-7 -27 8.5 -35.5t74.5 -10.5l-11 -39h-326l11 39q56 2 77.5 12t27.5 34l131 489q7 26 -8 35t-75 11l11 38h326zM349 747q-25 0 -41.5 16t-16.5 45q0 39 26 67.5t62 28.5q25 0 41 -15.5t16 -44.5q0 -39 -25.5 -68
t-61.5 -29z" />
    <glyph glyph-name="dotlessi" unicode="&#x131;" horiz-adv-x="320" 
d="M261 43v-35q-48 -16 -106 -16q-104 0 -104 78q0 22 9 47l80 253q8 22 -7.5 33t-64.5 14v36l219 11l-109 -342q-9 -28 -9 -44q0 -21 20.5 -29t71.5 -6z" />
    <glyph glyph-name="Kcommaaccent" unicode="&#x136;" horiz-adv-x="741" 
d="M175 -335l-12 31q113 46 130 96l-5 4q-27 2 -44.5 18.5t-17.5 41.5q0 28 20 48t48 20q30 0 50.5 -22.5t20.5 -57.5q0 -54 -46 -101t-144 -78zM817 658l-10 -36q-56 -13 -98.5 -37t-113.5 -80l-137 -108l123 -277q17 -40 38 -56.5t72 -26.5l-10 -37h-312l10 36
q51 5 63.5 23t-3.5 49l-86 205l-85 -67l-43 -161q-8 -28 4.5 -36t66.5 -10l-11 -39h-314l11 39q56 2 77.5 12t27.5 34l131 489q7 26 -8 35t-75 11l11 38h316l-11 -38q-53 -2 -70.5 -11t-24.5 -35l-70 -261l262 214q51 42 50 64t-53 31l10 36h262z" />
    <glyph glyph-name="kcommaaccent" unicode="&#x137;" horiz-adv-x="538" 
d="M56 -335l-12 31q113 46 130 96l-5 4q-27 2 -44.5 18.5t-17.5 41.5q0 28 20 48t48 20q30 0 50.5 -22.5t20.5 -57.5q0 -54 -46 -101t-144 -78zM327 697l-120 -425h41q24 0 46 31t39 68t50 68t76 31q34 0 54.5 -20.5t20.5 -49.5q0 -34 -20 -56.5t-49 -22.5q-56 0 -56 52
q0 24 12 41q-24 -5 -40.5 -30t-35 -60.5t-39.5 -55.5v-6q63 -4 90.5 -29.5t27.5 -72.5q0 -13 -3 -40.5t-3 -44.5q0 -18 15 -26t65 -7v-34q-42 -15 -107 -15q-55 0 -75 16.5t-20 53.5q0 20 4 56t4 46q0 40 -18 58t-61 18h-25l-59 -241h-131l55 162l112 441q6 22 -14.5 33
t-68.5 14v36z" />
    <glyph glyph-name="Lacute" unicode="&#x139;" horiz-adv-x="621" 
d="M289 738l87 125q40 59 59 77.5t43 18.5q19 0 32 -13t13 -31q0 -24 -17 -43.5t-73 -63.5l-89 -70h-55zM356 574l-141 -530h61q69 0 116 21.5t80.5 61t76.5 114.5h49l-69 -241h-557l11 39q55 2 76.5 12t27.5 34l131 489q7 26 -8 35t-75 11l11 38h326l-11 -38
q-55 -2 -77 -12.5t-28 -33.5z" />
    <glyph glyph-name="lacute" unicode="&#x13a;" horiz-adv-x="309" 
d="M222 764l87 125q40 59 59 77.5t43 18.5q19 0 32 -13t13 -31q0 -24 -17 -43.5t-73 -63.5l-89 -70h-55zM335 697l-165 -579q-8 -27 -8 -40q0 -21 20 -27.5t74 -4.5v-35q-57 -19 -107 -19q-104 0 -104 80q0 21 8 50l101 336l38 145q6 22 -14 33t-68 14v36z" />
    <glyph glyph-name="Lcommaaccent" unicode="&#x13b;" horiz-adv-x="621" 
d="M133 -335l-12 31q113 46 130 96l-5 4q-27 2 -44.5 18.5t-17.5 41.5q0 28 20 48t48 20q30 0 50.5 -22.5t20.5 -57.5q0 -54 -46 -101t-144 -78zM356 574l-141 -530h61q69 0 116 21.5t80.5 61t76.5 114.5h49l-69 -241h-557l11 39q55 2 76.5 12t27.5 34l131 489q7 26 -8 35
t-75 11l11 38h326l-11 -38q-55 -2 -77 -12.5t-28 -33.5z" />
    <glyph glyph-name="lcommaaccent" unicode="&#x13c;" horiz-adv-x="309" 
d="M-34 -335l-12 31q113 46 130 96l-5 4q-27 2 -44.5 18.5t-17.5 41.5q0 28 20 48t48 20q30 0 50.5 -22.5t20.5 -57.5q0 -54 -46 -101t-144 -78zM335 697l-165 -579q-8 -27 -8 -40q0 -21 20 -27.5t74 -4.5v-35q-57 -19 -107 -19q-104 0 -104 80q0 21 8 50l101 336l38 145
q6 22 -14 33t-68 14v36z" />
    <glyph glyph-name="Lcaron" unicode="&#x13d;" horiz-adv-x="621" 
d="M524 537l29 162q10 50 23.5 73t43.5 23q20 0 33 -13t13 -34q0 -22 -39 -93l-65 -118h-38zM356 574l-141 -530h61q69 0 116 21.5t80.5 61t76.5 114.5h49l-69 -241h-557l11 39q55 2 76.5 12t27.5 34l131 489q7 26 -8 35t-75 11l11 38h326l-11 -38q-55 -2 -77 -12.5
t-28 -33.5z" />
    <glyph glyph-name="lcaron" unicode="&#x13e;" horiz-adv-x="309" 
d="M390 547l29 162q10 50 23.5 73t43.5 23q20 0 33 -13t13 -34q0 -22 -39 -93l-65 -118h-38zM335 697l-165 -579q-8 -27 -8 -40q0 -21 20 -27.5t74 -4.5v-35q-57 -19 -107 -19q-104 0 -104 80q0 21 8 50l101 336l38 145q6 22 -14 33t-68 14v36z" />
    <glyph glyph-name="Ldot" unicode="&#x13f;" horiz-adv-x="621" 
d="M-29 0l11 39q56 2 77.5 12t27.5 34l131 489q7 26 -8 35t-75 11l10 38h326l-10 -38q-55 -2 -77 -12.5t-28 -33.5l-141 -530h61q68 0 115.5 20.5t79 56t73.5 103.5h49l-64 -224h-558zM527 284q-25 0 -41.5 16t-16.5 45q0 39 26 67.5t62 28.5q25 0 41 -15.5t16 -44.5
q0 -39 -25.5 -68t-61.5 -29z" />
    <glyph glyph-name="ldot" unicode="&#x140;" horiz-adv-x="382" 
d="M355 272q-23 0 -38.5 15t-15.5 42q0 36 24.5 63.5t57.5 27.5q24 0 39 -15t15 -42q0 -37 -24 -64t-58 -27zM335 697l-165 -579q-8 -27 -8 -40q0 -21 20 -27.5t74 -4.5v-35q-57 -19 -107 -19q-104 0 -104 80q0 21 8 50l101 336l38 145q6 22 -14 33t-68 14v36z" />
    <glyph glyph-name="Lslash" unicode="&#x141;" horiz-adv-x="621" 
d="M356 574l-54 -201l139 34l1 -50l-154 -38l-73 -275h61q69 0 116 21.5t80.5 61t76.5 114.5h49l-69 -241h-557l11 39q55 2 76.5 12t27.5 34l53 198l-81 -20v51l95 23l64 237q7 26 -8 35t-75 11l11 38h326l-11 -38q-55 -2 -77 -12.5t-28 -33.5z" />
    <glyph glyph-name="lslash" unicode="&#x142;" horiz-adv-x="349" 
d="M354 697l-87 -306l89 21l-1 -49l-103 -24l-63 -221q-8 -27 -8 -40q0 -21 20 -27.5t74 -4.5v-35q-57 -19 -107 -19q-104 0 -104 80q0 21 8 50l56 188l-83 -19l1 49l98 23l29 95l38 145q6 22 -14 33t-68 14v36z" />
    <glyph glyph-name="Nacute" unicode="&#x143;" horiz-adv-x="775" 
d="M457 739l87 125q40 59 59 77.5t43 18.5q19 0 32 -13t13 -31q0 -24 -17 -43.5t-73 -63.5l-89 -70h-55zM369 658l210 -492h6l86 322q20 70 5.5 98t-78.5 35l10 37h255l-10 -37q-60 -7 -84.5 -35t-44.5 -105l-132 -492h-85l-231 534h-6l-94 -352q-20 -70 -6 -98.5t78 -35.5
l-11 -37h-258l10 37q61 7 87.5 36t46.5 105l97 362q10 38 -4.5 58t-69.5 22l11 38h212z" />
    <glyph glyph-name="nacute" unicode="&#x144;" horiz-adv-x="560" 
d="M290 530l87 125q40 59 59 77.5t43 18.5q19 0 32 -13t13 -31q0 -24 -17 -43.5t-73 -63.5l-89 -70h-55zM67 162l57 208q6 24 -5 34.5t-55 13.5v36l198 10l-24 -73l4 -4q96 80 175 80q46 0 72.5 -25t26.5 -69q0 -26 -11 -61l-62 -190q-11 -33 -11 -48q0 -19 18 -26t65 -6
v-35q-43 -15 -107 -15q-92 0 -92 68q0 23 10 50l59 182q10 30 10 51q0 49 -54 49q-49 0 -115 -49l-83 -343h-131z" />
    <glyph glyph-name="Ncommaaccent" unicode="&#x145;" horiz-adv-x="775" 
d="M191 -335l-12 31q113 46 130 96l-5 4q-27 2 -44.5 18.5t-17.5 41.5q0 28 20 48t48 20q30 0 50.5 -22.5t20.5 -57.5q0 -54 -46 -101t-144 -78zM369 658l210 -492h6l86 322q20 70 5.5 98t-78.5 35l10 37h255l-10 -37q-60 -7 -84.5 -35t-44.5 -105l-132 -492h-85l-231 534
h-6l-94 -352q-20 -70 -6 -98.5t78 -35.5l-11 -37h-258l10 37q61 7 87.5 36t46.5 105l97 362q10 38 -4.5 58t-69.5 22l11 38h212z" />
    <glyph glyph-name="ncommaaccent" unicode="&#x146;" horiz-adv-x="560" 
d="M75 -335l-12 31q113 46 130 96l-5 4q-27 2 -44.5 18.5t-17.5 41.5q0 28 20 48t48 20q30 0 50.5 -22.5t20.5 -57.5q0 -54 -46 -101t-144 -78zM67 162l57 208q6 24 -5 34.5t-55 13.5v36l198 10l-24 -73l4 -4q96 80 175 80q46 0 72.5 -25t26.5 -69q0 -26 -11 -61l-62 -190
q-11 -33 -11 -48q0 -19 18 -26t65 -6v-35q-43 -15 -107 -15q-92 0 -92 68q0 23 10 50l59 182q10 30 10 51q0 49 -54 49q-49 0 -115 -49l-83 -343h-131z" />
    <glyph glyph-name="Ncaron" unicode="&#x147;" horiz-adv-x="775" 
d="M479 739l-62 188h46l72 -101l126 101h53l-171 -188h-64zM369 658l210 -492h6l86 322q20 70 5.5 98t-78.5 35l10 37h255l-10 -37q-60 -7 -84.5 -35t-44.5 -105l-132 -492h-85l-231 534h-6l-94 -352q-20 -70 -6 -98.5t78 -35.5l-11 -37h-258l10 37q61 7 87.5 36t46.5 105
l97 362q10 38 -4.5 58t-69.5 22l11 38h212z" />
    <glyph glyph-name="ncaron" unicode="&#x148;" horiz-adv-x="560" 
d="M311 530l-62 188h46l72 -101l126 101h53l-171 -188h-64zM67 162l57 208q6 24 -5 34.5t-55 13.5v36l198 10l-24 -73l4 -4q96 80 175 80q46 0 72.5 -25t26.5 -69q0 -26 -11 -61l-62 -190q-11 -33 -11 -48q0 -19 18 -26t65 -6v-35q-43 -15 -107 -15q-92 0 -92 68q0 23 10 50
l59 182q10 30 10 51q0 49 -54 49q-49 0 -115 -49l-83 -343h-131z" />
    <glyph glyph-name="Omacron" unicode="&#x14c;" horiz-adv-x="734" 
d="M369 763l18 67h261l-18 -67h-261zM327 -16q-121 0 -194.5 76t-73.5 192q0 78 28.5 153.5t78.5 135.5t126.5 96.5t165.5 36.5q121 0 195 -76t74 -191q0 -106 -47.5 -201.5t-141 -158.5t-211.5 -63zM325 27q73 0 135.5 72.5t95 171.5t32.5 190q0 81 -33.5 126t-94.5 45
q-72 0 -134.5 -72.5t-95.5 -172t-33 -189.5q0 -81 33.5 -126t94.5 -45z" />
    <glyph glyph-name="omacron" unicode="&#x14d;" horiz-adv-x="514" 
d="M199 554l18 67h261l-18 -67h-261zM305 470q81 0 130.5 -51.5t49.5 -130.5q0 -75 -31 -141t-95.5 -110.5t-149.5 -44.5q-81 0 -130 51.5t-49 130.5q0 117 75 206.5t200 89.5zM214 31q45 0 82 53.5t54.5 122t17.5 129.5q0 95 -67 95q-44 0 -81 -53.5t-55 -122.5t-18 -129
q0 -95 67 -95z" />
    <glyph glyph-name="Obreve" unicode="&#x14e;" horiz-adv-x="734" 
d="M327 -16q-121 0 -194.5 76t-73.5 192q0 78 28.5 153.5t78.5 135.5t126.5 96.5t165.5 36.5q121 0 195 -76t74 -191q0 -106 -47.5 -201.5t-141 -158.5t-211.5 -63zM325 27q73 0 135.5 72.5t95 171.5t32.5 190q0 81 -33.5 126t-94.5 45q-72 0 -134.5 -72.5t-95.5 -172
t-33 -189.5q0 -81 33.5 -126t94.5 -45zM509 747q-66 0 -97.5 42.5t-15.5 115.5h46q2 -84 76 -84q70 0 111 84h49q-19 -74 -64 -116t-105 -42z" />
    <glyph glyph-name="obreve" unicode="&#x14f;" horiz-adv-x="514" 
d="M305 470q81 0 130.5 -51.5t49.5 -130.5q0 -75 -31 -141t-95.5 -110.5t-149.5 -44.5q-81 0 -130 51.5t-49 130.5q0 117 75 206.5t200 89.5zM214 31q45 0 82 53.5t54.5 122t17.5 129.5q0 95 -67 95q-44 0 -81 -53.5t-55 -122.5t-18 -129q0 -95 67 -95zM339 538
q-66 0 -97.5 42.5t-15.5 115.5h46q2 -84 76 -84q70 0 111 84h49q-19 -74 -64 -116t-105 -42z" />
    <glyph glyph-name="Ohungarumlaut" unicode="&#x150;" horiz-adv-x="734" 
d="M362 739l83 125q37 58 56 77t42 19q19 0 32.5 -13t13.5 -31q0 -19 -17 -39t-69 -66l-86 -72h-55zM545 739l82 125q39 59 57 77.5t41 18.5q20 0 33 -13t13 -31q0 -20 -17 -40t-69 -65l-85 -72h-55zM327 -16q-121 0 -194.5 76t-73.5 192q0 78 28.5 153.5t78.5 135.5
t126.5 96.5t165.5 36.5q121 0 195 -76t74 -191q0 -106 -47.5 -201.5t-141 -158.5t-211.5 -63zM325 27q73 0 135.5 72.5t95 171.5t32.5 190q0 81 -33.5 126t-94.5 45q-72 0 -134.5 -72.5t-95.5 -172t-33 -189.5q0 -81 33.5 -126t94.5 -45z" />
    <glyph glyph-name="ohungarumlaut" unicode="&#x151;" horiz-adv-x="514" 
d="M192 530l83 125q37 58 56 77t42 19q19 0 32.5 -13t13.5 -31q0 -19 -17 -39t-69 -66l-86 -72h-55zM375 530l82 125q39 59 57 77.5t41 18.5q20 0 33 -13t13 -31q0 -20 -17 -40t-69 -65l-85 -72h-55zM305 470q81 0 130.5 -51.5t49.5 -130.5q0 -75 -31 -141t-95.5 -110.5
t-149.5 -44.5q-81 0 -130 51.5t-49 130.5q0 117 75 206.5t200 89.5zM214 31q45 0 82 53.5t54.5 122t17.5 129.5q0 95 -67 95q-44 0 -81 -53.5t-55 -122.5t-18 -129q0 -95 67 -95z" />
    <glyph glyph-name="OE" unicode="&#x152;" horiz-adv-x="1014" 
d="M904 0h-527q-161 0 -239 74.5t-78 189.5q0 71 28 146.5t86 132.5q115 115 313 115h564l-53 -205h-44q-4 90 -31 125.5t-107 35.5h-106l-66 -245h50q52 0 77 16.5t54 75.5h40l-64 -249h-39q2 68 -14 90.5t-65 22.5h-50l-74 -279h117q93 0 143.5 40.5t99.5 137.5h48z
M572 614h-85q-100 0 -172 -70q-59 -59 -87 -151.5t-28 -174.5t41.5 -128t127.5 -46h51z" />
    <glyph glyph-name="oe" unicode="&#x153;" horiz-adv-x="788" 
d="M634 470q71 0 108.5 -30.5t37.5 -78.5q0 -66 -78 -109t-228 -44q-1 -11 -1 -35q0 -60 25.5 -92.5t75.5 -32.5q80 0 139 81l27 -25q-84 -112 -203 -112q-98 0 -144 75q-75 -75 -183 -75q-81 0 -130.5 51.5t-49.5 130.5q0 75 31 141t95.5 110.5t149.5 44.5q96 0 144 -81
q76 81 184 81zM214 31q45 0 82 53.5t54.5 122t17.5 129.5q0 95 -67 95q-44 0 -81 -53.5t-55 -122.5t-18 -129q0 -45 17 -70t50 -25zM626 427q-47 0 -89 -54t-57 -131q197 10 197 131q0 54 -51 54z" />
    <glyph glyph-name="Racute" unicode="&#x154;" horiz-adv-x="685" 
d="M405 739l87 125q40 59 59 77.5t43 18.5q19 0 32 -13t13 -31q0 -24 -17 -43.5t-73 -63.5l-89 -70h-55zM296 351h63q85 0 131 48t46 118q0 99 -121 99h-48zM135 620l11 38h295q124 0 181 -40.5t57 -109.5q0 -65 -60 -114t-165 -61l-1 -4q83 -12 110 -45t25 -109l-2 -72
q-1 -39 15 -52.5t68 -17.5l-10 -39q-2 0 -28.5 -0.5t-38.5 -0.5q-101 0 -128.5 26t-21.5 97l6 72q6 69 -14 95.5t-90 26.5h-59l-60 -225q-7 -27 7.5 -35.5t73.5 -10.5l-11 -39h-324l11 39q56 2 77.5 12t27.5 34l131 489q7 26 -8 35t-75 11z" />
    <glyph glyph-name="racute" unicode="&#x155;" horiz-adv-x="449" 
d="M238 530l87 125q40 59 59 77.5t43 18.5q19 0 32 -13t13 -31q0 -24 -17 -43.5t-73 -63.5l-89 -70h-55zM388 467q34 0 55 -22t21 -52q0 -40 -20.5 -64.5t-53.5 -24.5q-28 0 -44.5 14.5t-16.5 41.5q0 22 9 38q-68 -17 -118 -83l-77 -315h-131l55 162l57 208q6 24 -5 34.5
t-55 13.5v36l198 10l-25 -85l4 -4q77 92 147 92z" />
    <glyph glyph-name="Rcommaaccent" unicode="&#x156;" horiz-adv-x="685" 
d="M156 -335l-12 31q113 46 130 96l-5 4q-27 2 -44.5 18.5t-17.5 41.5q0 28 20 48t48 20q30 0 50.5 -22.5t20.5 -57.5q0 -54 -46 -101t-144 -78zM296 351h63q85 0 131 48t46 118q0 99 -121 99h-48zM135 620l11 38h295q124 0 181 -40.5t57 -109.5q0 -65 -60 -114t-165 -61
l-1 -4q83 -12 110 -45t25 -109l-2 -72q-1 -39 15 -52.5t68 -17.5l-10 -39q-2 0 -28.5 -0.5t-38.5 -0.5q-101 0 -128.5 26t-21.5 97l6 72q6 69 -14 95.5t-90 26.5h-59l-60 -225q-7 -27 7.5 -35.5t73.5 -10.5l-11 -39h-324l11 39q56 2 77.5 12t27.5 34l131 489q7 26 -8 35
t-75 11z" />
    <glyph glyph-name="rcommaaccent" unicode="&#x157;" horiz-adv-x="449" 
d="M-72 -335l-12 31q113 46 130 96l-5 4q-27 2 -44.5 18.5t-17.5 41.5q0 28 20 48t48 20q30 0 50.5 -22.5t20.5 -57.5q0 -54 -46 -101t-144 -78zM388 467q34 0 55 -22t21 -52q0 -40 -20.5 -64.5t-53.5 -24.5q-28 0 -44.5 14.5t-16.5 41.5q0 22 9 38q-68 -17 -118 -83
l-77 -315h-131l55 162l57 208q6 24 -5 34.5t-55 13.5v36l198 10l-25 -85l4 -4q77 92 147 92z" />
    <glyph glyph-name="Rcaron" unicode="&#x158;" horiz-adv-x="685" 
d="M427 739l-62 188h46l72 -101l126 101h53l-171 -188h-64zM296 351h63q85 0 131 48t46 118q0 99 -121 99h-48zM135 620l11 38h295q124 0 181 -40.5t57 -109.5q0 -65 -60 -114t-165 -61l-1 -4q83 -12 110 -45t25 -109l-2 -72q-1 -39 15 -52.5t68 -17.5l-10 -39
q-2 0 -28.5 -0.5t-38.5 -0.5q-101 0 -128.5 26t-21.5 97l6 72q6 69 -14 95.5t-90 26.5h-59l-60 -225q-7 -27 7.5 -35.5t73.5 -10.5l-11 -39h-324l11 39q56 2 77.5 12t27.5 34l131 489q7 26 -8 35t-75 11z" />
    <glyph glyph-name="rcaron" unicode="&#x159;" horiz-adv-x="449" 
d="M260 530l-62 188h46l72 -101l126 101h53l-171 -188h-64zM388 467q34 0 55 -22t21 -52q0 -40 -20.5 -64.5t-53.5 -24.5q-28 0 -44.5 14.5t-16.5 41.5q0 22 9 38q-68 -17 -118 -83l-77 -315h-131l55 162l57 208q6 24 -5 34.5t-55 13.5v36l198 10l-25 -85l4 -4q77 92 147 92
z" />
    <glyph glyph-name="Sacute" unicode="&#x15a;" horiz-adv-x="559" 
d="M353 739l87 125q40 59 59 77.5t43 18.5q19 0 32 -13t13 -31q0 -24 -17 -43.5t-73 -63.5l-89 -70h-55zM-3 -19l56 223h42q40 -101 82.5 -139t99.5 -38q59 0 92 35.5t33 85.5q0 41 -27 71t-92 60q-83 38 -118 77.5t-35 102.5q0 86 69.5 150.5t179.5 64.5q79 0 144 -42
l40 46h42l-51 -214h-41q-36 97 -68 132t-84 35q-51 0 -83 -33.5t-32 -81.5q0 -10 2 -19t4 -16t8.5 -15t10 -13t14 -12.5t15 -10.5t18.5 -11t19 -10.5l22 -11t22 -11.5q67 -34 100 -73.5t33 -100.5q0 -94 -64.5 -161t-185.5 -67q-101 0 -179 46l-46 -49h-42z" />
    <glyph glyph-name="sacute" unicode="&#x15b;" horiz-adv-x="431" 
d="M235 530l87 125q40 59 59 77.5t43 18.5q19 0 32 -13t13 -31q0 -24 -17 -43.5t-73 -63.5l-89 -70h-55zM183 -8q-73 0 -122.5 27t-49.5 72q0 27 17 45t44 18q24 0 40 -14t16 -39q0 -26 -20 -46q22 -24 77 -24q42 0 66.5 20.5t24.5 51.5q0 27 -18 44t-70 41q-57 26 -84 54.5
t-27 71.5q0 64 52 110t134 46q66 0 110 -28t44 -71q0 -26 -15.5 -42.5t-42.5 -16.5q-23 0 -39.5 14t-16.5 35q0 29 20 48q-18 22 -63 22q-38 0 -60 -19.5t-22 -48.5q0 -25 18.5 -43.5t71.5 -43.5q58 -27 83 -55.5t25 -71.5q0 -64 -51 -110.5t-142 -46.5z" />
    <glyph glyph-name="Scedilla" unicode="&#x15e;" horiz-adv-x="559" 
d="M174 -247q-49 0 -97 17l15 34q38 -10 79 -10q31 0 49 14t18 35q0 40 -67 40q-6 0 -19.5 -2t-16.5 -2l-12 32l97 76q-81 11 -135 43l-46 -49h-42l56 223h42q40 -101 82.5 -139t99.5 -38q59 0 92 35.5t33 85.5q0 41 -27 71t-92 60q-83 38 -118 77.5t-35 102.5
q0 86 69.5 150.5t179.5 64.5q79 0 144 -42l40 46h42l-51 -214h-41q-36 97 -68 132t-84 35q-51 0 -83 -33.5t-32 -81.5q0 -10 2 -19t4 -16t8.5 -15t10 -13t14 -12.5t15 -10.5t18.5 -11t19 -10.5l22 -11t22 -11.5q67 -34 100 -73.5t33 -100.5q0 -93 -63.5 -160t-183.5 -68
l-62 -50l1 -3q104 -6 104 -76q0 -43 -39.5 -72.5t-96.5 -29.5z" />
    <glyph glyph-name="scedilla" unicode="&#x15f;" horiz-adv-x="431" 
d="M115 -247q-49 0 -97 17l15 34q38 -10 79 -10q31 0 49 14t18 35q0 40 -67 40q-6 0 -19.5 -2t-16.5 -2l-12 32l104 82q-68 3 -112.5 29.5t-44.5 68.5q0 27 17 45t44 18q24 0 40 -14t16 -39q0 -26 -20 -46q22 -24 77 -24q42 0 66.5 20.5t24.5 51.5q0 27 -18 44t-70 41
q-57 26 -84 54.5t-27 71.5q0 64 52 110t134 46q66 0 110 -28t44 -71q0 -26 -15.5 -42.5t-42.5 -16.5q-23 0 -39.5 14t-16.5 35q0 29 20 48q-18 22 -63 22q-38 0 -60 -19.5t-22 -48.5q0 -25 18.5 -43.5t71.5 -43.5q58 -27 83 -55.5t25 -71.5q0 -57 -40.5 -101t-114.5 -53
l-75 -61l1 -3q104 -6 104 -76q0 -43 -39.5 -72.5t-96.5 -29.5z" />
    <glyph glyph-name="Scaron" unicode="&#x160;" horiz-adv-x="559" 
d="M375 739l-62 188h46l72 -101l126 101h53l-171 -188h-64zM-3 -19l56 223h42q40 -101 82.5 -139t99.5 -38q59 0 92 35.5t33 85.5q0 41 -27 71t-92 60q-83 38 -118 77.5t-35 102.5q0 86 69.5 150.5t179.5 64.5q79 0 144 -42l40 46h42l-51 -214h-41q-36 97 -68 132t-84 35
q-51 0 -83 -33.5t-32 -81.5q0 -10 2 -19t4 -16t8.5 -15t10 -13t14 -12.5t15 -10.5t18.5 -11t19 -10.5l22 -11t22 -11.5q67 -34 100 -73.5t33 -100.5q0 -94 -64.5 -161t-185.5 -67q-101 0 -179 46l-46 -49h-42z" />
    <glyph glyph-name="scaron" unicode="&#x161;" horiz-adv-x="431" 
d="M256 530l-62 188h46l72 -101l126 101h53l-171 -188h-64zM183 -8q-73 0 -122.5 27t-49.5 72q0 27 17 45t44 18q24 0 40 -14t16 -39q0 -26 -20 -46q22 -24 77 -24q42 0 66.5 20.5t24.5 51.5q0 27 -18 44t-70 41q-57 26 -84 54.5t-27 71.5q0 64 52 110t134 46q66 0 110 -28
t44 -71q0 -26 -15.5 -42.5t-42.5 -16.5q-23 0 -39.5 14t-16.5 35q0 29 20 48q-18 22 -63 22q-38 0 -60 -19.5t-22 -48.5q0 -25 18.5 -43.5t71.5 -43.5q58 -27 83 -55.5t25 -71.5q0 -64 -51 -110.5t-142 -46.5z" />
    <glyph glyph-name="Tcommaaccent" unicode="&#x162;" horiz-adv-x="673" 
d="M138 -335l-12 31q113 46 130 96l-5 4q-27 2 -44.5 18.5t-17.5 41.5q0 28 20 48t48 20q30 0 50.5 -22.5t20.5 -57.5q0 -54 -46 -101t-144 -78zM227 85l143 529h-42q-56 0 -93 -35.5t-103 -141.5h-45l65 221h597l-57 -221h-44q-9 100 -28 138.5t-74 38.5h-38l-143 -529
q-7 -26 10.5 -35t79.5 -11l-11 -39h-339l11 39q58 2 81.5 12t29.5 34z" />
    <glyph glyph-name="tcommaaccent" unicode="&#x163;" horiz-adv-x="363" 
d="M-3 -335l-12 31q113 46 130 96l-5 4q-27 2 -44.5 18.5t-17.5 41.5q0 28 20 48t48 20q30 0 50.5 -22.5t20.5 -57.5q0 -54 -46 -101t-144 -78zM381 413h-117l-81 -271q-7 -25 -7 -45q0 -43 58 -43q35 0 80 12l-3 -37q-81 -37 -148 -37q-110 0 -110 86q0 22 9 52l85 283h-89
l15 48h89l42 145l125 13l-51 -158h118z" />
    <glyph glyph-name="Tcaron" unicode="&#x164;" horiz-adv-x="673" 
d="M430 739l-62 188h46l72 -101l126 101h53l-171 -188h-64zM227 85l143 529h-42q-56 0 -93 -35.5t-103 -141.5h-45l65 221h597l-57 -221h-44q-9 100 -28 138.5t-74 38.5h-38l-143 -529q-7 -26 10.5 -35t79.5 -11l-11 -39h-339l11 39q58 2 81.5 12t29.5 34z" />
    <glyph glyph-name="tcaron" unicode="&#x165;" horiz-adv-x="363" 
d="M393 547l29 162q10 50 23.5 73t43.5 23q20 0 33 -13t13 -34q0 -22 -39 -93l-65 -118h-38zM381 413h-117l-81 -271q-7 -25 -7 -45q0 -43 58 -43q35 0 80 12l-3 -37q-81 -37 -148 -37q-110 0 -110 86q0 22 9 52l85 283h-89l15 48h89l42 145l125 13l-51 -158h118z" />
    <glyph glyph-name="Umacron" unicode="&#x16a;" horiz-adv-x="752" 
d="M341 574l-85 -319q-10 -43 -10 -73q0 -63 37 -100t107 -37q83 0 128.5 48.5t71.5 144.5l68 254q19 70 5.5 96t-77.5 33l11 37h251l-10 -37q-61 -7 -84.5 -33.5t-43.5 -103.5l-74 -274q-29 -110 -95 -168t-205 -58q-112 0 -170 54t-58 143q0 36 11 82l84 311q7 26 -8 35
t-75 11l11 38h316l-11 -38q-53 -2 -70.5 -11t-24.5 -35zM399 763l18 67h261l-18 -67h-261z" />
    <glyph glyph-name="umacron" unicode="&#x16b;" horiz-adv-x="578" 
d="M55 147l72 223q8 23 -3.5 34t-55.5 14v36l201 10l-94 -297q-10 -35 -10 -52q0 -48 55 -48q51 0 114 56l54 181l34 158h128l-103 -340q-11 -39 -11 -48q0 -19 17.5 -25.5t64.5 -6.5v-34q-40 -15 -101 -15q-90 0 -90 66q0 7 2 21l-4 4q-85 -92 -176 -92q-50 0 -77.5 26.5
t-27.5 69.5q0 22 11 59zM228 554l18 67h261l-18 -67h-261z" />
    <glyph glyph-name="Ubreve" unicode="&#x16c;" horiz-adv-x="752" 
d="M341 574l-85 -319q-10 -43 -10 -73q0 -63 37 -100t107 -37q83 0 128.5 48.5t71.5 144.5l68 254q19 70 5.5 96t-77.5 33l11 37h251l-10 -37q-61 -7 -84.5 -33.5t-43.5 -103.5l-74 -274q-29 -110 -95 -168t-205 -58q-112 0 -170 54t-58 143q0 36 11 82l84 311q7 26 -8 35
t-75 11l11 38h316l-11 -38q-53 -2 -70.5 -11t-24.5 -35zM538 747q-66 0 -97.5 42.5t-15.5 115.5h46q2 -84 76 -84q70 0 111 84h49q-19 -74 -64 -116t-105 -42z" />
    <glyph glyph-name="ubreve" unicode="&#x16d;" horiz-adv-x="578" 
d="M55 147l72 223q8 23 -3.5 34t-55.5 14v36l201 10l-94 -297q-10 -35 -10 -52q0 -48 55 -48q51 0 114 56l54 181l34 158h128l-103 -340q-11 -39 -11 -48q0 -19 17.5 -25.5t64.5 -6.5v-34q-40 -15 -101 -15q-90 0 -90 66q0 7 2 21l-4 4q-85 -92 -176 -92q-50 0 -77.5 26.5
t-27.5 69.5q0 22 11 59zM368 538q-66 0 -97.5 42.5t-15.5 115.5h46q2 -84 76 -84q70 0 111 84h49q-19 -74 -64 -116t-105 -42z" />
    <glyph glyph-name="Uring" unicode="&#x16e;" horiz-adv-x="752" 
d="M546 747q-46 0 -74.5 25t-28.5 66q0 57 41 96t97 39q45 0 74 -25t29 -66q0 -57 -41 -96t-97 -39zM549 784q33 0 53 33t20 67q0 23 -11.5 37.5t-32.5 14.5q-34 0 -53.5 -33t-19.5 -68q0 -23 11.5 -37t32.5 -14zM341 574l-85 -319q-10 -43 -10 -73q0 -63 37 -100t107 -37
q83 0 128.5 48.5t71.5 144.5l68 254q19 70 5.5 96t-77.5 33l11 37h251l-10 -37q-61 -7 -84.5 -33.5t-43.5 -103.5l-74 -274q-29 -110 -95 -168t-205 -58q-112 0 -170 54t-58 143q0 36 11 82l84 311q7 26 -8 35t-75 11l11 38h316l-11 -38q-53 -2 -70.5 -11t-24.5 -35z" />
    <glyph glyph-name="uring" unicode="&#x16f;" horiz-adv-x="578" 
d="M375 538q-46 0 -74.5 25t-28.5 66q0 57 41 96t97 39q45 0 74 -25t29 -66q0 -57 -41 -96t-97 -39zM378 575q33 0 53 33t20 67q0 23 -11.5 37.5t-32.5 14.5q-34 0 -53.5 -33t-19.5 -68q0 -23 11.5 -37t32.5 -14zM55 147l72 223q8 23 -3.5 34t-55.5 14v36l201 10l-94 -297
q-10 -35 -10 -52q0 -48 55 -48q51 0 114 56l54 181l34 158h128l-103 -340q-11 -39 -11 -48q0 -19 17.5 -25.5t64.5 -6.5v-34q-40 -15 -101 -15q-90 0 -90 66q0 7 2 21l-4 4q-85 -92 -176 -92q-50 0 -77.5 26.5t-27.5 69.5q0 22 11 59z" />
    <glyph glyph-name="Uhungarumlaut" unicode="&#x170;" horiz-adv-x="752" 
d="M341 574l-85 -319q-10 -43 -10 -73q0 -63 37 -100t107 -37q83 0 128.5 48.5t71.5 144.5l68 254q19 70 5.5 96t-77.5 33l11 37h251l-10 -37q-61 -7 -84.5 -33.5t-43.5 -103.5l-74 -274q-29 -110 -95 -168t-205 -58q-112 0 -170 54t-58 143q0 36 11 82l84 311q7 26 -8 35
t-75 11l11 38h316l-11 -38q-53 -2 -70.5 -11t-24.5 -35zM392 739l83 125q37 58 56 77t42 19q19 0 32.5 -13t13.5 -31q0 -19 -17 -39t-69 -66l-86 -72h-55zM575 739l82 125q39 59 57 77.5t41 18.5q20 0 33 -13t13 -31q0 -20 -17 -40t-69 -65l-85 -72h-55z" />
    <glyph glyph-name="uhungarumlaut" unicode="&#x171;" horiz-adv-x="578" 
d="M55 147l72 223q8 23 -3.5 34t-55.5 14v36l201 10l-94 -297q-10 -35 -10 -52q0 -48 55 -48q51 0 114 56l54 181l34 158h128l-103 -340q-11 -39 -11 -48q0 -19 17.5 -25.5t64.5 -6.5v-34q-40 -15 -101 -15q-90 0 -90 66q0 7 2 21l-4 4q-85 -92 -176 -92q-50 0 -77.5 26.5
t-27.5 69.5q0 22 11 59zM221 530l83 125q37 58 56 77t42 19q19 0 32.5 -13t13.5 -31q0 -19 -17 -39t-69 -66l-86 -72h-55zM404 530l82 125q39 59 57 77.5t41 18.5q20 0 33 -13t13 -31q0 -20 -17 -40t-69 -65l-85 -72h-55z" />
    <glyph glyph-name="Uogonek" unicode="&#x172;" horiz-adv-x="752" 
d="M341 574l-85 -319q-10 -43 -10 -73q0 -63 37 -100t107 -37q83 0 128.5 48.5t71.5 144.5l68 254q19 70 5.5 96t-77.5 33l11 37h251l-10 -37q-61 -7 -84.5 -33.5t-43.5 -103.5l-74 -274q-25 -96 -77.5 -152.5t-156.5 -69.5l-14 -9q-73 -44 -97 -74t-24 -57q0 -41 51 -41
q28 0 64 14l11 -29q-58 -34 -113 -34q-45 0 -71 20.5t-26 55.5q0 38 33 74t112 76q-108 2 -164 56t-56 141q0 36 11 82l84 311q7 26 -8 35t-75 11l11 38h316l-11 -38q-53 -2 -70.5 -11t-24.5 -35z" />
    <glyph glyph-name="uogonek" unicode="&#x173;" horiz-adv-x="578" 
d="M436 74q0 -19 17.5 -25.5t64.5 -6.5v-34l-41 -25q-140 -77 -140 -135q0 -41 51 -41q28 0 64 14l11 -29q-58 -34 -114 -34q-44 0 -70 20.5t-26 55.5q0 82 145 145l30 14h-10q-91 0 -91 66q0 7 2 21l-4 4q-85 -92 -176 -92q-50 0 -77.5 26.5t-27.5 69.5q0 22 11 59l72 223
q8 23 -3.5 34t-55.5 14v36l201 10l-94 -297q-10 -35 -10 -52q0 -48 55 -48q51 0 114 56l54 181l34 158h128l-103 -340q-11 -39 -11 -48z" />
    <glyph glyph-name="Wcircumflex" unicode="&#x174;" horiz-adv-x="1018" 
d="M485 739l170 188h65l61 -188h-46l-71 100l-125 -100h-54zM308 559l35 -424h13l197 340l-6 81q-2 32 -16 45.5t-61 19.5l11 37h293l-10 -37q-57 -4 -72 -16t-13 -46l23 -420h12l192 342q40 72 32 101t-72 39l11 37h249l-11 -37q-50 -11 -79 -38.5t-68 -96.5l-280 -497
h-104l-26 404l-232 -404h-101l-50 565q-2 31 -19.5 45t-66.5 22l11 37h295l-11 -37q-39 -3 -55.5 -10t-19.5 -17t-1 -35z" />
    <glyph glyph-name="wcircumflex" unicode="&#x175;" horiz-adv-x="754" 
d="M295 530l170 188h65l61 -188h-46l-71 100l-125 -100h-54zM505 -11l-99 7l-8 184l-8 69l-153 -260l-100 7l-9 184l-23 178q-4 30 -18 40t-62 13v36l189 18l23 -267l5 -105h16l52 93q43 75 70 150l-14 118l121 11l20 -267l5 -105h15l51 75q63 94 84 162q-44 25 -44 70
q0 30 19 50t49 20q32 0 49.5 -20t17.5 -52q0 -21 -12.5 -49t-25.5 -49t-50 -76z" />
    <glyph glyph-name="Ycircumflex" unicode="&#x176;" horiz-adv-x="667" 
d="M623 519l-200 -232l-55 -202q-7 -27 8.5 -35.5t75.5 -10.5l-11 -39h-326l11 39q55 2 76.5 12t27.5 34l57 212l-94 263q-9 25 -30 39t-63 22l11 37h311l-11 -36q-60 -4 -75 -18t-4 -47l73 -223l143 175q49 60 47.5 82.5t-60.5 29.5l10 37h247l-11 -37q-46 -8 -79 -28.5
t-79 -73.5zM331 739l170 188h65l61 -188h-46l-71 100l-125 -100h-54z" />
    <glyph glyph-name="ycircumflex" unicode="&#x177;" horiz-adv-x="489" 
d="M215 465l30 -212l22 -171h16l41 70q64 109 79 176q-49 27 -49 72q0 30 18.5 50t48.5 20q32 0 49.5 -22.5t17.5 -57.5q0 -65 -127 -263q-115 -180 -192 -255.5t-152 -75.5q-42 0 -67 22.5t-25 58.5q0 29 19.5 49.5t46.5 20.5q29 0 46 -18t17 -46q0 -19 -11 -36
q38 12 76 44.5t64 76.5l-39 212l-34 176q-6 30 -22 41t-64 14v36zM144 530l170 188h65l61 -188h-46l-71 100l-125 -100h-54z" />
    <glyph glyph-name="Ydieresis" unicode="&#x178;" horiz-adv-x="667" 
d="M623 519l-200 -232l-55 -202q-7 -27 8.5 -35.5t75.5 -10.5l-11 -39h-326l11 39q55 2 76.5 12t27.5 34l57 212l-94 263q-9 25 -30 39t-63 22l11 37h311l-11 -36q-60 -4 -75 -18t-4 -47l73 -223l143 175q49 60 47.5 82.5t-60.5 29.5l10 37h247l-11 -37q-46 -8 -79 -28.5
t-79 -73.5zM592 747q-23 0 -39 15.5t-16 41.5q0 36 24 62t58 26q23 0 38.5 -15t15.5 -41q0 -37 -23.5 -63t-57.5 -26zM394 747q-23 0 -39 15.5t-16 41.5q0 36 24 62t58 26q23 0 38.5 -15t15.5 -41q0 -37 -23.5 -63t-57.5 -26z" />
    <glyph glyph-name="Zacute" unicode="&#x179;" horiz-adv-x="645" 
d="M393 739l87 125q40 59 59 77.5t43 18.5q19 0 32 -13t13 -31q0 -24 -17 -43.5t-73 -63.5l-89 -70h-55zM546 614h-149q-67 0 -110.5 -35t-118.5 -142l-48 2l68 219h526l-5 -39l-555 -575h166q72 0 118.5 39t121.5 153l48 -1l-73 -235h-549l4 40z" />
    <glyph glyph-name="zacute" unicode="&#x17a;" horiz-adv-x="470" 
d="M238 530l87 125q40 59 59 77.5t43 18.5q19 0 32 -13t13 -31q0 -24 -17 -43.5t-73 -63.5l-89 -70h-55zM3 -15l-25 33l379 352l-4 10l-113 -1q-61 -2 -85.5 -17t-52.5 -69l-39 2l43 167h368l13 -31l-370 -341l6 -10q34 12 69 12q18 0 56 -3.5t51 -3.5q40 0 59 19.5t32 66.5
l36 -4q-14 -103 -42 -140.5t-95 -37.5q-30 0 -95.5 10.5t-90.5 10.5q-39 0 -100 -25z" />
    <glyph glyph-name="Zdotaccent" unicode="&#x17b;" horiz-adv-x="645" 
d="M546 614h-149q-67 0 -110.5 -35t-118.5 -142l-48 2l68 219h526l-5 -39l-555 -575h166q72 0 118.5 39t121.5 153l48 -1l-73 -235h-549l4 40zM466 747q-25 0 -41.5 16t-16.5 45q0 39 26 67.5t62 28.5q25 0 41 -15.5t16 -44.5q0 -39 -25.5 -68t-61.5 -29z" />
    <glyph glyph-name="zdotaccent" unicode="&#x17c;" horiz-adv-x="470" 
d="M3 -15l-25 33l379 352l-4 10l-113 -1q-61 -2 -85.5 -17t-52.5 -69l-39 2l43 167h368l13 -31l-370 -341l6 -10q34 12 69 12q18 0 56 -3.5t51 -3.5q40 0 59 19.5t32 66.5l36 -4q-14 -103 -42 -140.5t-95 -37.5q-30 0 -95.5 10.5t-90.5 10.5q-39 0 -100 -25zM311 538
q-25 0 -41.5 16t-16.5 45q0 39 26 67.5t62 28.5q25 0 41 -15.5t16 -44.5q0 -39 -25.5 -68t-61.5 -29z" />
    <glyph glyph-name="Zcaron" unicode="&#x17d;" horiz-adv-x="645" 
d="M415 739l-62 188h46l72 -101l126 101h53l-171 -188h-64zM546 614h-149q-67 0 -110.5 -35t-118.5 -142l-48 2l68 219h526l-5 -39l-555 -575h166q72 0 118.5 39t121.5 153l48 -1l-73 -235h-549l4 40z" />
    <glyph glyph-name="zcaron" unicode="&#x17e;" horiz-adv-x="470" 
d="M260 530l-62 188h46l72 -101l126 101h53l-171 -188h-64zM3 -15l-25 33l379 352l-4 10l-113 -1q-61 -2 -85.5 -17t-52.5 -69l-39 2l43 167h368l13 -31l-370 -341l6 -10q34 12 69 12q18 0 56 -3.5t51 -3.5q40 0 59 19.5t32 66.5l36 -4q-14 -103 -42 -140.5t-95 -37.5
q-30 0 -95.5 10.5t-90.5 10.5q-39 0 -100 -25z" />
    <glyph glyph-name="florin" unicode="&#x192;" horiz-adv-x="535" 
d="M468 335h-127l-57 -218q-39 -151 -91 -207t-135 -56q-63 0 -95.5 24t-32.5 62q0 29 18.5 49.5t47.5 20.5q27 0 43 -16.5t16 -41.5q0 -31 -25 -53q9 -7 24 -7q26 0 44 28.5t38 102.5l82 312h-99v48h111l8 29q32 122 88 173t140 51q60 0 97 -27.5t37 -68.5q0 -30 -18 -51
t-46 -21t-45 16.5t-17 41.5q0 35 32 56q-13 16 -40 16q-31 0 -51.5 -29t-37.5 -98l-23 -88h114v-48z" />
    <glyph glyph-name="Aringacute" unicode="&#x1fa;" horiz-adv-x="664" 
d="M214 238l-46 -80q-37 -64 -30.5 -87.5t63.5 -34.5l-10 -36h-238l9 36q52 12 79 37.5t72 100.5l283 474q-45 23 -45 80q0 60 43 100.5t103 40.5q43 0 71.5 -25.5t28.5 -68.5t-24 -77.5t-63 -50.5l76 -537q6 -38 20.5 -52t63.5 -21l-11 -37h-307l11 39q56 3 72 18.5
t11 57.5l-15 123h-217zM426 281l-29 256h-11l-148 -256h188zM476 902l87 125q40 59 59 77.5t43 18.5q19 0 32 -13t13 -31q0 -24 -17 -43.5t-73 -63.5l-89 -70h-55zM456 670q34 0 55.5 37t21.5 75q0 22 -10.5 36.5t-31.5 14.5q-34 0 -55 -37t-21 -75q0 -21 10.5 -36t30.5 -15
z" />
    <glyph glyph-name="aringacute" unicode="&#x1fb;" horiz-adv-x="529" 
d="M485 307l-52 -179q-11 -38 -11 -53q0 -20 16.5 -26t63.5 -6v-35q-45 -16 -99 -16q-44 0 -64.5 14.5t-21.5 50.5q0 12 1 18l-5 2q-40 -47 -71.5 -66t-73.5 -19q-60 0 -98.5 42t-38.5 119q0 123 86 220t183 97q73 0 106 -58l18 47l119 10zM320 424q-46 0 -86 -49t-60 -110
t-20 -109q0 -96 72 -96q45 0 92 71l69 231q-7 30 -25 46t-42 16zM384 538q-46 0 -74.5 25t-28.5 66q0 57 41 96t97 39q45 0 74 -25t29 -66q0 -57 -41 -96t-97 -39zM409 807l87 125q40 59 59 77.5t43 18.5q19 0 32 -13t13 -31q0 -24 -17 -43.5t-73 -63.5l-89 -70h-55z
M387 575q33 0 53 33t20 67q0 23 -11.5 37.5t-32.5 14.5q-34 0 -53.5 -33t-19.5 -68q0 -23 11.5 -37t32.5 -14z" />
    <glyph glyph-name="AEacute" unicode="&#x1fc;" horiz-adv-x="1034" 
d="M705 739l87 125q40 59 59 77.5t43 18.5q19 0 32 -13t13 -31q0 -24 -17 -43.5t-73 -63.5l-89 -70h-55zM826 212h-39q2 68 -14 90.5t-65 22.5h-51l-74 -279h117q64 0 109 21t73.5 56.5t61.5 100.5h48l-63 -224h-590l11 39q55 2 76.5 12t28.5 34l46 170h-225l-91 -106
q-55 -63 -55 -83q0 -22 51 -32l-10 -34h-233l9 34q55 11 89.5 37.5t96.5 96.5l331 380q24 26 24 40q0 25 -79 33l11 37h656l-53 -205h-44q-4 89 -31.5 125t-107.5 36h-106l-66 -245h55q51 0 74 16t52 76h40zM512 298l82 303h-20l-261 -303h199z" />
    <glyph glyph-name="aeacute" unicode="&#x1fd;" horiz-adv-x="744" 
d="M591 470q70 0 107.5 -30.5t37.5 -78.5q0 -66 -78 -109t-228 -44q-1 -11 -1 -35q0 -59 25.5 -92t75.5 -33q80 0 139 81l27 -25q-84 -112 -202 -112q-60 0 -103 30t-60 86h-5q-65 -116 -188 -116q-59 0 -93 30t-34 80q0 163 320 156q6 40 6 64q0 56 -24 81.5t-61 25.5
q-40 0 -67 -21q21 -15 21 -44q0 -30 -18 -47t-46 -17t-45 17t-17 43q0 46 51.5 78t130.5 32q115 0 147 -76h5q31 33 78 54.5t99 21.5zM583 427q-47 0 -89.5 -54t-57.5 -131q197 10 197 131q0 54 -50 54zM197 57q45 0 79.5 43t49.5 123q-108 1 -150 -26.5t-42 -76.5
q0 -28 17 -45.5t46 -17.5zM427 530l87 125q40 59 59 77.5t43 18.5q19 0 32 -13t13 -31q0 -24 -17 -43.5t-73 -63.5l-89 -70h-55z" />
    <glyph glyph-name="Oslashacute" unicode="&#x1fe;" horiz-adv-x="734" 
d="M87 -34h-62l97 105q-63 72 -63 181q0 78 28.5 153.5t78.5 135.5t126.5 96.5t165.5 36.5q100 0 172 -56l68 74h62l-97 -105q64 -73 64 -180q0 -106 -47.5 -201.5t-141 -158.5t-211.5 -63q-100 0 -172 56zM325 27q73 0 135.5 72.5t95 171.5t32.5 190q0 25 -3 47l-372 -405
q31 -76 112 -76zM197 198q0 -24 3 -47l372 404q-31 77 -112 77q-72 0 -134.5 -72.5t-95.5 -172t-33 -189.5zM438 739l87 125q40 59 59 77.5t43 18.5q19 0 32 -13t13 -31q0 -24 -17 -43.5t-73 -63.5l-89 -70h-55z" />
    <glyph glyph-name="oslashacute" unicode="&#x1ff;" horiz-adv-x="514" 
d="M4 -23l66 75q-40 49 -40 122q0 117 75 206.5t200 89.5q62 0 108 -32l40 46h58l-67 -75q41 -49 41 -121q0 -75 -31 -141t-95.5 -110.5t-149.5 -44.5q-64 0 -108 32l-40 -47h-57zM214 31q44 0 80 51.5t54 118.5t20 128l-216 -249q13 -49 62 -49zM301 431q-44 0 -80 -51.5
t-54.5 -119t-19.5 -128.5l216 249q-14 50 -62 50zM267 530l87 125q40 59 59 77.5t43 18.5q19 0 32 -13t13 -31q0 -24 -17 -43.5t-73 -63.5l-89 -70h-55z" />
    <glyph glyph-name="Scommaaccent" unicode="&#x218;" horiz-adv-x="559" 
d="M83 -335l-12 31q113 46 130 96l-5 4q-27 2 -44.5 18.5t-17.5 41.5q0 28 20 48t48 20q30 0 50.5 -22.5t20.5 -57.5q0 -54 -46 -101t-144 -78zM-3 -19l56 223h42q40 -101 82.5 -139t99.5 -38q59 0 92 35.5t33 85.5q0 41 -27 71t-92 60q-83 38 -118 77.5t-35 102.5
q0 86 69.5 150.5t179.5 64.5q79 0 144 -42l40 46h42l-51 -214h-41q-36 97 -68 132t-84 35q-51 0 -83 -33.5t-32 -81.5q0 -10 2 -19t4 -16t8.5 -15t10 -13t14 -12.5t15 -10.5t18.5 -11t19 -10.5l22 -11t22 -11.5q67 -34 100 -73.5t33 -100.5q0 -94 -64.5 -161t-185.5 -67
q-101 0 -179 46l-46 -49h-42z" />
    <glyph glyph-name="scommaaccent" unicode="&#x219;" horiz-adv-x="431" 
d="M20 -335l-12 31q113 46 130 96l-5 4q-27 2 -44.5 18.5t-17.5 41.5q0 28 20 48t48 20q30 0 50.5 -22.5t20.5 -57.5q0 -54 -46 -101t-144 -78zM183 -8q-73 0 -122.5 27t-49.5 72q0 27 17 45t44 18q24 0 40 -14t16 -39q0 -26 -20 -46q22 -24 77 -24q42 0 66.5 20.5
t24.5 51.5q0 27 -18 44t-70 41q-57 26 -84 54.5t-27 71.5q0 64 52 110t134 46q66 0 110 -28t44 -71q0 -26 -15.5 -42.5t-42.5 -16.5q-23 0 -39.5 14t-16.5 35q0 29 20 48q-18 22 -63 22q-38 0 -60 -19.5t-22 -48.5q0 -25 18.5 -43.5t71.5 -43.5q58 -27 83 -55.5t25 -71.5
q0 -64 -51 -110.5t-142 -46.5z" />
    <glyph glyph-name="schwa" unicode="&#x259;" horiz-adv-x="465" 
d="M7 94q0 66 78 109t227 43q2 24 2 36q0 60 -25.5 92.5t-75.5 32.5q-80 0 -139 -81l-27 25q84 112 203 112q79 0 132 -47t53 -131q0 -115 -81.5 -207.5t-200.5 -92.5q-71 0 -108.5 30.5t-37.5 78.5zM161 28q47 0 88.5 53.5t57.5 130.5q-197 -10 -197 -130q0 -54 51 -54z
" />
    <glyph glyph-name="circumflex" unicode="&#x2c6;" horiz-adv-x="325" 
d="M102 530l170 188h65l61 -188h-46l-71 100l-125 -100h-54z" />
    <glyph glyph-name="caron" unicode="&#x2c7;" horiz-adv-x="325" 
d="M206 530l-62 188h46l72 -101l126 101h53l-171 -188h-64z" />
    <glyph glyph-name="breve" unicode="&#x2d8;" horiz-adv-x="356" 
d="M266 538q-66 0 -97.5 42.5t-15.5 115.5h46q2 -84 76 -84q70 0 111 84h49q-19 -74 -64 -116t-105 -42z" />
    <glyph glyph-name="dotaccent" unicode="&#x2d9;" horiz-adv-x="228" 
d="M206 538q-25 0 -41.5 16t-16.5 45q0 39 26 67.5t62 28.5q25 0 41 -15.5t16 -44.5q0 -39 -25.5 -68t-61.5 -29z" />
    <glyph glyph-name="ring" unicode="&#x2da;" horiz-adv-x="301" 
d="M248 538q-46 0 -74.5 25t-28.5 66q0 57 41 96t97 39q45 0 74 -25t29 -66q0 -57 -41 -96t-97 -39zM251 575q33 0 53 33t20 67q0 23 -11.5 37.5t-32.5 14.5q-34 0 -53.5 -33t-19.5 -68q0 -23 11.5 -37t32.5 -14z" />
    <glyph glyph-name="ogonek" unicode="&#x2db;" horiz-adv-x="279" 
d="M9 -242q-45 0 -71 20.5t-26 55.5q0 38 33 74t112 76l58 30h56l-54 -35q-73 -44 -97 -74t-24 -57q0 -41 51 -41q28 0 64 14l11 -29q-58 -34 -113 -34z" />
    <glyph glyph-name="tilde" unicode="&#x2dc;" horiz-adv-x="352" 
d="M115 531q27 132 105 132q22 0 65 -23.5t58 -23.5q26 0 46 50h45q-27 -131 -104 -131q-23 0 -65.5 23.5t-57.5 23.5q-27 0 -47 -51h-45z" />
    <glyph glyph-name="hungarumlaut" unicode="&#x2dd;" horiz-adv-x="434" 
d="M113 530l83 125q37 58 56 77t42 19q19 0 32.5 -13t13.5 -31q0 -19 -17 -39t-69 -66l-86 -72h-55zM296 530l82 125q39 59 57 77.5t41 18.5q20 0 33 -13t13 -31q0 -20 -17 -40t-69 -65l-85 -72h-55z" />
    <glyph glyph-name="commaaccent" unicode="&#x326;" horiz-adv-x="257" 
d="M-89 -335l-12 31q113 46 130 96l-5 4q-27 2 -44.5 18.5t-17.5 41.5q0 28 20 48t48 20q30 0 50.5 -22.5t20.5 -57.5q0 -54 -46 -101t-144 -78z" />
    <glyph glyph-name="baht" unicode="&#xe3f;" horiz-adv-x="598" 
d="M-27 0l10 38q53 2 73.5 11.5t26.5 31.5l123 458q6 25 -8 33t-70 10l10 38h242q17 0 43 -2l58 128h69l-67 -136q120 -26 120 -122q0 -127 -210 -160l-1 -6q159 -25 159 -138q0 -75 -75.5 -129.5t-219.5 -54.5h-40l-52 -138h-70l58 138h-179zM202 43h42q84 0 126 44.5
t42 116.5q0 49 -30.5 74.5t-99.5 25.5h-9zM284 345h27q70 0 115 40.5t45 108.5q0 43 -25.5 63t-86.5 20h-13z" />
    <glyph glyph-name="Wgrave" unicode="&#x1e80;" horiz-adv-x="1018" 
d="M308 559l35 -424h13l197 340l-6 81q-2 32 -16 45.5t-61 19.5l11 37h293l-10 -37q-57 -4 -72 -16t-13 -46l23 -420h12l192 342q40 72 32 101t-72 39l11 37h249l-11 -37q-50 -11 -79 -38.5t-68 -96.5l-280 -497h-104l-26 404l-232 -404h-101l-50 565q-2 31 -19.5 45
t-66.5 22l11 37h295l-11 -37q-39 -3 -55.5 -10t-19.5 -17t-1 -35zM623 739l-91 90q-54 52 -54 80q0 21 16 36t36 15q22 0 36.5 -18t41.5 -71l66 -132h-51z" />
    <glyph glyph-name="wgrave" unicode="&#x1e81;" horiz-adv-x="754" 
d="M505 -11l-99 7l-8 184l-8 69l-153 -260l-100 7l-9 184l-23 178q-4 30 -18 40t-62 13v36l189 18l23 -267l5 -105h16l52 93q43 75 70 150l-14 118l121 11l20 -267l5 -105h15l51 75q63 94 84 162q-44 25 -44 70q0 30 19 50t49 20q32 0 49.5 -20t17.5 -52q0 -21 -12.5 -49
t-25.5 -49t-50 -76zM433 530l-91 90q-54 52 -54 80q0 21 16 36t36 15q22 0 36.5 -18t41.5 -71l66 -132h-51z" />
    <glyph glyph-name="Wacute" unicode="&#x1e82;" horiz-adv-x="1018" 
d="M575 739l87 125q40 59 59 77.5t43 18.5q19 0 32 -13t13 -31q0 -24 -17 -43.5t-73 -63.5l-89 -70h-55zM308 559l35 -424h13l197 340l-6 81q-2 32 -16 45.5t-61 19.5l11 37h293l-10 -37q-57 -4 -72 -16t-13 -46l23 -420h12l192 342q40 72 32 101t-72 39l11 37h249l-11 -37
q-50 -11 -79 -38.5t-68 -96.5l-280 -497h-104l-26 404l-232 -404h-101l-50 565q-2 31 -19.5 45t-66.5 22l11 37h295l-11 -37q-39 -3 -55.5 -10t-19.5 -17t-1 -35z" />
    <glyph glyph-name="wacute" unicode="&#x1e83;" horiz-adv-x="754" 
d="M385 530l87 125q40 59 59 77.5t43 18.5q19 0 32 -13t13 -31q0 -24 -17 -43.5t-73 -63.5l-89 -70h-55zM505 -11l-99 7l-8 184l-8 69l-153 -260l-100 7l-9 184l-23 178q-4 30 -18 40t-62 13v36l189 18l23 -267l5 -105h16l52 93q43 75 70 150l-14 118l121 11l20 -267l5 -105
h15l51 75q63 94 84 162q-44 25 -44 70q0 30 19 50t49 20q32 0 49.5 -20t17.5 -52q0 -21 -12.5 -49t-25.5 -49t-50 -76z" />
    <glyph glyph-name="Wdieresis" unicode="&#x1e84;" horiz-adv-x="1018" 
d="M746 747q-23 0 -39 15.5t-16 41.5q0 36 24 62t58 26q23 0 38.5 -15t15.5 -41q0 -37 -23.5 -63t-57.5 -26zM548 747q-23 0 -39 15.5t-16 41.5q0 36 24 62t58 26q23 0 38.5 -15t15.5 -41q0 -37 -23.5 -63t-57.5 -26zM308 559l35 -424h13l197 340l-6 81q-2 32 -16 45.5
t-61 19.5l11 37h293l-10 -37q-57 -4 -72 -16t-13 -46l23 -420h12l192 342q40 72 32 101t-72 39l11 37h249l-11 -37q-50 -11 -79 -38.5t-68 -96.5l-280 -497h-104l-26 404l-232 -404h-101l-50 565q-2 31 -19.5 45t-66.5 22l11 37h295l-11 -37q-39 -3 -55.5 -10t-19.5 -17
t-1 -35z" />
    <glyph glyph-name="wdieresis" unicode="&#x1e85;" horiz-adv-x="754" 
d="M555 538q-23 0 -39 15.5t-16 41.5q0 36 24 62t58 26q23 0 38.5 -15t15.5 -41q0 -37 -23.5 -63t-57.5 -26zM357 538q-23 0 -39 15.5t-16 41.5q0 36 24 62t58 26q23 0 38.5 -15t15.5 -41q0 -37 -23.5 -63t-57.5 -26zM505 -11l-99 7l-8 184l-8 69l-153 -260l-100 7l-9 184
l-23 178q-4 30 -18 40t-62 13v36l189 18l23 -267l5 -105h16l52 93q43 75 70 150l-14 118l121 11l20 -267l5 -105h15l51 75q63 94 84 162q-44 25 -44 70q0 30 19 50t49 20q32 0 49.5 -20t17.5 -52q0 -21 -12.5 -49t-25.5 -49t-50 -76z" />
    <glyph glyph-name="Ygrave" unicode="&#x1ef2;" horiz-adv-x="667" 
d="M623 519l-200 -232l-55 -202q-7 -27 8.5 -35.5t75.5 -10.5l-11 -39h-326l11 39q55 2 76.5 12t27.5 34l57 212l-94 263q-9 25 -30 39t-63 22l11 37h311l-11 -36q-60 -4 -75 -18t-4 -47l73 -223l143 175q49 60 47.5 82.5t-60.5 29.5l10 37h247l-11 -37q-46 -8 -79 -28.5
t-79 -73.5zM469 739l-91 90q-54 52 -54 80q0 21 16 36t36 15q22 0 36.5 -18t41.5 -71l66 -132h-51z" />
    <glyph glyph-name="ygrave" unicode="&#x1ef3;" horiz-adv-x="489" 
d="M215 465l30 -212l22 -171h16l41 70q64 109 79 176q-49 27 -49 72q0 30 18.5 50t48.5 20q32 0 49.5 -22.5t17.5 -57.5q0 -65 -127 -263q-115 -180 -192 -255.5t-152 -75.5q-42 0 -67 22.5t-25 58.5q0 29 19.5 49.5t46.5 20.5q29 0 46 -18t17 -46q0 -19 -11 -36
q38 12 76 44.5t64 76.5l-39 212l-34 176q-6 30 -22 41t-64 14v36zM282 530l-91 90q-54 52 -54 80q0 21 16 36t36 15q22 0 36.5 -18t41.5 -71l66 -132h-51z" />
    <glyph glyph-name="enspace" unicode="&#x2002;" horiz-adv-x="500" 
 />
    <glyph glyph-name="emspace" unicode="&#x2003;" horiz-adv-x="1000" 
 />
    <glyph glyph-name="threeperemspace" unicode="&#x2004;" horiz-adv-x="333" 
 />
    <glyph glyph-name="fourperemspace" unicode="&#x2005;" horiz-adv-x="250" 
 />
    <glyph glyph-name="figurespace" unicode="&#x2007;" horiz-adv-x="540" 
 />
    <glyph glyph-name="thinspace" unicode="&#x2009;" horiz-adv-x="133" 
 />
    <glyph glyph-name="hairspace" unicode="&#x200a;" horiz-adv-x="75" 
 />
    <glyph glyph-name="endash" unicode="&#x2013;" horiz-adv-x="550" 
d="M54 221l16 61h440l-16 -61h-440z" />
    <glyph glyph-name="emdash" unicode="&#x2014;" horiz-adv-x="800" 
d="M54 221l16 61h690l-16 -61h-690z" />
    <glyph glyph-name="quoteleft" unicode="&#x2018;" horiz-adv-x="254" 
d="M321 682l12 -32q-128 -52 -149 -109l6 -5q29 -2 48 -20t19 -45q0 -31 -21.5 -53t-52.5 -22q-32 0 -55 24.5t-23 63.5q0 59 52 111t164 87z" />
    <glyph glyph-name="quoteright" unicode="&#x2019;" horiz-adv-x="254" 
d="M84 388l-13 32q128 52 149 109l-6 5q-29 2 -48 20t-19 45q0 31 22 53t52 22q33 0 55.5 -24.5t22.5 -63.5q0 -59 -51.5 -110.5t-163.5 -87.5z" />
    <glyph glyph-name="quotesinglbase" unicode="&#x201a;" horiz-adv-x="263" 
d="M-52 -153l-13 32q129 52 150 109l-6 5q-29 2 -48 20.5t-19 45.5q0 31 21.5 53t52.5 22q32 0 55 -25t23 -63q0 -60 -52 -111.5t-164 -87.5z" />
    <glyph glyph-name="quotedblleft" unicode="&#x201c;" horiz-adv-x="471" 
d="M537 682l13 -32q-128 -52 -149 -109l6 -5q29 -2 48 -20t19 -45q0 -31 -22 -53t-52 -22q-33 0 -55.5 24.5t-22.5 63.5q0 59 51.5 110.5t163.5 87.5zM314 682l12 -32q-124 -53 -142 -109l6 -5q29 -2 48 -20t19 -45q0 -31 -21.5 -53t-52.5 -22q-32 0 -55 24.5t-23 63.5
q0 129 209 198z" />
    <glyph glyph-name="quotedblright" unicode="&#x201d;" horiz-adv-x="471" 
d="M84 388l-13 32q128 52 149 109l-6 5q-29 2 -48 20t-19 45q0 31 22 53t52 22q33 0 55.5 -24.5t22.5 -63.5q0 -59 -51.5 -110.5t-163.5 -87.5zM307 388l-12 32q124 53 142 109l-6 5q-29 2 -48 20t-19 45q0 31 21.5 53t52.5 22q32 0 55 -24.5t23 -63.5q0 -129 -209 -198z
" />
    <glyph glyph-name="quotedblbase" unicode="&#x201e;" horiz-adv-x="480" 
d="M172 -153l-13 32q124 53 142 109l-6 5q-29 2 -48 20.5t-19 45.5q0 31 22 53t52 22q33 0 55.5 -25t22.5 -63q0 -130 -208 -199zM-52 -153l-13 32q129 52 150 109l-6 5q-29 2 -48 20.5t-19 45.5q0 31 21.5 53t52.5 22q32 0 55 -25t23 -63q0 -60 -52 -111.5t-164 -87.5z" />
    <glyph glyph-name="dagger" unicode="&#x2020;" horiz-adv-x="552" 
d="M159 -104l66 420l51 55q17 18 17 36q0 26 -29 26q-22 0 -65.5 -13t-65.5 -13q-23 0 -38 11t-15 32q0 25 22 42t57 17q49 0 146 -61l6 5l5 97q5 82 11 107q6 23 21 37t35 14q23 0 37 -15.5t14 -38.5q0 -30 -49 -123l-44 -82l4 -4q108 46 156 46q33 0 51.5 -13t18.5 -36
q0 -25 -19.5 -39t-46.5 -14q-23 0 -63 18t-65 18q-21 0 -33.5 -12t-12.5 -31q0 -12 2 -19l17 -74l-162 -394z" />
    <glyph glyph-name="daggerdbl" unicode="&#x2021;" horiz-adv-x="570" 
d="M363 292l-51 -59q-17 -18 -17 -36q0 -26 29 -26q22 0 65.5 13.5t65.5 13.5q23 0 38 -11t15 -32q0 -25 -22 -42.5t-57 -17.5q-49 0 -146 61l-6 -5l-5 -97q-5 -82 -11 -107q-6 -23 -21 -37t-35 -14q-23 0 -37 15.5t-14 38.5q0 30 49 123l44 82l-4 5q-106 -47 -156 -47
q-33 0 -51.5 13.5t-18.5 36.5q0 25 19.5 39t46.5 14q23 0 63 -18t65 -18q22 0 34 12t12 32q0 12 -2 20l-15 68l52 59q17 20 17 36q0 26 -29 26q-23 0 -66.5 -13t-65.5 -13t-37.5 11t-15.5 32q0 25 22 42t58 17q48 0 145 -61l6 5l5 97q5 82 12 107q6 23 21 37t35 14
q23 0 36.5 -15.5t13.5 -38.5q0 -32 -48 -123l-44 -82l3 -4q108 46 157 46q33 0 51.5 -13t18.5 -36q0 -25 -19.5 -39t-46.5 -14q-23 0 -63 18t-65 18q-22 0 -34.5 -12t-12.5 -32q0 -8 3 -20z" />
    <glyph glyph-name="bullet" unicode="&#x2022;" horiz-adv-x="491" 
d="M273 178q-59 0 -100 41t-41 100t41 100t100 41t100 -41t41 -100t-41 -100t-100 -41z" />
    <glyph glyph-name="ellipsis" unicode="&#x2026;" horiz-adv-x="769" 
d="M88 -16q-32 0 -54.5 22t-22.5 53t23 52.5t54 21.5q32 0 54.5 -21.5t22.5 -52.5t-23 -53t-54 -22zM332 -16q-32 0 -54.5 22t-22.5 53t23 52.5t54 21.5q32 0 54.5 -21.5t22.5 -52.5t-23 -53t-54 -22zM576 -16q-32 0 -54.5 22t-22.5 53t23 52.5t54 21.5q32 0 54.5 -21.5
t22.5 -52.5t-23 -53t-54 -22z" />
    <glyph glyph-name="guilsinglleft" unicode="&#x2039;" horiz-adv-x="305" 
d="M173 31l-120 160q-17 22 -17 40q0 20 40 48l200 140l24 -29l-156 -163l63 -176z" />
    <glyph glyph-name="guilsinglright" unicode="&#x203a;" horiz-adv-x="305" 
d="M27 31l-24 30l156 163l-62 175l34 20l120 -160q16 -21 16 -40q0 -20 -40 -48z" />
    <glyph glyph-name="fraction" unicode="&#x2044;" horiz-adv-x="540" 
d="M-101 -82l350 376l323 349h70l-326 -349l-347 -376h-70z" />
    <glyph glyph-name="zero.sup" unicode="&#x2070;" horiz-adv-x="405" 
d="M170 348q0 -79 48 -79q40 0 75.5 62t53.5 136.5t18 128.5q0 79 -48 79q-40 0 -75.5 -62t-53.5 -136.5t-18 -128.5zM459 547q0 -69 -27.5 -140.5t-85 -124.5t-129.5 -53q-69 0 -105 44.5t-36 123.5q0 69 27.5 140.5t85 124.5t129.5 53q69 0 105 -44.5t36 -123.5z" />
    <glyph glyph-name="four.sup" unicode="&#x2074;" horiz-adv-x="405" 
d="M427 376h-71l-18 -68q-4 -16 7 -22t42 -7l-10 -37h-217l10 37q70 1 77 29l18 68h-201l14 55l263 286l106 -2l-76 -284h71zM324 644l-195 -213h151l57 212z" />
    <glyph glyph-name="five.sup" unicode="&#x2075;" horiz-adv-x="405" 
d="M208 229q-64 0 -102.5 28.5t-38.5 70.5q0 26 17 44.5t44 18.5q24 0 37.5 -15t13.5 -36q0 -36 -34 -54q19 -19 56 -19q46 0 76 39t30 99q0 78 -69 78q-38 0 -89 -28l-19 20l74 230h275l-36 -81h-215l-41 -120q46 23 95 23q62 0 96.5 -32t34.5 -83q0 -72 -57.5 -127.5
t-147.5 -55.5z" />
    <glyph glyph-name="six.sup" unicode="&#x2076;" horiz-adv-x="405" 
d="M231 229q-73 0 -113.5 45t-38.5 118q2 135 106.5 227.5t282.5 102.5v-35q-201 -29 -266 -176l5 -4q46 46 100 46q55 0 90 -33.5t34 -91.5q-2 -80 -57.5 -139.5t-142.5 -59.5zM226 266q42 0 72 56t32 118q1 72 -50 72q-43 0 -74.5 -53t-31.5 -118q0 -75 52 -75z" />
    <glyph glyph-name="seven.sup" unicode="&#x2077;" horiz-adv-x="405" 
d="M94 233l1 22l328 365h-155q-41 0 -57.5 -14.5t-42.5 -63.5l-30 1l50 162h303l10 -33l-181 -245l-133 -194h-93z" />
    <glyph glyph-name="eight.sup" unicode="&#x2078;" horiz-adv-x="405" 
d="M227 229q-77 0 -119.5 31.5t-42.5 80.5q0 91 132 128q-58 45 -58 103t50 100.5t127 42.5q67 0 106.5 -32t39.5 -79q0 -84 -117 -118q70 -51 70 -108q0 -65 -55 -107t-133 -42zM237 442l-16 9q-66 -40 -66 -108q0 -36 21.5 -57t55.5 -21q35 0 58.5 23t23.5 59
q0 28 -19 49.5t-58 45.5zM241 603q0 -29 18 -51t59 -48q57 39 57 105q0 30 -16 50t-47 20q-30 0 -50.5 -21t-20.5 -55z" />
    <glyph glyph-name="nine.sup" unicode="&#x2079;" horiz-adv-x="405" 
d="M304 715q73 0 113.5 -45t38.5 -118q-2 -135 -106.5 -227.5t-282.5 -102.5v35q202 29 267 175l-6 5q-43 -46 -100 -46q-55 0 -90 33.5t-34 91.5q2 80 57.5 139.5t142.5 59.5zM309 678q-42 0 -72 -56t-32 -118q-1 -72 50 -72q43 0 74.5 53t31.5 118q0 75 -52 75z" />
    <glyph glyph-name="zero.inf" unicode="&#x2080;" horiz-adv-x="405" 
d="M54 -85q0 -80 48 -80q41 0 76.5 62.5t53.5 137t18 128.5q0 79 -48 79q-41 0 -76.5 -62t-53.5 -136.5t-18 -128.5zM343 114q0 -69 -27.5 -140.5t-85 -124.5t-129.5 -53q-68 0 -104.5 44.5t-36.5 123.5q0 69 28 140.5t85.5 124.5t129.5 53q68 0 104 -44.5t36 -123.5z" />
    <glyph glyph-name="one.inf" unicode="&#x2081;" horiz-adv-x="405" 
d="M57 228l9 35l211 15l-107 -399q-2 -9 1 -14.5t15 -9.5t33 -6t55 -2l-10 -36h-319l10 36q62 1 86 8t28 24l80 295q8 32 -8 43t-84 11z" />
    <glyph glyph-name="two.inf" unicode="&#x2082;" horiz-adv-x="405" 
d="M-76 -189l16 64l133 93q90 63 124.5 109.5t35.5 94.5q0 33 -16.5 53t-49.5 20q-43 0 -74 -31q38 -15 38 -55q0 -22 -15 -39t-41 -17q-25 0 -41.5 16.5t-16.5 42.5q0 51 53.5 86.5t122.5 35.5q73 0 110.5 -30.5t37.5 -80.5q0 -53 -44.5 -98.5t-138.5 -102.5l-123 -72
l-1 -8h132q36 0 55 14t46 58l25 -1l-45 -152h-323z" />
    <glyph glyph-name="three.inf" unicode="&#x2083;" horiz-adv-x="405" 
d="M107 -204q-70 0 -116 28t-46 73q0 27 17 45t45 18q23 0 38 -14.5t15 -37.5q0 -19 -11.5 -33t-26.5 -19q25 -23 69 -23q40 0 66 26q32 30 32 81q0 36 -21 56t-76 28l11 40q71 4 107 39q28 28 28 71q0 71 -69 71q-38 0 -62 -19q33 -15 33 -49q0 -21 -14 -36.5t-40 -15.5
q-25 0 -40.5 15t-15.5 38q0 45 47 74.5t115 29.5q75 0 112.5 -30t37.5 -75q0 -112 -181 -133l-1 -6q68 -8 100 -37t32 -70q0 -57 -50.5 -96t-134.5 -39z" />
    <glyph glyph-name="four.inf" unicode="&#x2084;" horiz-adv-x="405" 
d="M313 -55h-72l-18 -68q-4 -16 7.5 -22.5t41.5 -7.5l-10 -36h-216l10 36q69 1 77 30l18 68h-202l14 55l264 286l106 -2l-77 -284h72zM210 213l-196 -213h152l57 212z" />
    <glyph glyph-name="five.inf" unicode="&#x2085;" horiz-adv-x="405" 
d="M92 -205q-64 0 -102.5 29t-38.5 71q0 26 16.5 44t44.5 18q24 0 37.5 -14.5t13.5 -35.5q0 -37 -34 -55q19 -19 56 -19q46 0 76 39.5t30 99.5q0 78 -69 78q-38 0 -89 -28l-19 19l74 231h275l-36 -81h-215l-41 -121q46 23 95 23q62 0 96.5 -31.5t34.5 -82.5
q0 -72 -57.5 -128t-147.5 -56z" />
    <glyph glyph-name="six.inf" unicode="&#x2086;" horiz-adv-x="405" 
d="M116 -204q-74 0 -115.5 44t-39.5 117q3 142 112.5 232t280.5 100l1 -35q-203 -29 -268 -176l5 -4q46 46 102 46q54 0 89 -33.5t34 -91.5q-2 -80 -58 -139.5t-143 -59.5zM112 -168q42 0 72 57t31 119q1 71 -50 71q-43 0 -75.5 -53.5t-32.5 -118.5q0 -34 14 -54.5t41 -20.5
z" />
    <glyph glyph-name="seven.inf" unicode="&#x2087;" horiz-adv-x="405" 
d="M-22 -201l2 22l328 366h-155q-41 0 -57.5 -14.5t-42.5 -63.5l-30 1l50 162h303l10 -33l-181 -245l-133 -195h-94z" />
    <glyph glyph-name="eight.inf" unicode="&#x2088;" horiz-adv-x="405" 
d="M111 -204q-79 0 -121.5 31t-42.5 81q0 91 134 128q-60 46 -60 102q0 58 51 101t128 43q68 0 108.5 -32t40.5 -79q0 -83 -120 -118q73 -50 73 -107q0 -65 -55.5 -107.5t-135.5 -42.5zM121 9q-14 8 -16 10q-68 -41 -68 -109q0 -36 22 -57.5t57 -21.5q36 0 60.5 23.5
t24.5 59.5q0 28 -20 49t-60 46zM123 170q0 -29 18.5 -51t61.5 -48q59 39 59 105q0 30 -17 50t-48 20t-52.5 -21t-21.5 -55z" />
    <glyph glyph-name="nine.inf" unicode="&#x2089;" horiz-adv-x="405" 
d="M188 282q74 0 115.5 -44t39.5 -118q-3 -143 -112.5 -232.5t-280.5 -98.5l-1 34q204 29 269 176l-5 5q-44 -46 -102 -46q-55 0 -90 33.5t-34 91.5q1 79 57.5 139t143.5 60zM193 245q-42 0 -72 -56.5t-32 -118.5q-1 -71 50 -71q43 0 75.5 53.5t32.5 118.5q0 74 -54 74z" />
    <glyph glyph-name="colonmonetary" unicode="&#x20a1;" horiz-adv-x="613" 
d="M164 -138h-51l70 162q-91 64 -91 207q0 66 23.5 134t66 127.5t112 99t151.5 42.5l48 111h51l-48 -112q40 -6 69 -23l58 135h51l-71 -165q29 -32 29 -74q0 -35 -22 -60t-56 -25q-12 0 -23 3l-164 -378q76 0 159 92l32 -26q-99 -117 -212 -127l-53 -123h-51l53 124
q-35 3 -70 16zM262 100q25 -37 67 -49l170 394q-13 14 -13 39q0 52 52 76q-25 30 -64 34zM233 221q0 -41 9 -74l190 443q-60 -14 -107 -77t-69.5 -140.5t-22.5 -151.5z" />
    <glyph glyph-name="naira" unicode="&#x20a6;" horiz-adv-x="802" 
d="M797 236h-143l-67 -248h-136l-57 244h-170l-16 -61q-20 -70 -6.5 -99t77.5 -36l-9 -36h-249l10 36q59 7 86 36.5t47 104.5l16 59h-146l13 44h144l20 75h-145l12 44h145l28 103q10 37 -5.5 57.5t-72.5 21.5l11 39h249l49 -217h170l13 47q20 70 6 98.5t-76 35.5l9 36h244
l-10 -36q-59 -7 -83.5 -35.5t-44.5 -104.5l-12 -45h143l-12 -44h-143l-20 -75h143zM490 365l19 -81h111l22 81h-152zM256 351l-22 -81h151l-18 81h-111zM548 113h27l35 133h-93zM299 510l-33 -121h92l-28 121h-31z" />
    <glyph glyph-name="rupee" unicode="&#x20a8;" horiz-adv-x="1033" 
d="M998 343q0 -26 -14 -41.5t-40 -15.5q-22 0 -37 13t-15 32q0 28 19 44q-16 21 -57 21q-35 0 -56 -18t-21 -45q0 -23 16.5 -39t66.5 -40q54 -26 77 -51.5t23 -65.5q0 -59 -49 -102.5t-138 -43.5q-59 0 -104.5 25.5t-45.5 65.5q0 27 15.5 43.5t40.5 16.5q23 0 37.5 -13
t14.5 -36q0 -21 -18 -41q6 -8 26 -15t42 -7q39 0 63 18t24 47q0 24 -16.5 39.5t-64.5 38.5q-52 24 -77.5 50.5t-25.5 64.5q0 59 49 102t129 43q56 0 96 -26.5t40 -63.5zM283 327h56q79 0 122 46t43 114q0 91 -112 91h-42zM273 287l-55 -205q-7 -26 6.5 -34t68.5 -10l-11 -38
h-305l10 38q52 2 73 11.5t27 32.5l122 456q7 25 -7.5 33t-70.5 10l10 39h276q115 0 167.5 -38.5t52.5 -103.5q0 -62 -55.5 -108t-152.5 -57l-1 -4q81 -11 107.5 -42t24.5 -101l-3 -65q-1 -39 12 -52t55 -17l-10 -38q-11 -1 -47 -1q-99 0 -125.5 25t-20.5 94l6 67
q6 61 -13 84.5t-86 23.5h-55z" />
    <glyph glyph-name="won" unicode="&#x20a9;" horiz-adv-x="969" 
d="M898 448l-3 -6h117l-10 -38h-126l-51 -101h150l-10 -38h-159l-140 -281h-124l-13 365l-180 -365h-125l-21 281h-202l10 38h189l-8 101h-154l10 38h141l-5 73q-2 32 -18.5 45.5t-63.5 22.5l10 37h283l-10 -39q-49 -4 -60 -15t-9 -45l5 -81h204l1 1l-3 77q-1 33 -14 46
t-58 19l10 37h273l-10 -39q-49 -2 -62 -14t-13 -46l1 -81h187l2 3q38 74 32.5 103t-64.5 38l9 36h238l-9 -36q-51 -11 -81 -39.5t-66 -96.5zM323 406l6 -105h128l52 105h-186zM651 406l2 -105h117l51 105h-170zM342 88h10l88 179h-109zM658 88h10l86 179h-100z" />
    <glyph glyph-name="sheqel" unicode="&#x20aa;" horiz-adv-x="602" 
d="M162 389l-104 -389h-54l134 503h146q92 0 128 -21t36 -64q0 -55 -70 -210h-31q20 86 20 118q0 38 -30 50.5t-91 12.5h-84zM231 114h64q92 0 127 24q34 24 56 86t80 283l38 -5q-68 -337 -80 -385q-17 -64 -67.5 -90.5t-162.5 -26.5h-137l79 295h51z" />
    <glyph glyph-name="Euro" unicode="&#x20ac;" horiz-adv-x="635" 
d="M416 225h-164v-8q0 -82 36.5 -126t106.5 -44q84 0 166 91l31 -26q-55 -65 -112.5 -96.5t-136.5 -31.5q-109 0 -169.5 65.5t-62.5 175.5h-95l12 44h85q3 40 15 78h-79l11 44h84q43 106 131.5 175t210.5 69q77 0 125 -36.5t48 -90.5q0 -36 -22.5 -61t-57.5 -25
q-30 0 -49.5 18t-19.5 46q0 51 54 75q-23 32 -77 33q-68 0 -121 -57.5t-84 -145.5h178l-11 -44h-180q-10 -42 -14 -78h173z" />
    <glyph glyph-name="peso" unicode="&#x20b1;" horiz-adv-x="700" 
d="M171 620h238q73 0 123.5 -13.5t76 -38.5t35.5 -52.5t10 -61.5v-7h109l-12 -44h-104q-20 -79 -98 -128.5t-200 -49.5h-65l-37 -140q-7 -26 8 -35t74 -11l-11 -39h-314l11 39q52 2 73 12t27 32l85 320h-155l12 44h154l24 88q7 27 -6.5 35.5t-69.5 10.5zM295 267h46
q71 0 115 37t59 101h-183zM379 578l-36 -133h178q0 4 0.5 12t0.5 12q0 109 -117 109h-26z" />
    <glyph glyph-name="published" unicode="&#x2117;" horiz-adv-x="791" 
d="M222 153l9 32q31 1 43 6.5t16 18.5l67 252q4 14 -4.5 19t-41.5 6l8 32h151q75 0 111 -27.5t36 -71.5q0 -47 -48 -83.5t-126 -36.5h-47l-24 -89q-5 -15 5 -20t45 -6l-9 -32h-191zM405 335h35q46 0 69.5 27.5t23.5 70.5q0 52 -73 52h-16zM380 -32q-142 0 -228.5 86
t-86.5 223q0 111 48.5 205t139.5 151t205 57q142 0 229 -86t87 -222q0 -111 -49 -205.5t-140 -151.5t-205 -57zM388 6q148 0 243.5 112t95.5 265q0 120 -77 195t-199 75q-149 0 -244.5 -112t-95.5 -266q0 -120 77 -194.5t200 -74.5z" />
    <glyph glyph-name="servicemark" unicode="&#x2120;" horiz-adv-x="802" 
d="M92 351l30 117h25q24 -87 89 -87q27 0 41.5 14t14.5 33q0 16 -12.5 27.5t-45.5 25.5q-43 18 -62 36.5t-19 48.5q0 42 34.5 70t87.5 28q41 0 75 -19l21 21h23l-28 -105h-25q-18 75 -73 75q-21 0 -36 -11.5t-15 -30.5q0 -15 14 -26t48 -26q39 -17 56.5 -35.5t17.5 -48.5
q0 -44 -33.5 -74.5t-92.5 -30.5q-47 0 -89 21l-23 -23h-23zM375 388q30 4 43 15t21 42l41 152q4 13 -5.5 23t-34.5 11l7 27h153l10 -203h8l116 203h159l-7 -27q-47 -1 -53 -25l-51 -192q-4 -13 5 -18.5t35 -6.5l-7 -28h-153l7 28q35 2 42 25l51 191h-21l-141 -244h-49
l-17 244h-16l-43 -160q-9 -31 -5.5 -41.5t28.5 -15.5l-7 -27h-123z" />
    <glyph glyph-name="trademark" unicode="&#x2122;" horiz-adv-x="877" 
d="M417 361l7 27q30 4 43 15t21 42l41 152q4 13 -5.5 23t-34.5 11l7 27h153l10 -203h8l116 203h159l-7 -27q-47 -1 -53 -25l-51 -192q-4 -13 5 -18.5t35 -6.5l-7 -28h-153l7 28q35 2 42 25l51 191h-21l-141 -244h-49l-17 244h-16l-43 -160q-9 -31 -5.5 -41.5t28.5 -15.5
l-7 -27h-123zM139 361l7 28q54 1 60 24l58 217h-11q-28 0 -50.5 -21t-50.5 -66l-28 1l33 114h296l-26 -114l-29 -1q-3 43 -14 65t-40 22h-9l-59 -217q-3 -11 8 -17t41 -7l-7 -28h-179z" />
    <glyph glyph-name="onethird" unicode="&#x2153;" horiz-adv-x="1080" 
d="M803 -82q-70 0 -116 28t-46 73q0 27 17 45t45 18q23 0 38 -14.5t15 -37.5q0 -19 -11.5 -33t-26.5 -19q25 -23 69 -23q40 0 66 26q32 30 32 81q0 36 -21 56t-76 28l11 40q71 4 107 39q28 28 28 71q0 71 -69 71q-38 0 -62 -19q33 -15 33 -49q0 -21 -14 -36.5t-40 -15.5
q-25 0 -40.5 15t-15.5 38q0 45 47 74.5t115 29.5q75 0 112.5 -30t37.5 -75q0 -112 -181 -133l-1 -6q68 -8 100 -37t32 -70q0 -57 -50.5 -96t-134.5 -39zM119 587l9 35l211 15l-107 -399q-2 -8 1 -13.5t15 -9.5t33 -6t55 -2l-10 -37h-319l10 37q62 1 86 7.5t28 23.5l80 295
q8 32 -8 43t-84 11zM178 -82l350 376l323 349h70l-326 -349l-347 -376h-70z" />
    <glyph glyph-name="twothirds" unicode="&#x2154;" horiz-adv-x="1080" 
d="M818 -82q-70 0 -116 28t-46 73q0 27 17 45t45 18q23 0 38 -14.5t15 -37.5q0 -19 -11.5 -33t-26.5 -19q25 -23 69 -23q40 0 66 26q32 30 32 81q0 36 -21 56t-76 28l11 40q71 4 107 39q28 28 28 71q0 71 -69 71q-38 0 -62 -19q33 -15 33 -49q0 -21 -14 -36.5t-40 -15.5
q-25 0 -40.5 15t-15.5 38q0 45 47 74.5t115 29.5q75 0 112.5 -30t37.5 -75q0 -112 -181 -133l-1 -6q68 -8 100 -37t32 -70q0 -57 -50.5 -96t-134.5 -39zM6 170l17 65l132 92q90 63 124.5 109.5t35.5 94.5q0 33 -16.5 53t-49.5 20q-43 0 -74 -31q38 -15 38 -55q0 -22 -15 -39
t-41 -17q-25 0 -41.5 16.5t-16.5 42.5q0 51 53.5 86.5t122.5 35.5q73 0 110.5 -30.5t37.5 -80.5q0 -53 -44.5 -98.5t-138.5 -102.5l-123 -72l-1 -8h132q36 0 55 14t46 58l25 -1l-45 -152h-323zM193 -82l350 376l323 349h70l-326 -349l-347 -376h-70z" />
    <glyph glyph-name="onefifth" unicode="&#x2155;" horiz-adv-x="1080" 
d="M778 -83q-64 0 -102.5 29t-38.5 71q0 26 16.5 44t44.5 18q24 0 37.5 -14.5t13.5 -35.5q0 -37 -34 -55q19 -19 56 -19q46 0 76 39.5t30 99.5q0 78 -69 78q-38 0 -89 -28l-19 19l74 231h275l-36 -81h-215l-41 -121q46 23 95 23q62 0 96.5 -31.5t34.5 -82.5
q0 -72 -57.5 -128t-147.5 -56zM111 587l9 35l211 15l-107 -399q-2 -8 1 -13.5t15 -9.5t33 -6t55 -2l-10 -37h-319l10 37q62 1 86 7.5t28 23.5l80 295q8 32 -8 43t-84 11zM170 -82l350 376l323 349h70l-326 -349l-347 -376h-70z" />
    <glyph glyph-name="twofifths" unicode="&#x2156;" horiz-adv-x="1080" 
d="M778 -83q-64 0 -102.5 29t-38.5 71q0 26 16.5 44t44.5 18q24 0 37.5 -14.5t13.5 -35.5q0 -37 -34 -55q19 -19 56 -19q46 0 76 39.5t30 99.5q0 78 -69 78q-38 0 -89 -28l-19 19l74 231h275l-36 -81h-215l-41 -121q46 23 95 23q62 0 96.5 -31.5t34.5 -82.5
q0 -72 -57.5 -128t-147.5 -56zM170 -82l350 376l323 349h70l-326 -349l-347 -376h-70zM-17 170l17 65l132 92q90 63 124.5 109.5t35.5 94.5q0 33 -16.5 53t-49.5 20q-43 0 -74 -31q38 -15 38 -55q0 -22 -15 -39t-41 -17q-25 0 -41.5 16.5t-16.5 42.5q0 51 53.5 86.5
t122.5 35.5q73 0 110.5 -30.5t37.5 -80.5q0 -53 -44.5 -98.5t-138.5 -102.5l-123 -72l-1 -8h132q36 0 55 14t46 58l25 -1l-45 -152h-323z" />
    <glyph glyph-name="threefifths" unicode="&#x2157;" horiz-adv-x="1080" 
d="M778 -83q-64 0 -102.5 29t-38.5 71q0 26 16.5 44t44.5 18q24 0 37.5 -14.5t13.5 -35.5q0 -37 -34 -55q19 -19 56 -19q46 0 76 39.5t30 99.5q0 78 -69 78q-38 0 -89 -28l-19 19l74 231h275l-36 -81h-215l-41 -121q46 23 95 23q62 0 96.5 -31.5t34.5 -82.5
q0 -72 -57.5 -128t-147.5 -56zM170 -82l350 376l323 349h70l-326 -349l-347 -376h-70zM213 157q-71 0 -116.5 28t-45.5 73q0 27 17 45t44 18q23 0 38 -14.5t15 -37.5q0 -39 -37 -52q23 -23 69 -23q38 0 66 26q31 31 31 81q0 36 -21 56t-75 28l10 40q71 3 109 39q29 27 29 71
q0 71 -71 71q-40 0 -64 -19q34 -15 34 -49q0 -21 -14 -37t-40 -16t-41.5 15.5t-15.5 38.5q0 44 47.5 74t116.5 30q75 0 112 -30t37 -75q0 -112 -180 -133l-2 -6q68 -8 100.5 -37.5t32.5 -69.5q0 -57 -50.5 -96t-134.5 -39z" />
    <glyph glyph-name="fourfifths" unicode="&#x2158;" horiz-adv-x="1080" 
d="M372 304h-71l-18 -68q-4 -16 7 -22t42 -7l-10 -37h-217l10 37q70 1 77 29l18 68h-201l14 55l263 286l106 -2l-76 -284h71zM793 -83q-64 0 -102.5 29t-38.5 71q0 26 16.5 44t44.5 18q24 0 37.5 -14.5t13.5 -35.5q0 -37 -34 -55q19 -19 56 -19q46 0 76 39.5t30 99.5
q0 78 -69 78q-38 0 -89 -28l-19 19l74 231h275l-36 -81h-215l-41 -121q46 23 95 23q62 0 96.5 -31.5t34.5 -82.5q0 -72 -57.5 -128t-147.5 -56zM185 -82l350 376l323 349h70l-326 -349l-347 -376h-70zM269 572l-195 -213h151l57 212z" />
    <glyph glyph-name="onesixth" unicode="&#x2159;" horiz-adv-x="1080" 
d="M768 -82q-74 0 -115.5 44t-39.5 117q3 142 112.5 232t280.5 100l1 -35q-203 -29 -268 -176l5 -4q46 46 102 46q54 0 89 -33.5t34 -91.5q-2 -80 -58 -139.5t-143 -59.5zM764 -46q42 0 72 57t31 119q1 71 -50 71q-43 0 -75.5 -53.5t-32.5 -118.5q0 -34 14 -54.5t41 -20.5z
M111 587l9 35l211 15l-107 -399q-2 -8 1 -13.5t15 -9.5t33 -6t55 -2l-10 -37h-319l10 37q62 1 86 7.5t28 23.5l80 295q8 32 -8 43t-84 11zM170 -82l350 376l323 349h70l-326 -349l-347 -376h-70z" />
    <glyph glyph-name="fivesixths" unicode="&#x215a;" horiz-adv-x="1080" 
d="M768 -82q-74 0 -115.5 44t-39.5 117q3 142 112.5 232t280.5 100l1 -35q-203 -29 -268 -176l5 -4q46 46 102 46q54 0 89 -33.5t34 -91.5q-2 -80 -58 -139.5t-143 -59.5zM764 -46q42 0 72 57t31 119q1 71 -50 71q-43 0 -75.5 -53.5t-32.5 -118.5q0 -34 14 -54.5t41 -20.5z
M158 157q-64 0 -102.5 28.5t-38.5 70.5q0 26 17 44.5t44 18.5q24 0 37.5 -15t13.5 -36q0 -36 -34 -54q19 -19 56 -19q46 0 76 39t30 99q0 78 -69 78q-38 0 -89 -28l-19 20l74 230h275l-36 -81h-215l-41 -120q46 23 95 23q62 0 96.5 -32t34.5 -83q0 -72 -57.5 -127.5
t-147.5 -55.5zM170 -82l350 376l323 349h70l-326 -349l-347 -376h-70z" />
    <glyph glyph-name="oneeighth" unicode="&#x215b;" horiz-adv-x="1080" 
d="M788 -82q-78 0 -121 31t-43 81q0 91 134 128q-60 46 -60 102q0 58 51 101t128 43q68 0 108.5 -32t40.5 -79q0 -83 -120 -118q73 -50 73 -107q0 -65 -55.5 -107.5t-135.5 -42.5zM116 587l9 35l211 15l-107 -399q-2 -8 1 -13.5t15 -9.5t33 -6t55 -2l-10 -37h-319l10 37
q62 1 86 7.5t28 23.5l80 295q8 32 -8 43t-84 11zM175 -82l350 376l323 349h70l-326 -349l-347 -376h-70zM798 131q-14 8 -16 10q-68 -43 -68 -109q0 -36 22 -57.5t57 -21.5q36 0 60.5 23.5t24.5 59.5q0 28 -20 49t-60 46zM800 292q0 -29 18.5 -51t61.5 -48q59 39 59 105
q0 30 -17 50t-48 20t-52.5 -21t-21.5 -55z" />
    <glyph glyph-name="threeeighths" unicode="&#x215c;" horiz-adv-x="1080" 
d="M788 -82q-78 0 -121 31t-43 81q0 91 134 128q-60 46 -60 102q0 58 51 101t128 43q68 0 108.5 -32t40.5 -79q0 -83 -120 -118q73 -50 73 -107q0 -65 -55.5 -107.5t-135.5 -42.5zM208 157q-71 0 -116.5 28t-45.5 73q0 27 17 45t44 18q23 0 38 -14.5t15 -37.5q0 -39 -37 -52
q23 -23 69 -23q38 0 66 26q31 31 31 81q0 36 -21 56t-75 28l10 40q71 3 109 39q29 27 29 71q0 71 -71 71q-40 0 -64 -19q34 -15 34 -49q0 -21 -14 -37t-40 -16t-41.5 15.5t-15.5 38.5q0 44 47.5 74t116.5 30q75 0 112 -30t37 -75q0 -112 -180 -133l-2 -6q68 -8 100.5 -37.5
t32.5 -69.5q0 -57 -50.5 -96t-134.5 -39zM175 -82l350 376l323 349h70l-326 -349l-347 -376h-70zM798 131q-14 8 -16 10q-68 -43 -68 -109q0 -36 22 -57.5t57 -21.5q36 0 60.5 23.5t24.5 59.5q0 28 -20 49t-60 46zM800 292q0 -29 18.5 -51t61.5 -48q59 39 59 105
q0 30 -17 50t-48 20t-52.5 -21t-21.5 -55z" />
    <glyph glyph-name="fiveeighths" unicode="&#x215d;" horiz-adv-x="1080" 
d="M793 -82q-79 0 -121.5 31t-42.5 81q0 91 134 128q-60 46 -60 102q0 58 51 101t128 43q68 0 108.5 -32t40.5 -79q0 -83 -120 -118q73 -50 73 -107q0 -65 -55.5 -107.5t-135.5 -42.5zM168 157q-64 0 -102.5 28.5t-38.5 70.5q0 26 17 44.5t44 18.5q24 0 37.5 -15t13.5 -36
q0 -36 -34 -54q19 -19 56 -19q46 0 76 39t30 99q0 78 -69 78q-38 0 -89 -28l-19 20l74 230h275l-36 -81h-215l-41 -120q46 23 95 23q62 0 96.5 -32t34.5 -83q0 -72 -57.5 -127.5t-147.5 -55.5zM180 -82l350 376l323 349h70l-326 -349l-347 -376h-70zM803 131q-14 8 -16 10
q-68 -43 -68 -109q0 -36 22 -57.5t57 -21.5q36 0 60.5 23.5t24.5 59.5q0 28 -20 49t-60 46zM805 292q0 -29 18.5 -51t61.5 -48q59 39 59 105q0 30 -17 50t-48 20t-52.5 -21t-21.5 -55z" />
    <glyph glyph-name="seveneighths" unicode="&#x215e;" horiz-adv-x="1080" 
d="M763 -82q-79 0 -121.5 31t-42.5 81q0 91 134 128q-60 46 -60 102q0 58 51 101t128 43q68 0 108.5 -32t40.5 -79q0 -83 -120 -118q73 -50 73 -107q0 -65 -55.5 -107.5t-135.5 -42.5zM83 161l1 22l328 365h-155q-41 0 -57.5 -14.5t-42.5 -63.5l-30 1l50 162h303l10 -33
l-181 -245l-133 -194h-93zM138 -82l350 376l323 349h70l-326 -349l-347 -376h-70zM773 131q-14 8 -16 10q-68 -43 -68 -109q0 -36 22 -57.5t57 -21.5q36 0 60.5 23.5t24.5 59.5q0 28 -20 49t-60 46zM775 292q0 -29 18.5 -51t61.5 -48q59 39 59 105q0 30 -17 50t-48 20
t-52.5 -21t-21.5 -55z" />
    <glyph glyph-name="minus" unicode="&#x2212;" horiz-adv-x="525" 
d="M485 276h-422l17 63h422z" />
    <glyph glyph-name="spade" unicode="&#x2660;" horiz-adv-x="640" 
d="M304 275l-16 1l-5 -21q-27 -114 -114 -114q-48 0 -79.5 34t-31.5 88q0 152 258 374h8q258 -222 258 -374q0 -54 -31.5 -88t-79.5 -34q-87 0 -114 114l-5 21l-16 -1l6 -79q10 -113 50 -185v-11h-144v11q41 75 50 185z" />
    <glyph glyph-name="club" unicode="&#x2663;" horiz-adv-x="640" 
d="M284 354q-93 54 -93 137q0 54 38 92.5t91 38.5t91 -38.5t38 -92.5q0 -83 -93 -137l20 -26l20 18q45 40 92 40q52 0 87 -35.5t35 -88.5q0 -55 -34.5 -91t-87.5 -36q-100 0 -126 118l-2 9l-24 -3l5 -46q14 -134 51 -202v-11h-144v11q37 68 51 202l5 46l-24 3l-2 -9
q-27 -118 -126 -118q-53 0 -87.5 36t-34.5 91q0 53 35 88.5t87 35.5q47 0 92 -40l20 -18z" />
    <glyph glyph-name="heart" unicode="&#x2665;" horiz-adv-x="640" 
d="M591 454q0 -83 -67 -193.5t-200 -279.5h-8q-133 169 -200 279.5t-67 193.5q0 74 35.5 120.5t90.5 46.5q114 0 139 -160h12q25 160 139 160q55 0 90.5 -46.5t35.5 -120.5z" />
    <glyph glyph-name="diamond" unicode="&#x2666;" horiz-adv-x="640" 
d="M581 304l-257 -323h-8l-257 323v10l257 323h8l257 -323v-10z" />
    <glyph glyph-name="box.1" unicode="&#xe000;" horiz-adv-x="751" 
d="M69 0v612h612v-612h-612z" />
    <glyph glyph-name="box.2" unicode="&#xe001;" 
d="M69 0v612h612v-612h-612zM114 40h522v532h-522v-532z" />
    <glyph glyph-name="box.3" unicode="&#xe002;" 
d="M69 0v612h612v-612h-612zM114 40h522v532h-522v-532zM375 276l-153 -157l-34 34l157 153l-157 153l34 34l153 -157l153 157l34 -34l-157 -153l157 -153l-34 -34z" />
    <glyph glyph-name="box.4" unicode="&#xe003;" 
d="M69 0v612h612v-612h-612zM114 40h522v532h-522v-532zM244 173l131 1l131 -1l-1 133l1 133l-131 -1l-131 1l1 -133z" />
    <glyph glyph-name="dot.1" unicode="&#xe004;" 
d="M375 628q133 0 227.5 -94.5t94.5 -227.5t-94.5 -227t-227.5 -94t-227.5 94t-94.5 227t94.5 227.5t227.5 94.5z" />
    <glyph glyph-name="dot.2" unicode="&#xe005;" 
d="M375 628q137 0 229.5 -94t92.5 -228t-92.5 -227.5t-229.5 -93.5t-229.5 93.5t-92.5 227.5t92.5 228t229.5 94zM375 588q-119 0 -198 -82.5t-79 -199.5t79 -199t198 -82t198 82t79 199t-79 199.5t-198 82.5z" />
    <glyph glyph-name="dot.3" unicode="&#xe006;" 
d="M375 628q137 0 229.5 -94t92.5 -228t-92.5 -227.5t-229.5 -93.5t-229.5 93.5t-92.5 227.5t92.5 228t229.5 94zM375 588q-119 0 -198 -82.5t-79 -199.5t79 -199t198 -82t198 82t79 199t-79 199.5t-198 82.5zM375 276l-129 -133l-34 34l133 129l-133 129l34 34l129 -133
l129 133l34 -34l-133 -129l133 -129l-34 -34z" />
    <glyph glyph-name="dot.4" unicode="&#xe007;" 
d="M375 628q137 0 229.5 -94t92.5 -228t-92.5 -227.5t-229.5 -93.5t-229.5 93.5t-92.5 227.5t92.5 228t229.5 94zM375 588q-119 0 -198 -82.5t-79 -199.5t79 -199t198 -82t198 82t79 199t-79 199.5t-198 82.5zM375 447q60 0 99.5 -41t39.5 -100t-39.5 -99.5t-99.5 -40.5
q-59 0 -99 41t-40 99t40 99.5t99 41.5z" />
    <glyph glyph-name="star.1" unicode="&#xe008;" 
d="M458 405l254 7l7 -17l-210 -138l91 -240l-15 -11l-210 162l-210 -162l-15 11l91 240l-210 138l7 17l254 -7l74 242h18z" />
    <glyph glyph-name="star.1_L" unicode="&#xe009;" horiz-adv-x="450" 
d="M375 168l-210 -162l-15 11l91 240l-210 138l7 17l254 -7l67 242h16v-479z" />
    <glyph glyph-name="fist.1_W" unicode="&#xe00a;" horiz-adv-x="1500" 
d="M780 97q3 -11 3 -18q0 -23 -28 -37q-42 -21 -93 -21q-35 4 -63 30q-16 15 -23 45q-28 -6 -51 -3q-29 8 -44.5 36.5t-18.5 58.5q-50 7 -64 25q-24 31 -24 69q2 15 26 35t89 62q-10 0 -55 1.5t-75 1.5q-31 0 -119 -17t-121 -17q-29 0 -46 17.5t-17 38.5q0 25 25 42
q34 9 147.5 32.5t133.5 26.5q20 2 167 13.5t167 11.5q53 0 377 -61v-11q0 -45 8 -113t15 -89l12 7v31q0 192 18 224q13 12 134 12q87 0 144 -5v-479q-68 -6 -147 -6q-123 0 -137 13q-9 35 -15 135q-33 -22 -111 -52t-111 -35q-32 -4 -103 -4z" />
    <glyph glyph-name="fist.1_E" unicode="&#xe00b;" horiz-adv-x="1500" 
d="M720 97q-71 0 -103 4q-33 5 -111 35t-111 52q-6 -100 -15 -135q-14 -13 -137 -13q-79 0 -147 6v479q57 5 144 5q121 0 134 -12q18 -32 18 -224v-31l12 -7q7 21 15 89t8 113v11q324 61 377 61q20 0 167 -11.5t167 -13.5q20 -3 133.5 -26.5t147.5 -32.5q25 -17 25 -42
q0 -21 -17 -38.5t-46 -17.5q-33 0 -121 17t-119 17q-30 0 -75 -1.5t-55 -1.5q65 -42 89 -62t26 -35q0 -38 -24 -69q-14 -18 -64 -25q-3 -30 -18.5 -58.5t-44.5 -36.5q-23 -3 -51 3q-7 -30 -23 -45q-28 -26 -63 -30q-51 0 -93 21q-28 14 -28 37q0 7 3 18z" />
    <glyph glyph-name="fist.2_W" unicode="&#xe00c;" horiz-adv-x="1500" 
d="M1099 530q29 3 80 3h38q0 3 2 17q39 4 121 4q11 0 33 -0.5t31 -0.5v-32q-6 0 -29 0.5t-37 0.5q-60 0 -89 -3q-11 -69 -11 -232q0 -162 11 -230q29 -3 89 -3q51 0 66 1v-32q-9 0 -31 -0.5t-33 -0.5q-82 0 -121 4l-4 44h-36q-51 0 -80 3q-5 41 -9 104q-58 -33 -146.5 -63
t-151.5 -30q-19 0 -40 1q-1 -2 -2.5 -9t-2.5 -11.5t-4 -10.5t-6 -10q-13 -14 -59.5 -27t-77.5 -13q-21 2 -41 25.5t-31 57.5q-4 -2 -16 -2q-3 0 -8 1.5t-15 7.5t-18.5 16t-17 30t-12.5 47q-14 1 -21 7q-14 11 -28.5 38.5t-14.5 52.5q0 45 50 70q35 17 70 31v2
q-147 -6 -226 -16q-106 -13 -135 -13q-35 0 -57.5 21.5t-22.5 48.5q0 30 33 40q24 7 129 26.5t129 22.5q17 2 162.5 10t186.5 8q36 0 398 -59zM1091 448q-361 56 -394 58q-24 0 -174 -6.5t-177 -10.5q-32 -4 -131 -22.5t-110 -22.5q-16 -6 -16 -18q0 -14 14 -26.5t36 -12.5
q6 0 125.5 13t217.5 13q59 0 87 -1l1 -20q-67 -25 -131 -60q-32 -18 -32 -48q0 -13 8 -30t20 -26q13 -3 23 7l8 21q14 10 143 60l7 -12q-85 -48 -104 -63q-23 -18 -31.5 -30t-8.5 -32q0 -16 13.5 -36t23.5 -22q18 2 24 15q1 7 0 20q20 17 119 59l8 -11q-64 -48 -83.5 -66
t-19.5 -35q0 -19 10.5 -38t27.5 -25q14 2 21 13q0 9 -4 17q7 7 50 29t59 29q43 -10 73 -10q57 0 145.5 28.5t147.5 67.5q-2 56 -2 85q0 75 6 149zM1205 288q0 109 10 215h-33q-45 0 -56 -2q-10 -91 -10 -206q0 -111 10 -193q10 -2 46 -2h41q-8 102 -8 188z" />
    <glyph glyph-name="fist.2_E" unicode="&#xe00d;" horiz-adv-x="1500" 
d="M401 530l5 -53q362 59 398 59q41 0 186.5 -8t162.5 -10q24 -3 129 -22.5t129 -26.5q33 -10 33 -40q0 -27 -22.5 -48.5t-57.5 -21.5q-29 0 -135 13q-79 10 -226 16v-2q35 -14 70 -31q50 -25 50 -70q0 -25 -14.5 -52.5t-28.5 -38.5q-7 -6 -21 -7q-3 -17 -7 -31t-9 -24
t-11 -18t-11 -12.5t-11 -8t-10 -5t-7.5 -2.5t-4.5 -1q-12 0 -16 2q-11 -34 -31 -57.5t-41 -25.5q-31 0 -77.5 13t-59.5 27q-3 4 -6 10t-4 10.5t-2.5 11.5t-2.5 9q-21 -1 -40 -1q-63 0 -151.5 30t-146.5 63q-4 -63 -9 -104q-29 -3 -80 -3h-36l-4 -44q-39 -4 -121 -4
q-11 0 -33 0.5t-31 0.5v32q15 -1 66 -1q60 0 89 3q11 68 11 230q0 163 -11 232q-28 3 -89 3q-14 0 -37 -0.5t-29 -0.5v32q9 0 31 0.5t33 0.5q82 0 121 -4q2 -14 2 -17h38q51 0 80 -3zM409 448q6 -74 6 -149q0 -29 -2 -85q59 -39 147.5 -67.5t145.5 -28.5q30 0 73 10
q16 -7 59 -29t50 -29q-4 -8 -4 -17q7 -11 21 -13q17 6 27.5 25t10.5 38q0 17 -19.5 35t-83.5 66l8 11q99 -42 119 -59q-1 -13 0 -20q6 -13 24 -15q10 2 23.5 22t13.5 36q0 20 -8.5 32t-31.5 30q-19 15 -104 63l7 12q129 -50 143 -60l8 -21q10 -10 23 -7q12 9 20 26t8 30
q0 30 -32 48q-64 35 -131 60l1 20q28 1 87 1q98 0 218 -13t125 -13q22 0 36 12.5t14 26.5q0 12 -16 18q-11 4 -110 22.5t-131 22.5q-27 4 -177 10.5t-174 6.5q-33 -2 -394 -58zM295 288q0 -86 -8 -188h41q36 0 46 2q10 83 10 193q0 115 -10 206q-11 2 -56 2h-33
q10 -106 10 -215z" />
    <glyph glyph-name="wedge.1_N" unicode="&#xe00e;" horiz-adv-x="520" 
d="M249 647h22l57 -199l135 -425v-23h-406v23l135 425z" />
    <glyph glyph-name="wedge.1_S" unicode="&#xe00f;" horiz-adv-x="520" 
d="M249 -35l-57 199l-135 425v23h406v-23l-135 -425l-57 -199h-22z" />
    <glyph glyph-name="wedge.1_W" unicode="&#xe010;" 
d="M58 308l567 239h14v-486h-14l-567 239v8z" />
    <glyph glyph-name="wedge.1_E" unicode="&#xe011;" 
d="M692 308v-8l-567 -239h-14v486h14z" />
    <glyph glyph-name="wedge.2_W" unicode="&#xe012;" 
d="M58 310l565 237h16v-486h-16l-565 237v12zM597 112v384h-5l-76 -34l-297 -123l-92 -35l92 -35l297 -123l76 -34h5z" />
    <glyph glyph-name="wedge.2_E" unicode="&#xe013;" 
d="M692 310v-12l-565 -237h-16v486h16zM153 112h5l76 34l297 123l92 35l-92 35l-297 123l-76 34h-5v-384z" />
    <glyph glyph-name="wedge.3_W" unicode="&#xe014;" horiz-adv-x="600" 
d="M85 308l375 376h18v-760h-18l-375 376v8z" />
    <glyph glyph-name="wedge.3_E" unicode="&#xe015;" horiz-adv-x="600" 
d="M515 308v-8l-375 -376h-18v760h18z" />
    <glyph glyph-name="wedge.4_W" unicode="&#xe016;" horiz-adv-x="600" 
d="M68 310l375 374h35v-760h-35l-375 374v12zM437 -15v638h-7l-41 -47l-271 -272l271 -272l41 -47h7z" />
    <glyph glyph-name="wedge.4_E" unicode="&#xe017;" horiz-adv-x="600" 
d="M532 310v-12l-375 -374h-35v760h35zM163 -15h7l41 47l271 272l-271 272l-41 47h-7v-638z" />
    <glyph glyph-name="chevron.1_W" unicode="&#xe018;" horiz-adv-x="600" 
d="M106 310l308 372l38 -34l-281 -342l281 -342l-38 -34l-308 372v8z" />
    <glyph glyph-name="chevron.1_E" unicode="&#xe019;" horiz-adv-x="600" 
d="M494 310v-8l-308 -372l-38 34l281 342l-281 342l38 34z" />
    <glyph glyph-name="chevron.2_W" unicode="&#xe01a;" horiz-adv-x="600" 
d="M67 304v2l319 393l108 -94l-247 -300l247 -300l-108 -94z" />
    <glyph glyph-name="chevron.2_E" unicode="&#xe01b;" horiz-adv-x="600" 
d="M532 304l-319 -393l-108 94l247 300l-247 300l108 94l319 -393v-2z" />
    <glyph glyph-name="arrow.1_N" unicode="&#xe01c;" 
d="M100 350l271 288h8l271 -288l-37 -34l-180 194l-34 43l3 -71v-482h-54v482l3 68l-34 -43l-180 -191z" />
    <glyph glyph-name="arrow.1_W" unicode="&#xe01d;" 
d="M352 32l-289 270v8l289 270l34 -37l-195 -182l-43 -34l71 3h454v-48h-454l-68 3l43 -34l192 -182z" />
    <glyph glyph-name="arrow.1_S" unicode="&#xe01e;" 
d="M100 262l37 34l180 -194l34 -43l-3 71v482h54v-482l-3 -68l34 43l180 191l37 -34l-271 -288h-8z" />
    <glyph glyph-name="arrow.1_E" unicode="&#xe01f;" 
d="M364 543l34 37l289 -270v-8l-290 -271l-34 37l196 183l43 34l-71 -3h-454v48h454l68 -3l-43 34z" />
    <glyph glyph-name="arrow.2_N" unicode="&#xe020;" 
d="M71 319l258 273l42 46h8l42 -46l258 -273l-85 -82l-157 166l6 -175v-228h-136v228l6 172l-157 -163z" />
    <glyph glyph-name="arrow.2_W" unicode="&#xe021;" 
d="M383 609l82 -85l-168 -161l173 7h203v-128h-203l-176 7l171 -161l-82 -85l-274 257l-46 42v8l46 42z" />
    <glyph glyph-name="arrow.2_S" unicode="&#xe022;" 
d="M679 293l-258 -273l-42 -46h-8l-42 46l-258 273l85 82l157 -166l-6 175v228h136v-228l-6 -172l157 163z" />
    <glyph glyph-name="arrow.2_E" unicode="&#xe023;" 
d="M285 88l171 161l-176 -7h-203v128h203l173 -7l-168 161l82 85l274 -257l46 -42v-8l-46 -42l-274 -257z" />
    <glyph glyph-name="arrow.3_N" unicode="&#xe024;" 
d="M371 655h8l336 -368v-18l-236 2l2 -271h-212l2 271l-236 -2v18z" />
    <glyph glyph-name="arrow.3_W" unicode="&#xe025;" 
d="M36 308l368 336h18l-2 -236l273 2v-212l-273 2l2 -236h-18l-368 336v8z" />
    <glyph glyph-name="arrow.3_S" unicode="&#xe026;" 
d="M371 -26l-336 368v18l236 -2l-2 271h212l-2 -271l236 2v-18l-336 -368h-8z" />
    <glyph glyph-name="arrow.3_E" unicode="&#xe027;" 
d="M714 308v-8l-368 -336h-18l2 236l-273 -2v212l273 -2l-2 236h18z" />
    <glyph glyph-name="arrow.4_N" unicode="&#xe028;" 
d="M369 655h12l334 -345v-31l-215 1l3 -280h-256l3 280l-215 -1v31zM463 40l-2 278l192 -1v7l-46 40l-232 239l-232 -239l-46 -40v-7l192 1l-2 -278h176z" />
    <glyph glyph-name="arrow.4_W" unicode="&#xe029;" 
d="M12 310l345 334h31l-1 -215l282 3v-256l-282 3l1 -215h-31l-345 334v12zM626 214v180l-278 -2l1 190h-7l-41 -46l-239 -232l239 -232l41 -46h7l-1 190z" />
    <glyph glyph-name="arrow.4_S" unicode="&#xe02a;" 
d="M381 -26h-12l-334 345v31l215 -1l-3 280h256l-3 -280l215 1v-31zM287 589l2 -278l-192 1v-7l46 -40l232 -239l232 239l46 40v7l-192 -1l2 278h-176z" />
    <glyph glyph-name="arrow.4_E" unicode="&#xe02b;" 
d="M714 310v-12l-345 -334h-31l1 215l-282 -3v256l282 -3l-1 215h31zM100 214l278 2l-1 -190h7l41 46l239 232l-239 232l-41 46h-7l1 -190l-278 2v-180z" />
    <glyph glyph-name="arrow.5_E" unicode="&#xe02c;" horiz-adv-x="900" 
d="M450 -64q-152 0 -261 108.5t-109 261.5t109 261.5t261 108.5q153 0 261.5 -108.5t108.5 -261.5t-108.5 -261.5t-261.5 -108.5zM387 482l108 -105l29 -24l-142 5h-163v-104h163l144 5l-29 -24l-110 -105l65 -68l221 207l40 37l-40 37l-221 207z" />
    <glyph glyph-name="arrow.5_NE" unicode="&#xe02d;" horiz-adv-x="900" 
d="M450 -64q-152 0 -261 108.5t-109 261.5t109 261.5t261 108.5q153 0 261.5 -108.5t108.5 -261.5t-108.5 -261.5t-261.5 -108.5zM279 494v-96h151l40 2l-96 -87l-135 -134l76 -76l131 132l90 95l-3 -40v-155h101v307l1 53l-53 -1h-303z" />
    <glyph glyph-name="arrow.5_N" unicode="&#xe02e;" horiz-adv-x="900" 
d="M450 -64q-152 0 -261 108.5t-109 261.5t109 261.5t261 108.5q153 0 261.5 -108.5t108.5 -261.5t-108.5 -261.5t-261.5 -108.5zM695 303l-208 220l-37 40l-37 -40l-208 -220l68 -65l105 108l23 26l-5 -137v-160h108v160l-5 139l23 -26l105 -110z" />
    <glyph glyph-name="arrow.5_NW" unicode="&#xe02f;" horiz-adv-x="900" 
d="M450 -64q-153 0 -261.5 108.5t-108.5 261.5t108.5 261.5t261.5 108.5q152 0 261 -108.5t109 -261.5t-109 -261.5t-261 -108.5zM470 398h151v96h-303l-53 1l1 -53v-307h101v155l-3 40l90 -95l131 -132l76 76l-135 134l-96 87z" />
    <glyph glyph-name="arrow.5_W" unicode="&#xe030;" horiz-adv-x="900" 
d="M450 -64q-152 0 -261 108.5t-109 261.5t109 261.5t261 108.5q153 0 261.5 -108.5t108.5 -261.5t-108.5 -261.5t-261.5 -108.5zM513 130l-110 105l-29 24l144 -5h163v104h-163l-142 -5l29 24l108 105l-65 68l-221 -207l-40 -37l40 -37l221 -207z" />
    <glyph glyph-name="arrow.5_SW" unicode="&#xe031;" horiz-adv-x="900" 
d="M450 676q152 0 261 -108.5t109 -261.5t-109 -261.5t-261 -108.5q-153 0 -261.5 108.5t-108.5 261.5t108.5 261.5t261.5 108.5zM621 118v96h-151l-40 -2l96 87l135 134l-76 76l-131 -132l-90 -95l3 40v155h-101v-307l-1 -53l53 1h303z" />
    <glyph glyph-name="arrow.5_S" unicode="&#xe032;" horiz-adv-x="900" 
d="M450 676q153 0 261.5 -108.5t108.5 -261.5t-108.5 -261.5t-261.5 -108.5q-152 0 -261 108.5t-109 261.5t109 261.5t261 108.5zM205 309l208 -220l37 -40l37 40l208 220l-68 65l-105 -108l-23 -26l5 137v160h-108v-160l5 -139l-23 26l-105 110z" />
    <glyph glyph-name="arrow.5_SE" unicode="&#xe033;" horiz-adv-x="900" 
d="M450 676q153 0 261.5 -108.5t108.5 -261.5t-108.5 -261.5t-261.5 -108.5q-152 0 -261 108.5t-109 261.5t109 261.5t261 108.5zM634 170v307h-101v-155l3 -40l-90 95l-131 132l-76 -76l135 -134l96 -87l-40 2h-151v-96h303l53 -1z" />
    <glyph glyph-name="arrowhead.1_W" unicode="&#xe034;" 
d="M506 282l3 -210h-16l-443 229v10l443 229h16l-3 -210h244v-48h-244z" />
    <glyph glyph-name="arrowhead.1_E" unicode="&#xe035;" 
d="M244 282h-244v48h244l-3 210h16l443 -229v-10l-443 -229h-16z" />
    <glyph glyph-name="arrowhead.2_W" unicode="&#xe036;" 
d="M554 282q3 -53 46 -97t91 -64l19 -8l-9 -25l-651 212v12l651 212l9 -25l-19 -8q-49 -21 -91.5 -64.5t-45.5 -96.5h196v-48h-196z" />
    <glyph glyph-name="arrowhead.2_E" unicode="&#xe037;" 
d="M196 282h-196v48h196q-3 53 -45 96.5t-92 64.5l-19 8l9 25l651 -212v-12l-651 -212l-9 25l19 8q49 21 91.5 64.5t45.5 96.5z" />
    <glyph glyph-name="arrowhead.3_W" unicode="&#xe038;" 
d="M607 330h143v-48h-143q0 -33 30 -81t76 -83l-17 -23q-115 57 -285 112.5t-361 87.5v22q191 32 361 87.5t285 112.5l17 -23q-46 -35 -76 -83t-30 -81z" />
    <glyph glyph-name="arrowhead.3_E" unicode="&#xe039;" 
d="M143 330q0 33 -30 81t-76 83l17 23q115 -57 285 -112.5t361 -87.5v-22q-191 -32 -361 -87.5t-285 -112.5l-17 23q46 35 76 83t30 81h-143v48h143z" />
    <glyph glyph-name="arrowhead.4_W" unicode="&#xe03a;" 
d="M497 326l203 4h50v-48h-50l-203 4q56 -26 100 -85.5t60 -115.5l-16 -9q-83 76 -125 103q-118 77 -353 105q-52 6 -113 11v22q113 8 199 24t138.5 31t102.5 45.5t72.5 48.5t67.5 60q7 7 11 10l16 -9q-16 -56 -60 -115.5t-100 -85.5z" />
    <glyph glyph-name="arrowhead.4_E" unicode="&#xe03b;" 
d="M253 326q-56 26 -100 85.5t-60 115.5l16 9q83 -76 125 -103q118 -77 353 -105q52 -6 113 -11v-22q-113 -8 -199 -24t-138.5 -31t-102.5 -45.5t-72.5 -48.5t-67.5 -60q-7 -7 -11 -10l-16 9q16 56 60 115.5t100 85.5l-203 -4h-50v48h50z" />
    <glyph glyph-name="arrowhead.5_W" unicode="&#xe03c;" 
d="M370 54l-319 248v8l319 248l30 -39l-213 -158l-43 -34l71 3h535v-48h-535l-68 3l43 -34l210 -158z" />
    <glyph glyph-name="arrowhead.5_E" unicode="&#xe03d;" 
d="M380 558l319 -248v-8l-319 -248l-30 39l213 158l43 34l-71 -3h-535v48h535l68 -3l-43 34l-210 158z" />
    <glyph glyph-name="arrowtail.1_W" unicode="&#xe03e;" 
d="M576 365l-44 -40h22l176 4v-46l-176 4h-22l44 -40l104 -107l-31 -27l-168 176h-99l44 -42l104 -107l-31 -27l-168 176h-99l44 -42l104 -107l-31 -27l-168 176h-99l44 -42l104 -107l-31 -27l-161 169h-38v48h38l161 169l31 -27l-104 -107l-44 -42h99l168 176l31 -27
l-104 -107l-44 -42h99l168 176l31 -27l-104 -107l-44 -42h99l168 176l31 -27z" />
    <glyph glyph-name="arrowtail.1_E" unicode="&#xe03f;" 
d="M218 325l-44 40l-104 107l31 27l168 -176h99l-44 42l-104 107l31 27l168 -176h99l-44 42l-104 107l31 27l168 -176h99l-44 42l-104 107l31 27l161 -169h38v-48h-38l-161 -169l-31 27l104 107l44 42h-99l-168 -176l-31 27l104 107l44 42h-99l-168 -176l-31 27l104 107
l44 42h-99l-168 -176l-31 27l104 107l44 40h-22l-176 -4v46l176 -4h22z" />
    <glyph glyph-name="arrowtail.2_W" unicode="&#xe040;" 
d="M720 456v-10q-67 -80 -167 -132v-16q100 -52 167 -132v-10h-576q-21 43 -59 78t-85 48v48q47 13 85 48t59 78h576z" />
    <glyph glyph-name="arrowtail.2_E" unicode="&#xe041;" 
d="M30 456h576q21 -43 59 -78t85 -48v-48q-47 -13 -85 -48t-59 -78h-576v10q67 80 167 132v16q-100 52 -167 132v10z" />
    <glyph glyph-name="arrowtail.3_W" unicode="&#xe042;" 
d="M449 327l91 3h210v-48h-210l-91 3q-8 -75 -65 -127t-134 -52q-82 0 -141 59t-59 141t59 141t141 59q77 0 134 -52t65 -127z" />
    <glyph glyph-name="arrowtail.3_E" unicode="&#xe043;" 
d="M301 327q8 75 65 127t134 52q82 0 141 -59t59 -141t-59 -141t-141 -59q-77 0 -134 52t-65 127l-91 -3h-210v48h210z" />
    <glyph glyph-name="arrowshaft.1" unicode="&#xe044;" 
d="M750 282h-750v48h750v-48z" />
    <glyph glyph-name="arrowshaft.2" unicode="&#xe045;" 
d="M400 330h350v-48h-350v-178h-50v178h-350v48h350v176h50v-176z" />
    <glyph glyph-name="registered.alt" horiz-adv-x="791" 
d="M380 -32q-142 0 -228.5 86t-86.5 223q0 111 48.5 205t139.5 151t205 57q142 0 229 -86t87 -222q0 -111 -49 -205.5t-140 -151.5t-205 -57zM388 6q148 0 243.5 112t95.5 265q0 120 -77 195t-199 75q-149 0 -244.5 -112t-95.5 -266q0 -120 77 -194.5t200 -74.5zM388 354h38
q44 0 66.5 25t22.5 60q0 26 -16 37.5t-52 11.5h-24zM379 320l-28 -106q-4 -15 4 -19.5t41 -6.5l-9 -31h-185l9 31q31 1 43 7t16 19l66 251q4 15 -4.5 20t-41.5 6l9 31h165q69 0 102.5 -23t33.5 -61q0 -36 -33.5 -64t-91.5 -35l-1 -4q46 -7 61.5 -23.5t13.5 -54.5v-33
q-1 -22 9 -29.5t39 -9.5l-8 -31q-1 0 -16 -0.5t-21 -0.5q-57 0 -74.5 15t-14.5 53l4 40q3 36 -7 47.5t-48 11.5h-33z" />
    <glyph glyph-name="R_p" horiz-adv-x="1138" 
d="M272 284l-54 -202q-7 -26 6.5 -34t68.5 -10l-11 -38h-305l10 38q52 2 73 11.5t27 32.5l122 456q7 25 -7.5 33t-70.5 10l10 39h274q113 0 166 -39t53 -104q0 -63 -55.5 -109.5t-151.5 -57.5l-1 -4q81 -11 108 -41.5t25 -99.5l-2 -64q-1 -38 14 -51t64 -17l84 314
q6 22 -4.5 32t-51.5 13v35l187 10l-17 -55l4 -4q72 62 134 62q54 0 85.5 -41t31.5 -107q0 -68 -32 -134t-94 -111.5t-138 -45.5q-42 0 -83 17l-33 -135q-4 -13 14.5 -18t66.5 -7v-35h-277v35q68 3 77 27l32 94l4 15q-7 0 -28.5 -0.5t-29.5 -0.5q-99 0 -125.5 25t-20.5 94
l6 65q5 61 -14 84t-85 23h-56zM831 42q60 0 100 75t40 169q0 87 -64 87q-43 0 -86 -38l-62 -246q18 -47 72 -47zM283 325h54q77 0 120 46.5t43 114.5q0 92 -110 92h-40z" />
    <glyph glyph-name="percent.alt" horiz-adv-x="827" 
d="M287 635q60 0 97 -37.5t37 -96.5q0 -78 -55.5 -142t-142.5 -64q-59 0 -96 37.5t-37 97.5q0 78 55 141.5t142 63.5zM83 -10l333 330l306 310h66l-332 -328l-307 -312h-66zM225 328q32 0 58 38.5t38 85t12 85.5q0 66 -47 66t-77.5 -72t-30.5 -137q0 -66 47 -66zM648 325
q59 0 96 -37.5t37 -96.5q0 -78 -55 -142t-142 -64q-60 0 -97 37.5t-37 97.5q0 78 55.5 141.5t142.5 63.5zM585 18q47 0 77.5 72t30.5 137q0 66 -47 66q-32 0 -58 -38.5t-38 -85t-12 -85.5q0 -66 47 -66z" />
    <glyph glyph-name="zero.tab" horiz-adv-x="540" 
d="M134 140q0 -111 68 -111q53 0 102 85t75.5 191t26.5 184q0 61 -17 86t-50 25q-54 0 -103 -85t-75.5 -191t-26.5 -184zM522 420q0 -68 -22 -143.5t-61 -141t-101 -108.5t-134 -43q-90 0 -138 59.5t-48 165.5q0 68 22 142.5t61 140.5t101.5 109t134.5 43q90 0 137.5 -59
t47.5 -165z" />
    <glyph glyph-name="one.tab" horiz-adv-x="540" 
d="M-7 0l11 39q85 1 118 10.5t39 31.5l113 424q8 25 2.5 41t-36 24t-94.5 8l9 36l279 20l-147 -553q-3 -11 1.5 -18.5t20.5 -12.5t45 -7.5t75 -3.5l-10 -39h-426z" />
    <glyph glyph-name="two.tab" horiz-adv-x="540" 
d="M-30 0l22 92l146 101q144 100 197 168t53 137q0 47 -24 74t-68 27q-67 0 -103 -50q53 -22 53 -74q0 -31 -21 -54.5t-56 -23.5q-34 0 -56 23t-22 58q0 68 71 117t164 49q95 0 143.5 -41t48.5 -109q0 -75 -65 -144t-206 -152l-159 -90l-2 -9h193q52 0 79.5 20t63.5 80
l31 -2l-57 -197h-426z" />
    <glyph glyph-name="three.tab" horiz-adv-x="540" 
d="M209 570q46 -21 46 -65q0 -29 -18.5 -50.5t-52.5 -21.5t-55 20.5t-21 51.5q0 60 61.5 99.5t150.5 39.5q100 0 152 -41t52 -101q0 -151 -240 -181l-2 -8q90 -11 133.5 -49.5t43.5 -94.5q0 -78 -63.5 -131.5t-175.5 -53.5q-96 0 -158.5 39t-62.5 101q0 35 22.5 59t57.5 24
q31 0 50.5 -19.5t19.5 -49.5q0 -52 -48 -71q13 -16 41 -28t61 -12q54 0 87 33q44 43 44 117q0 54 -31 82.5t-108 39.5l11 43q101 6 150 53q43 40 43 105q0 46 -25.5 74t-74.5 28q-54 0 -90 -32z" />
    <glyph glyph-name="four.tab" horiz-adv-x="540" 
d="M477 191h-96l-30 -113q-6 -21 11 -29t59 -10l-10 -39h-290l11 39q52 2 75.5 10t29.5 29l30 113h-258l19 74l350 368l120 -2l-99 -370h97zM349 540l-264 -279h200l75 278z" />
    <glyph glyph-name="five.tab" horiz-adv-x="540" 
d="M188 -16q-84 0 -133.5 38.5t-49.5 94.5q0 36 22 60t57 24q32 0 50 -19.5t18 -48.5q0 -50 -44 -74q23 -32 74 -32q64 0 104 55.5t40 140.5q0 56 -25.5 85.5t-72.5 29.5q-49 0 -120 -39l-21 20l98 310h358l-47 -107h-286l-54 -164q62 31 128 31q82 0 127 -44.5t45 -115.5
q0 -98 -74.5 -171.5t-193.5 -73.5z" />
    <glyph glyph-name="six.tab" horiz-adv-x="540" 
d="M223 -16q-94 0 -146 57.5t-52 153.5q0 195 144.5 318t368.5 137v-41q-264 -42 -358 -250l7 -6q57 66 138 66q71 0 114 -43t43 -119q0 -109 -72.5 -191t-186.5 -82zM212 26q61 0 104.5 78.5t43.5 168.5q0 100 -68 100q-60 0 -105.5 -75.5t-45.5 -169.5q0 -102 71 -102z
" />
    <glyph glyph-name="seven.tab" horiz-adv-x="540" 
d="M38 -9l1 29l441 502h-215q-54 0 -76.5 -19.5t-56.5 -85.5l-34 1l64 211h402l14 -45l-248 -331l-178 -262h-114z" />
    <glyph glyph-name="eight.tab" horiz-adv-x="540" 
d="M217 -16q-97 0 -152.5 42.5t-55.5 109.5t47.5 110.5t127.5 65.5q-75 60 -75 139t64.5 136t164.5 57q85 0 136.5 -42.5t51.5 -105.5q0 -119 -159 -164q90 -66 90 -147q0 -88 -70 -144.5t-170 -56.5zM234 276l-18 12q-101 -57 -101 -153q0 -50 30 -78.5t78 -28.5t80.5 30.5
t32.5 80.5q0 43 -25.5 73.5t-76.5 63.5zM230 496q0 -40 23.5 -72t79.5 -70q89 57 89 148q0 43 -24 71t-66 28q-43 0 -72.5 -28t-29.5 -77z" />
    <glyph glyph-name="nine.tab" horiz-adv-x="540" 
d="M322 644q94 0 146 -57t52 -153q0 -195 -144.5 -318t-368.5 -137v41q266 42 359 249l-7 6q-54 -65 -138 -65q-71 0 -114.5 43t-43.5 119q0 109 72.5 190.5t186.5 81.5zM333 603q-60 0 -104 -78.5t-44 -168.5q0 -100 69 -100q60 0 105.5 75.5t45.5 169.5q0 102 -72 102z
" />
    <glyph glyph-name="period.tab" horiz-adv-x="279" 
d="M71 -16q-32 0 -54.5 22t-22.5 53t23 52.5t54 21.5q32 0 54.5 -21.5t22.5 -52.5t-23 -53t-54 -22z" />
    <glyph glyph-name="comma.tab" horiz-adv-x="279" 
d="M-68 -153l-13 32q129 52 150 109l-6 5q-29 2 -48 20.5t-19 45.5q0 31 21.5 53t52.5 22q32 0 55 -25t23 -63q0 -60 -52 -111.5t-164 -87.5z" />
    <glyph glyph-name="colon.tab" horiz-adv-x="284" 
d="M74 -16q-32 0 -55 22t-23 53t23 52.5t55 21.5t54.5 -21.5t22.5 -52.5t-23 -53t-54 -22zM150 272q-32 0 -54.5 22t-22.5 53t23 52.5t54 21.5q32 0 54.5 -21.5t22.5 -52.5t-23 -53t-54 -22z" />
    <glyph glyph-name="semicolon.tab" horiz-adv-x="284" 
d="M151 272q-32 0 -54.5 22t-22.5 53t23 52.5t54 21.5q32 0 54.5 -21.5t22.5 -52.5t-23 -53t-54 -22zM-66 -153l-12 32q128 52 149 109l-6 5q-29 2 -48 20.5t-19 45.5q0 31 22 53t52 22q33 0 55.5 -25t22.5 -63q0 -60 -52 -111.5t-164 -87.5z" />
    <glyph glyph-name="twodotleader.tab" horiz-adv-x="540" 
d="M350 -16q-32 0 -54.5 22t-22.5 53t23 52.5t54 21.5q32 0 54.5 -21.5t22.5 -52.5t-23 -53t-54 -22zM80 -16q-32 0 -54.5 22t-22.5 53t23 52.5t54 21.5q32 0 54.5 -21.5t22.5 -52.5t-23 -53t-54 -22z" />
    <glyph glyph-name="periodcentered.tab" horiz-adv-x="279" 
d="M140 245q-32 0 -55 21.5t-23 52.5t23 53t55 22t54.5 -22t22.5 -53t-23 -52.5t-54 -21.5z" />
    <glyph glyph-name="hyphen.tab" horiz-adv-x="463" 
d="M32 216l21 77h353l-21 -77h-353z" />
    <glyph glyph-name="slash.tab" horiz-adv-x="540" 
d="M-121 -203l318 453l314 454h65l-317 -454l-314 -453h-66z" />
    <glyph glyph-name="bar.tab" horiz-adv-x="270" 
d="M105 704h60v-907h-60v907z" />
    <glyph glyph-name="brokenbar.tab" horiz-adv-x="270" 
d="M165 316h-60v388h60v-388zM105 184h60v-387h-60v387z" />
    <glyph glyph-name="underscore.tab" horiz-adv-x="540" 
d="M-87 0l14 51h544l-14 -51h-544z" />
    <glyph glyph-name="dollar.tab" horiz-adv-x="540" 
d="M209 -68l-55 4l22 83q-73 11 -117.5 44.5t-44.5 80.5q0 33 21.5 57t55.5 24q24 0 39.5 -16.5t15.5 -37.5q0 -47 -48 -66q17 -32 90 -49l59 221q-73 33 -107.5 69t-34.5 94q0 71 58.5 127t166.5 56h13l20 70l55 -3l-20 -74q62 -14 99.5 -47t37.5 -73q0 -32 -19 -54
t-48 -22q-26 0 -42 15t-16 38q0 20 13 37.5t33 24.5q-30 32 -71 43l-56 -208q70 -34 107.5 -71t37.5 -94q0 -75 -58.5 -133.5t-163.5 -58.5h-21zM373 151q0 32 -19.5 56t-61.5 48l-54 -205h10q61 0 93 29t32 72zM207 488q0 -31 19 -52.5t58 -42.5l51 192h-7q-53 0 -87 -27
t-34 -70z" />
    <glyph glyph-name="sterling.tab" horiz-adv-x="540" 
d="M419 298h-147q-2 -110 -109 -178q18 -3 80.5 -16t92.5 -13q37 0 56.5 18t40.5 68l45 -6q-40 -186 -165 -186q-37 0 -67.5 13t-68.5 42t-46 34q-37 -90 -92 -90q-29 0 -47 18t-17 42q1 35 35.5 58t86.5 23q15 0 23 -1q36 50 36 113q0 17 -6 61h-101l12 46h80
q-10 62 -10 90q0 93 68 152t170 59q81 0 125.5 -38t44.5 -87q0 -36 -22 -60t-54 -24q-31 0 -50.5 17t-19.5 46q0 50 47 70q-20 35 -69 35q-48 0 -77.5 -36.5t-29.5 -103.5q0 -9 6 -120h161z" />
    <glyph glyph-name="Euro.tab" horiz-adv-x="540" 
d="M366 225h-174q-1 -10 -1 -29q0 -76 27.5 -112.5t69.5 -36.5q67 0 137 85l29 -27q-47 -59 -94 -90t-112 -31q-84 0 -137 59t-53 167v15h-64l12 44h55q5 39 15 78h-49l12 44h51q39 111 118.5 182t186.5 71q68 0 113 -34.5t44 -91.5q-1 -34 -22 -58.5t-54 -24.5
q-29 0 -48 17.5t-19 45.5q0 49 50 72q-15 33 -59 33q-58 0 -104 -60t-74 -152h190l-13 -44h-189q-12 -55 -15 -78h183z" />
    <glyph glyph-name="yen.tab" horiz-adv-x="540" 
d="M485 494l-120 -165h131l-12 -43h-150l-18 -25l-17 -61h163l-12 -44h-162l-19 -71q-7 -25 8.5 -34.5t74.5 -11.5l-10 -39h-310l10 39q61 2 81 11t27 35l19 71h-161l11 44h162l14 49l-7 37h-146l12 43h125l-39 204q-6 28 -18.5 39.5t-43.5 19.5l10 37h257l-10 -39
q-50 -3 -61.5 -16.5t-5.5 -49.5l31 -214l124 171q29 39 38 59.5t1 33t-39 19.5l9 36h182l-10 -36q-34 -8 -56.5 -26.5t-62.5 -72.5z" />
    <glyph glyph-name="cent.tab" horiz-adv-x="540" 
d="M219 -95l-50 3l22 86q-64 12 -103.5 60.5t-39.5 120.5q0 111 77 198.5t189 92.5l20 76l49 -3l-20 -75q58 -10 94 -44t36 -79q0 -31 -18.5 -53.5t-47.5 -22.5q-27 0 -43.5 15t-16.5 43q0 19 11.5 38t30.5 28q-16 31 -56 36l-99 -379q4 -1 13 -1q76 0 138 81l27 -25
q-76 -108 -192 -112zM169 170q0 -79 44 -109l94 360q-60 -19 -99 -90.5t-39 -160.5z" />
    <glyph glyph-name="numbersign.tab" horiz-adv-x="540" 
d="M300 677l-58 -209h141l58 209h59l-58 -209h107l-5 -53h-117l-54 -192h122l-5 -53h-132l-58 -210h-59l58 210h-141l-58 -210h-59l58 210h-107l5 53h117l54 192h-122l5 53h132l58 209h59zM227 415l-54 -192h141l54 192h-141z" />
    <glyph glyph-name="paragraph.tab" horiz-adv-x="540" 
d="M157 -105l73 273q-84 14 -135 63t-51 128q0 110 90 188.5t244 78.5h239l-10 -36q-53 -4 -70 -17.5t-28 -53.5l-167 -624h-55l184 687h-75l-184 -687h-55z" />
    <glyph glyph-name="section.tab" horiz-adv-x="532" 
d="M333 644q77 0 127 -32.5t50 -78.5q0 -30 -17 -49.5t-45 -19.5q-26 0 -42.5 15.5t-16.5 39.5q0 34 30 51q-10 13 -35.5 23t-54.5 10q-47 0 -75 -22.5t-28 -55.5q0 -30 24 -49t79 -44q67 -30 99.5 -60.5t32.5 -83.5q0 -50 -33.5 -91.5t-100.5 -59.5h2q49 -41 49 -95
q0 -69 -55 -120t-148 -51q-83 0 -140.5 34t-57.5 84q0 29 18.5 49.5t48.5 20.5q25 0 40.5 -15.5t15.5 -38.5q0 -33 -32 -56q9 -14 40.5 -25.5t65.5 -11.5q54 0 83 24t29 60q0 34 -26 56.5t-84 47.5q-63 27 -96 57.5t-33 80.5q0 54 36.5 91.5t106.5 52.5q-57 40 -57 100
q0 68 54 115t146 47zM141 280q0 -30 25 -50t81 -46q34 -15 53 -27q33 11 50 35t17 49q0 35 -27 57.5t-83 47.5q-19 7 -34 16q-40 -9 -61 -31t-21 -51z" />
    <glyph glyph-name="degree.tab" horiz-adv-x="540" 
d="M511 534q0 -89 -62.5 -157.5t-162.5 -68.5q-72 0 -115 42.5t-43 110.5q0 89 62.5 157.5t162.5 68.5q72 0 115 -42.5t43 -110.5zM223 433q0 -84 66 -84q39 0 69.5 38.5t44 86t12.5 88.5q0 84 -65 84q-40 0 -70.5 -38.5t-43.5 -86t-13 -88.5z" />
    <glyph glyph-name="percent.tab" horiz-adv-x="540" 
d="M201 644q51 0 79.5 -31.5t28.5 -84.5q0 -68 -45 -123t-114 -55q-51 0 -79.5 31.5t-28.5 84.5q0 68 45 123t114 55zM150 379q37 0 62 61.5t25 116.5q0 58 -36 58q-37 0 -62 -61.5t-25 -116.5q0 -58 36 -58zM-57 -11l309 334l284 316h62l-309 -333l-283 -317h-63zM392 279
q51 0 79.5 -31.5t28.5 -84.5q0 -68 -45 -123.5t-114 -55.5q-51 0 -79.5 32t-28.5 85q0 68 45 123t114 55zM341 14q37 0 62 61.5t25 116.5q0 58 -36 58q-37 0 -62 -61.5t-25 -116.5q0 -58 36 -58z" />
    <glyph glyph-name="quotedbl.tab" horiz-adv-x="540" 
d="M304 622q0 -20 -20.5 -51t-89.5 -111l-114 -132l-34 21l79 153q57 110 78.5 139t49.5 29q22 0 36.5 -14t14.5 -34zM506 622q0 -20 -20.5 -51t-89.5 -111l-114 -132l-33 21l79 153q58 111 78.5 139.5t48.5 28.5q22 0 36.5 -14t14.5 -34z" />
    <glyph glyph-name="quotesingle.tab" horiz-adv-x="270" 
d="M304 622q0 -20 -20.5 -51t-89.5 -111l-114 -132l-34 21l79 153q55 109 77.5 138.5t50.5 29.5q22 0 36.5 -14t14.5 -34z" />
    <glyph glyph-name="plus.tab" horiz-adv-x="540" 
d="M361 523l-49 -184h181l-17 -63h-181l-50 -186h-69l50 186h-183l17 63h183l49 184h69z" />
    <glyph glyph-name="minus.tab" horiz-adv-x="540" 
d="M471 276h-422l17 63h422z" />
    <glyph glyph-name="divide.tab" horiz-adv-x="540" 
d="M495 276h-470l17 64h470zM315 402q-31 0 -52.5 20.5t-21.5 50.5t22 50.5t52 20.5t51.5 -20.5t21.5 -50.5t-21.5 -50.5t-51.5 -20.5zM226 72q-31 0 -52.5 20.5t-21.5 50.5t22 50.5t52 20.5t51.5 -20.5t21.5 -50.5t-21.5 -50.5t-51.5 -20.5z" />
    <glyph glyph-name="equal.tab" horiz-adv-x="540" 
d="M447 180h-425l17 63h425zM499 372h-425l16 64h425z" />
    <glyph glyph-name="multiply.tab" horiz-adv-x="540" 
d="M26 153l199 157l-113 156l52 40l113 -155l199 157l36 -47l-200 -158l114 -155l-52 -40l-114 154l-198 -156z" />
    <glyph glyph-name="less.tab" horiz-adv-x="540" 
d="M385 87l-323 194l14 55l428 193l-19 -72l-347 -153l265 -153z" />
    <glyph glyph-name="greater.tab" horiz-adv-x="540" 
d="M154 529l324 -193l-15 -56l-427 -193l18 72l347 153l-264 154z" />
    <glyph glyph-name="plusminus.tab" horiz-adv-x="540" 
d="M385 601l-44 -161h161l-16 -60h-161l-43 -163h-63l43 163h-160l16 60h160l44 161h63zM408 89h-383l15 58h384z" />
    <glyph glyph-name="space.tab" horiz-adv-x="270" 
 />
    <glyph glyph-name="NUL" horiz-adv-x="0" 
 />
    <glyph glyph-name="hfjslug" horiz-adv-x="694" 
d="M644 -200h-208l-8 14h-163l-8 -14h-207v303q14 0 23 9.5t9 22.5t-9.5 22.5t-22.5 9.5v554h100l30 79h334l29 -79h101v-921zM400 563v-172h15v78h38v14h-38v66h43v14h-58zM184 563v-172h15v79h47v-79h15v172h-15v-79h-47v79h-15zM460 394q10 -4 21 -4q31 0 31 36v137h-16
v-137q0 -22 -16 -22q-8 0 -20 5v-15zM371 465l-13 3q-4 -18 -8 -30h-1l-16 31q23 21 23 42q0 12 -7 21.5t-20 9.5q-12 0 -20 -9.5t-8 -21.5q0 -13 14 -39q-23 -18 -23 -47q0 -16 8 -26.5t21 -10.5q19 0 29 24h1l12 -24l12 6l-17 32q6 14 13 39zM523 323v-46h8v12l8 8l15 -20
h10l-20 26l18 20h-10l-20 -24h-1v24h-8zM488 292l10 -15h9l-12 17q10 4 10 14q0 15 -17 15h-20v-46h8v15h12zM426 276q10 0 17 7t7 17q0 9 -7 16.5t-17 7.5t-17 -7.5t-7 -16.5q0 -10 7 -17t17 -7zM370 301l-13 22h-9l18 -29v-17h8v17l18 29h-9zM193 323v-46h34v7h-26v13h23
v7h-23v12h26v7h-34zM132 323v-46h8v32l25 -32h7v46h-8v-32l-25 32h-7zM241 323l14 -47h8l11 34h1l11 -34h8l14 47h-8l-10 -35h-1l-11 35h-7l-11 -35h-1l-10 35h-8zM327 479q-12 22 -12 32q0 19 14 19q13 0 13 -19q0 -15 -15 -32zM342 423q-8 -21 -20 -21q-16 0 -16 25
q0 19 16 35zM487 299h-11v17h11q10 0 10 -8q0 -9 -10 -9zM426 283q-16 0 -16 17q0 6 4.5 11.5t11.5 5.5t11.5 -5.5t4.5 -11.5q0 -17 -16 -17z" />
    <glyph glyph-name="i.dot" horiz-adv-x="320" 
d="M195 623q0 39 25.5 67.5t62.5 28.5q25 0 40.5 -15t15.5 -44q0 -39 -25 -68.5t-61 -29.5q-25 0 -41.5 16t-16.5 45zM261 43v-35q-48 -16 -106 -16q-104 0 -104 78q0 22 9 47l80 253q8 22 -7.5 33t-64.5 14v36l219 11l-109 -342q-9 -28 -9 -44q0 -21 20.5 -29t71.5 -6z" />
    <glyph glyph-name="zero.num" horiz-adv-x="405" 
d="M129 276q0 -79 48 -79q40 0 75.5 62t53.5 136.5t18 128.5q0 79 -48 79q-40 0 -75.5 -62t-53.5 -136.5t-18 -128.5zM418 475q0 -69 -27.5 -140.5t-85 -124.5t-129.5 -53q-69 0 -105 44.5t-36 123.5q0 69 27.5 140.5t85 124.5t129.5 53q69 0 105 -44.5t36 -123.5z" />
    <glyph glyph-name="one.num" horiz-adv-x="405" 
d="M131 587l9 35l211 15l-107 -399q-2 -8 1 -13.5t15 -9.5t33 -6t55 -2l-10 -37h-319l10 37q62 1 86 7.5t28 23.5l80 295q8 32 -8 43t-84 11z" />
    <glyph glyph-name="two.num" horiz-adv-x="405" 
d="M-3 170l17 65l132 92q90 63 124.5 109.5t35.5 94.5q0 33 -16.5 53t-49.5 20q-43 0 -74 -31q38 -15 38 -55q0 -22 -15 -39t-41 -17q-25 0 -41.5 16.5t-16.5 42.5q0 51 53.5 86.5t122.5 35.5q73 0 110.5 -30.5t37.5 -80.5q0 -53 -44.5 -98.5t-138.5 -102.5l-123 -72l-1 -8
h132q36 0 55 14t46 58l25 -1l-45 -152h-323z" />
    <glyph glyph-name="three.num" horiz-adv-x="405" 
d="M182 157q-71 0 -116.5 28t-45.5 73q0 27 17 45t44 18q23 0 38 -14.5t15 -37.5q0 -39 -37 -52q23 -23 69 -23q38 0 66 26q31 31 31 81q0 36 -21 56t-75 28l10 40q71 3 109 39q29 27 29 71q0 71 -71 71q-40 0 -64 -19q34 -15 34 -49q0 -21 -14 -37t-40 -16t-41.5 15.5
t-15.5 38.5q0 44 47.5 74t116.5 30q75 0 112 -30t37 -75q0 -112 -180 -133l-2 -6q68 -8 100.5 -37.5t32.5 -69.5q0 -57 -50.5 -96t-134.5 -39z" />
    <glyph glyph-name="four.num" horiz-adv-x="405" 
d="M385 304h-71l-18 -68q-4 -16 7 -22t42 -7l-10 -37h-217l10 37q70 1 77 29l18 68h-201l14 55l263 286l106 -2l-76 -284h71zM282 572l-195 -213h151l57 212z" />
    <glyph glyph-name="five.num" horiz-adv-x="405" 
d="M168 157q-64 0 -102.5 28.5t-38.5 70.5q0 26 17 44.5t44 18.5q24 0 37.5 -15t13.5 -36q0 -36 -34 -54q19 -19 56 -19q46 0 76 39t30 99q0 78 -69 78q-38 0 -89 -28l-19 20l74 230h275l-36 -81h-215l-41 -120q46 23 95 23q62 0 96.5 -32t34.5 -83q0 -72 -57.5 -127.5
t-147.5 -55.5z" />
    <glyph glyph-name="six.num" horiz-adv-x="405" 
d="M190 157q-73 0 -113.5 45t-38.5 118q2 135 106.5 227.5t282.5 102.5v-35q-201 -29 -266 -176l5 -4q46 46 100 46q55 0 90 -33.5t34 -91.5q-2 -80 -57.5 -139.5t-142.5 -59.5zM185 194q42 0 72 56t32 118q1 72 -50 72q-43 0 -74.5 -53t-31.5 -118q0 -75 52 -75z" />
    <glyph glyph-name="seven.num" horiz-adv-x="405" 
d="M51 161l1 22l328 365h-155q-41 0 -57.5 -14.5t-42.5 -63.5l-30 1l50 162h303l10 -33l-181 -245l-133 -194h-93z" />
    <glyph glyph-name="eight.num" horiz-adv-x="405" 
d="M186 157q-77 0 -119.5 31.5t-42.5 80.5q0 91 132 128q-58 45 -58 103t50 100.5t127 42.5q67 0 106.5 -32t39.5 -79q0 -84 -117 -118q70 -51 70 -108q0 -65 -55 -107t-133 -42zM196 370l-16 9q-66 -40 -66 -108q0 -36 21.5 -57t55.5 -21q35 0 58.5 23t23.5 59
q0 28 -19 49.5t-58 45.5zM200 531q0 -29 18 -51t59 -48q57 39 57 105q0 30 -16 50t-47 20q-30 0 -50.5 -21t-20.5 -55z" />
    <glyph glyph-name="nine.num" horiz-adv-x="405" 
d="M263 643q73 0 113.5 -45t38.5 -118q-2 -135 -106.5 -227.5t-282.5 -102.5v35q202 29 267 175l-6 5q-43 -46 -100 -46q-55 0 -90 33.5t-34 91.5q2 80 57.5 139.5t142.5 59.5zM268 606q-42 0 -72 -56t-32 -118q-1 -72 50 -72q43 0 74.5 53t31.5 118q0 75 -52 75z" />
    <glyph glyph-name="zero.den" horiz-adv-x="405" 
d="M65 37q0 -80 48 -80q41 0 76.5 62.5t53.5 137t18 128.5q0 79 -48 79q-41 0 -76.5 -62t-53.5 -136.5t-18 -128.5zM354 236q0 -69 -27.5 -140.5t-85 -124.5t-129.5 -53q-68 0 -104.5 44.5t-36.5 123.5q0 69 28 140.5t85.5 124.5t129.5 53q68 0 104 -44.5t36 -123.5z" />
    <glyph glyph-name="one.den" horiz-adv-x="405" 
d="M68 350l9 35l211 15l-107 -399q-2 -9 1 -14.5t15 -9.5t33 -6t55 -2l-10 -36h-319l10 36q62 1 86 8t28 24l80 295q8 32 -8 43t-84 11z" />
    <glyph glyph-name="two.den" horiz-adv-x="405" 
d="M-66 -67l16 64l133 93q90 63 124.5 109.5t35.5 94.5q0 33 -16.5 53t-49.5 20q-43 0 -74 -31q38 -15 38 -55q0 -22 -15 -39t-41 -17q-25 0 -41.5 16.5t-16.5 42.5q0 51 53.5 86.5t122.5 35.5q73 0 110.5 -30.5t37.5 -80.5q0 -53 -44.5 -98.5t-138.5 -102.5l-123 -72l-1 -8
h132q36 0 55 14t46 58l25 -1l-45 -152h-323z" />
    <glyph glyph-name="three.den" horiz-adv-x="405" 
d="M118 -82q-70 0 -116 28t-46 73q0 27 17 45t45 18q23 0 38 -14.5t15 -37.5q0 -19 -11.5 -33t-26.5 -19q25 -23 69 -23q40 0 66 26q32 30 32 81q0 36 -21 56t-76 28l11 40q71 4 107 39q28 28 28 71q0 71 -69 71q-38 0 -62 -19q33 -15 33 -49q0 -21 -14 -36.5t-40 -15.5
q-25 0 -40.5 15t-15.5 38q0 45 47 74.5t115 29.5q75 0 112.5 -30t37.5 -75q0 -112 -181 -133l-1 -6q68 -8 100 -37t32 -70q0 -57 -50.5 -96t-134.5 -39z" />
    <glyph glyph-name="four.den" horiz-adv-x="405" 
d="M323 67h-72l-18 -68q-4 -16 7.5 -22.5t41.5 -7.5l-10 -36h-216l10 36q69 1 77 30l18 68h-202l14 55l264 286l106 -2l-77 -284h72zM220 335l-196 -213h152l57 212z" />
    <glyph glyph-name="five.den" horiz-adv-x="405" 
d="M104 -83q-64 0 -102.5 29t-38.5 71q0 26 16.5 44t44.5 18q24 0 37.5 -14.5t13.5 -35.5q0 -37 -34 -55q19 -19 56 -19q46 0 76 39.5t30 99.5q0 78 -69 78q-38 0 -89 -28l-19 19l74 231h275l-36 -81h-215l-41 -121q46 23 95 23q62 0 96.5 -31.5t34.5 -82.5
q0 -72 -57.5 -128t-147.5 -56z" />
    <glyph glyph-name="six.den" horiz-adv-x="405" 
d="M126 -82q-74 0 -115.5 44t-39.5 117q3 142 112.5 232t280.5 100l1 -35q-203 -29 -268 -176l5 -4q46 46 102 46q54 0 89 -33.5t34 -91.5q-2 -80 -58 -139.5t-143 -59.5zM122 -46q42 0 72 57t31 119q1 71 -50 71q-43 0 -75.5 -53.5t-32.5 -118.5q0 -34 14 -54.5t41 -20.5z
" />
    <glyph glyph-name="seven.den" horiz-adv-x="405" 
d="M-14 -79l2 22l328 366h-155q-41 0 -57.5 -14.5t-42.5 -63.5l-30 1l50 162h303l10 -33l-181 -245l-133 -195h-94z" />
    <glyph glyph-name="eight.den" horiz-adv-x="405" 
d="M122 -82q-78 0 -121 31t-43 81q0 91 134 128q-60 46 -60 102q0 58 51 101t128 43q68 0 108.5 -32t40.5 -79q0 -83 -120 -118q73 -50 73 -107q0 -65 -55.5 -107.5t-135.5 -42.5zM132 131q-14 8 -16 10q-68 -43 -68 -109q0 -36 22 -57.5t57 -21.5q36 0 60.5 23.5t24.5 59.5
q0 28 -20 49t-60 46zM134 292q0 -29 18.5 -51t61.5 -48q59 39 59 105q0 30 -17 50t-48 20t-52.5 -21t-21.5 -55z" />
    <glyph glyph-name="nine.den" horiz-adv-x="405" 
d="M198 404q74 0 115.5 -44t39.5 -118q-3 -143 -112.5 -232.5t-280.5 -98.5l-1 34q204 29 269 176l-5 5q-44 -46 -102 -46q-55 0 -90 33.5t-34 91.5q1 79 57.5 139t143.5 60zM203 367q-42 0 -72 -56.5t-32 -118.5q-1 -71 50 -71q43 0 75.5 53.5t32.5 118.5q0 74 -54 74z" />
    <glyph glyph-name="caron.alt" horiz-adv-x="189" 
d="M144 537l29 162q10 50 23.5 73t43.5 23q20 0 33 -13t13 -34q0 -22 -39 -93l-65 -118h-38z" />
    </font>
</defs>
</svg>
